#N canvas 521 264 903 440 12;
#X obj 81 70 oscparse;
#X obj 81 97 list trim;
#N canvas 234 234 1377 483 routes 0;
#X obj 74 10 inlet;
#X obj 74 374 outlet;
#X obj 229 373 outlet;
#X obj 381 372 outlet;
#X obj 532 370 outlet;
#X obj 688 367 outlet;
#X obj 841 367 outlet;
#X obj 989 368 outlet;
#X obj 1143 372 outlet;
#X obj 74 282 route cc1;
#X obj 804 38 inlet;
#X obj 771 64 select 1 2 3 4;
#X obj 229 282 route cc2;
#X obj 380 282 route cc3;
#X obj 530 281 route cc4;
#X obj 685 281 route cc5;
#X obj 836 281 route cc6;
#X obj 987 281 route cc7;
#X obj 1138 281 route cc8;
#X msg 79 144 symbol cc1;
#X msg 111 184 symbol cc9;
#X msg 161 216 symbol cc17;
#X msg 190 252 symbol cc25;
#X msg 234 144 symbol cc2;
#X msg 266 184 symbol cc10;
#X msg 316 216 symbol cc18;
#X msg 345 252 symbol cc26;
#X msg 385 144 symbol cc3;
#X msg 417 184 symbol cc11;
#X msg 467 216 symbol cc19;
#X msg 497 252 symbol cc27;
#X msg 536 143 symbol cc4;
#X msg 568 182 symbol cc12;
#X msg 617 215 symbol cc20;
#X msg 646 251 symbol cc28;
#X msg 690 143 symbol cc5;
#X msg 722 183 symbol cc13;
#X msg 772 215 symbol cc21;
#X msg 801 251 symbol cc29;
#X msg 841 143 symbol cc6;
#X msg 873 183 symbol cc14;
#X msg 923 215 symbol cc22;
#X msg 952 251 symbol cc30;
#X msg 992 143 symbol cc7;
#X msg 1024 183 symbol cc15;
#X msg 1075 215 symbol cc23;
#X msg 1103 251 symbol cc31;
#X msg 1143 143 symbol cc8;
#X msg 1175 183 symbol cc16;
#X msg 1225 215 symbol cc24;
#X msg 1254 251 symbol cc32;
#X connect 0 0 9 0;
#X connect 0 0 12 0;
#X connect 0 0 13 0;
#X connect 0 0 14 0;
#X connect 0 0 15 0;
#X connect 0 0 16 0;
#X connect 0 0 17 0;
#X connect 0 0 18 0;
#X connect 9 0 1 0;
#X connect 10 0 11 0;
#X connect 11 0 19 0;
#X connect 11 0 23 0;
#X connect 11 0 27 0;
#X connect 11 0 31 0;
#X connect 11 0 35 0;
#X connect 11 0 39 0;
#X connect 11 0 43 0;
#X connect 11 0 47 0;
#X connect 11 1 20 0;
#X connect 11 1 24 0;
#X connect 11 1 28 0;
#X connect 11 1 32 0;
#X connect 11 1 36 0;
#X connect 11 1 40 0;
#X connect 11 1 44 0;
#X connect 11 1 48 0;
#X connect 11 2 21 0;
#X connect 11 2 25 0;
#X connect 11 2 29 0;
#X connect 11 2 33 0;
#X connect 11 2 37 0;
#X connect 11 2 41 0;
#X connect 11 2 45 0;
#X connect 11 2 49 0;
#X connect 11 3 22 0;
#X connect 11 3 26 0;
#X connect 11 3 30 0;
#X connect 11 3 34 0;
#X connect 11 3 38 0;
#X connect 11 3 42 0;
#X connect 11 3 46 0;
#X connect 11 3 50 0;
#X connect 12 0 2 0;
#X connect 13 0 3 0;
#X connect 14 0 4 0;
#X connect 15 0 5 0;
#X connect 16 0 6 0;
#X connect 17 0 7 0;
#X connect 18 0 8 0;
#X connect 19 0 9 1;
#X connect 20 0 9 1;
#X connect 21 0 9 1;
#X connect 22 0 9 1;
#X connect 23 0 12 1;
#X connect 24 0 12 1;
#X connect 25 0 12 1;
#X connect 26 0 12 1;
#X connect 27 0 13 1;
#X connect 28 0 13 1;
#X connect 29 0 13 1;
#X connect 30 0 13 1;
#X connect 31 0 14 1;
#X connect 32 0 14 1;
#X connect 33 0 14 1;
#X connect 34 0 14 1;
#X connect 35 0 15 1;
#X connect 36 0 15 1;
#X connect 37 0 15 1;
#X connect 38 0 15 1;
#X connect 39 0 16 1;
#X connect 40 0 16 1;
#X connect 41 0 16 1;
#X connect 42 0 16 1;
#X connect 43 0 17 1;
#X connect 44 0 17 1;
#X connect 45 0 17 1;
#X connect 46 0 17 1;
#X connect 47 0 18 1;
#X connect 48 0 18 1;
#X connect 49 0 18 1;
#X connect 50 0 18 1;
#X restore 81 169 pd routes;
#X f 22;
#X floatatom 251 140 2 1 4 1 channel - - 0;
#N canvas 334 364 1302 594 switch 0;
#X obj 40 64 inlet;
#X obj 174 64 inlet;
#X obj 327 63 inlet;
#X obj 461 63 inlet;
#X obj 617 62 inlet;
#X obj 751 62 inlet;
#X obj 904 61 inlet;
#X obj 1038 61 inlet;
#X obj 1175 60 inlet;
#X obj 40 349 oscformat cc1;
#X obj 1155 90 sel 1 2 3 4;
#X obj 546 512 outlet;
#X msg 53 136 set cc1;
#X msg 70 175 set cc9;
#X msg 81 218 set cc17;
#X msg 99 266 set cc25;
#X msg 204 136 set cc2;
#X obj 190 348 oscformat cc2;
#X msg 357 136 set cc3;
#X obj 344 349 oscformat cc3;
#X msg 508 136 set cc4;
#X obj 495 349 oscformat cc4;
#X msg 653 136 set cc5;
#X obj 640 349 oscformat cc5;
#X msg 804 136 set cc6;
#X obj 791 349 oscformat cc6;
#X msg 957 136 set cc7;
#X obj 944 349 oscformat cc7;
#X msg 1108 135 set cc8;
#X obj 1095 349 oscformat cc8;
#X msg 221 175 set cc10;
#X msg 374 175 set cc11;
#X msg 525 175 set cc12;
#X msg 670 175 set cc13;
#X msg 821 175 set cc14;
#X msg 974 175 set cc15;
#X msg 1125 175 set cc16;
#X msg 232 218 set cc18;
#X msg 385 218 set cc19;
#X msg 536 218 set cc20;
#X msg 681 218 set cc21;
#X msg 832 218 set cc22;
#X msg 985 218 set cc23;
#X msg 1136 218 set cc24;
#X msg 250 266 set cc26;
#X msg 403 266 set cc27;
#X msg 554 266 set cc28;
#X msg 699 266 set cc29;
#X msg 850 266 set cc30;
#X msg 1003 266 set cc31;
#X msg 1154 266 set cc32;
#X connect 0 0 9 0;
#X connect 1 0 17 0;
#X connect 2 0 19 0;
#X connect 3 0 21 0;
#X connect 4 0 23 0;
#X connect 5 0 25 0;
#X connect 6 0 27 0;
#X connect 7 0 29 0;
#X connect 8 0 10 0;
#X connect 9 0 11 0;
#X connect 10 0 28 0;
#X connect 10 0 26 0;
#X connect 10 0 24 0;
#X connect 10 0 22 0;
#X connect 10 0 20 0;
#X connect 10 0 18 0;
#X connect 10 0 16 0;
#X connect 10 0 12 0;
#X connect 10 1 36 0;
#X connect 10 1 35 0;
#X connect 10 1 34 0;
#X connect 10 1 33 0;
#X connect 10 1 32 0;
#X connect 10 1 31 0;
#X connect 10 1 30 0;
#X connect 10 1 13 0;
#X connect 10 2 43 0;
#X connect 10 2 42 0;
#X connect 10 2 41 0;
#X connect 10 2 40 0;
#X connect 10 2 39 0;
#X connect 10 2 38 0;
#X connect 10 2 37 0;
#X connect 10 2 14 0;
#X connect 10 3 50 0;
#X connect 10 3 49 0;
#X connect 10 3 48 0;
#X connect 10 3 47 0;
#X connect 10 3 46 0;
#X connect 10 3 45 0;
#X connect 10 3 44 0;
#X connect 10 3 15 0;
#X connect 12 0 9 0;
#X connect 13 0 9 0;
#X connect 14 0 9 0;
#X connect 15 0 9 0;
#X connect 16 0 17 0;
#X connect 17 0 11 0;
#X connect 18 0 19 0;
#X connect 19 0 11 0;
#X connect 20 0 21 0;
#X connect 21 0 11 0;
#X connect 22 0 23 0;
#X connect 23 0 11 0;
#X connect 24 0 25 0;
#X connect 25 0 11 0;
#X connect 26 0 27 0;
#X connect 27 0 11 0;
#X connect 28 0 29 0;
#X connect 29 0 11 0;
#X connect 30 0 17 0;
#X connect 31 0 19 0;
#X connect 32 0 21 0;
#X connect 33 0 23 0;
#X connect 34 0 25 0;
#X connect 35 0 27 0;
#X connect 36 0 29 0;
#X connect 37 0 17 0;
#X connect 38 0 19 0;
#X connect 39 0 21 0;
#X connect 40 0 23 0;
#X connect 41 0 25 0;
#X connect 42 0 27 0;
#X connect 43 0 29 0;
#X connect 44 0 17 0;
#X connect 45 0 19 0;
#X connect 46 0 21 0;
#X connect 47 0 23 0;
#X connect 48 0 25 0;
#X connect 49 0 27 0;
#X connect 50 0 29 0;
#X restore 58 272 pd switch;
#X f 27;
#X obj 150 395 netsend -u -b;
#X msg 150 340 connect \$1 3330;
#X obj 58 307 list prepend send;
#X obj 58 338 list trim;
#N canvas 156 156 450 300 hostip 0;
#X obj 85 123 oscformat hostip1;
#X obj 86 27 inlet;
#X obj 125 219 outlet;
#X obj 120 158 oscformat hostip2;
#X obj 247 121 oscformat hostip3;
#X obj 283 155 oscformat hostip4;
#X obj 87 68 unpack f f f f;
#X connect 0 0 2 0;
#X connect 1 0 6 0;
#X connect 3 0 2 0;
#X connect 4 0 2 0;
#X connect 5 0 2 0;
#X connect 6 0 0 0;
#X connect 6 1 3 0;
#X connect 6 2 4 0;
#X connect 6 3 5 0;
#X restore 268 274 pd hostip;
#X obj 97 121 route connected;
#X obj 97 146 bng 19 500 50 0 empty empty empty 0 -10 0 12 #00ff04 #000000 #000000;
#X msg 339 37 192.168.1.42;
#X msg 165 368 disconnect;
#X obj 192 306 pack s;
#X msg 341 164 192 168 1 211;
#X text 361 187 ^ Second - enter your device local IP here (use spaces instead of dots), f 71;
#X text 353 58 ^ First - enter your Quest local IP here;
#X obj 82 45 netreceive -u -b 5530;
#X obj 251 22 loadbang;
#X msg 251 47 1;
#X connect 0 0 1 0;
#X connect 1 0 2 0;
#X connect 1 0 10 0;
#X connect 3 0 4 8;
#X connect 3 0 2 1;
#X connect 4 0 7 0;
#X connect 6 0 5 0;
#X connect 7 0 8 0;
#X connect 8 0 5 0;
#X connect 9 0 7 0;
#X connect 10 0 11 0;
#X connect 12 0 14 0;
#X connect 13 0 5 0;
#X connect 14 0 6 0;
#X connect 15 0 9 0;
#X connect 18 0 0 0;
#X connect 19 0 20 0;
#X connect 20 0 3 0;
