#N canvas 553 88 432 520 12;
#N canvas 847 42 736 517 scaling 0;
#X obj 103 23 inlet;
#X obj 103 231 outlet;
#X obj 103 54 route y x;
#X obj 103 117 i;
#X msg 103 182 y \$1;
#X obj 152 118 i;
#X msg 152 183 x \$1;
#X obj 103 143 + 48;
#X obj 152 145 + 48;
#X obj 152 90 / 3.9;
#X obj 103 89 / 3.9;
#X connect 0 0 2 0;
#X connect 2 0 10 0;
#X connect 2 1 9 0;
#X connect 3 0 7 0;
#X connect 4 0 1 0;
#X connect 5 0 8 0;
#X connect 6 0 1 0;
#X connect 7 0 4 0;
#X connect 8 0 6 0;
#X connect 9 0 5 0;
#X connect 10 0 3 0;
#X restore 160 151 pd scaling;
#X obj 163 111 hsl 128 15 0 127 0 0 empty empty empty -2 -8 0 10 -262144
-1 -1 0 1;
#X msg 160 128 x \$1;
#N canvas 1075 65 597 774 quantizer_chord_arp 0;
#X obj 46 186 loadbang;
#X obj 131 145 % 12;
#X obj 131 191 i;
#X msg 46 210 0;
#X obj 198 458 + 0;
#X obj 131 458 + 0;
#X obj 131 408 t b f;
#X obj 131 433 f;
#X obj 198 408 t b f;
#X obj 198 433 f;
#X obj 198 533 + 0;
#X obj 131 533 + 0;
#X obj 131 483 t b f;
#X obj 131 508 f;
#X obj 198 483 t b f;
#X obj 198 508 f;
#X obj 131 76 t b f;
#X obj 131 99 f;
#X obj 131 122 + 0;
#X obj 264 458 + 0;
#X obj 264 408 t b f;
#X obj 264 433 f;
#X obj 264 533 + 0;
#X obj 264 483 t b f;
#X obj 264 508 f;
#X obj 113 662 makenote;
#X obj 210 663 makenote;
#X obj 307 663 makenote;
#X obj 113 630 f;
#X obj 210 631 f;
#X obj 307 631 f;
#X text 256 737 poly_out;
#X obj 366 583 * 0.6;
#X obj 131 7 inlet;
#X obj 206 736 outlet;
#X obj 266 15 inlet;
#X obj 366 13 inlet;
#X obj 131 30 route x;
#N canvas 90 327 606 494 chord_seq 0;
#X obj 231 27 inlet;
#X text 274 29 clock;
#X obj 76 444 outlet;
#X obj 185 445 outlet;
#X obj 298 445 outlet;
#X obj 94 29 inlet;
#X obj 386 29 inlet;
#X text 430 27 tempo_in_ms;
#X text 138 30 note;
#N canvas 261 69 450 300 control 0;
#X msg 122 93 1;
#X obj 140 126 ==;
#X obj 140 160 sel 1;
#X obj 96 55 inlet mtr;
#X obj 179 52 inlet tgl;
#X obj 167 209 outlet bng;
#X connect 0 0 1 0;
#X connect 1 0 2 0;
#X connect 2 1 5 0;
#X connect 3 0 0 0;
#X connect 4 0 2 1;
#X restore 128 142 pd control;
#X obj 128 167 t b;
#X msg 195 117 1;
#X msg 231 117 0;
#N canvas 261 69 450 300 control 0;
#X msg 122 93 1;
#X obj 140 126 ==;
#X obj 140 160 sel 1;
#X obj 96 55 inlet mtr;
#X obj 179 52 inlet tgl;
#X obj 167 209 outlet bng;
#X connect 0 0 1 0;
#X connect 1 0 2 0;
#X connect 2 1 5 0;
#X connect 3 0 0 0;
#X connect 4 0 2 1;
#X restore 195 92 pd control;
#X msg 262 67 1;
#X msg 296 71 0;
#X obj 201 350 del 600;
#X obj 266 349 del 600;
#X obj 294 392 del 600;
#X obj 349 322 * 2;
#X obj 43 287 t b;
#X obj 45 351 del 600;
#X obj 388 272 / 2;
#X obj 349 297 switch;
#X obj 296 223 random 61;
#X obj 296 247 moses 40;
#X msg 296 272 1;
#X msg 349 272 2;
#X obj 368 247 f;
#X obj 368 223 del 1;
#X obj 128 193 random 4;
#N canvas 0 50 450 300 up_down 0;
#X obj 118 17 inlet;
#X obj 118 51 - 0;
#X obj 162 84 > 0;
#X obj 118 84 < 0;
#X obj 118 109 sel 1;
#X obj 162 109 sel 1;
#X msg 162 133 1;
#X msg 118 134 0;
#X obj 118 168 tgl 15 0 empty empty empty 17 7 0 10 -262144 -1 -1 0
1;
#X obj 118 191 outlet;
#X connect 0 0 1 0;
#X connect 0 0 1 1;
#X connect 1 0 3 0;
#X connect 1 0 2 0;
#X connect 2 0 5 0;
#X connect 3 0 4 0;
#X connect 4 0 7 0;
#X connect 5 0 6 0;
#X connect 6 0 8 0;
#X connect 7 0 8 0;
#X connect 8 0 9 0;
#X restore 37 113 pd up_down;
#X obj 128 272 sel 0 1 2 3 4 5 6 7;
#X obj 128 219 + 0;
#X msg 37 189 4;
#X obj 135 350 del 600;
#X obj 136 394 del 600;
#X text 461 227 111;
#X text 461 249 122;
#X text 461 272 112;
#X text 461 295 123;
#X text 491 227 111;
#X text 491 249 221;
#X text 491 272 211;
#X text 491 295 321;
#X text 461 201 up;
#X text 491 201 down;
#X obj 37 139 sel 0 1;
#X msg 60 164 0;
#X obj 389 442 outlet;
#X obj 84 194 f;
#X obj 452 443 outlet;
#X obj 128 245 pipe 2;
#X obj 533 28 inlet;
#N canvas 261 69 450 300 control 0;
#X msg 122 93 1;
#X obj 140 126 ==;
#X obj 140 160 sel 1;
#X obj 96 55 inlet mtr;
#X obj 179 52 inlet tgl;
#X obj 167 209 outlet bng;
#X connect 0 0 1 0;
#X connect 1 0 2 0;
#X connect 2 1 5 0;
#X connect 3 0 0 0;
#X connect 4 0 2 1;
#X restore 274 94 pd control;
#X connect 0 0 9 0;
#X connect 5 0 31 0;
#X connect 5 0 13 0;
#X connect 6 0 21 1;
#X connect 6 0 28 1;
#X connect 9 0 10 0;
#X connect 10 0 12 0;
#X connect 10 0 24 0;
#X connect 10 0 29 0;
#X connect 10 0 30 0;
#X connect 10 0 50 0;
#X connect 11 0 9 1;
#X connect 12 0 9 1;
#X connect 13 0 11 0;
#X connect 13 0 15 0;
#X connect 14 0 13 1;
#X connect 15 0 13 1;
#X connect 16 0 3 0;
#X connect 17 0 4 0;
#X connect 18 0 4 0;
#X connect 18 0 20 0;
#X connect 19 0 18 1;
#X connect 19 0 36 1;
#X connect 20 0 14 0;
#X connect 20 0 49 0;
#X connect 20 0 54 0;
#X connect 21 0 20 0;
#X connect 22 0 23 2;
#X connect 23 0 19 0;
#X connect 23 0 17 1;
#X connect 23 0 16 1;
#X connect 23 0 35 1;
#X connect 24 0 25 0;
#X connect 25 0 26 0;
#X connect 25 1 27 0;
#X connect 26 0 23 0;
#X connect 27 0 23 0;
#X connect 28 0 22 0;
#X connect 28 0 23 1;
#X connect 29 0 28 0;
#X connect 30 0 33 0;
#X connect 31 0 47 0;
#X connect 32 0 20 0;
#X connect 32 0 2 0;
#X connect 32 0 3 0;
#X connect 32 0 4 0;
#X connect 32 1 21 0;
#X connect 32 1 2 0;
#X connect 32 1 16 0;
#X connect 32 1 17 0;
#X connect 32 2 21 0;
#X connect 32 2 2 0;
#X connect 32 2 3 0;
#X connect 32 2 17 0;
#X connect 32 3 2 0;
#X connect 32 3 16 0;
#X connect 32 3 18 0;
#X connect 32 4 2 0;
#X connect 32 4 3 0;
#X connect 32 4 4 0;
#X connect 32 4 20 0;
#X connect 32 5 21 0;
#X connect 32 5 4 0;
#X connect 32 5 16 0;
#X connect 32 5 35 0;
#X connect 32 6 21 0;
#X connect 32 6 4 0;
#X connect 32 6 3 0;
#X connect 32 6 35 0;
#X connect 32 7 4 0;
#X connect 32 7 16 0;
#X connect 32 7 36 0;
#X connect 33 0 51 0;
#X connect 33 0 52 0;
#X connect 34 0 50 1;
#X connect 35 0 2 0;
#X connect 36 0 2 0;
#X connect 36 0 20 0;
#X connect 47 0 34 0;
#X connect 47 1 48 0;
#X connect 48 0 50 1;
#X connect 50 0 33 1;
#X connect 52 0 32 0;
#X connect 53 0 54 1;
#X connect 54 0 11 0;
#X restore 155 597 pd chord_seq;
#N canvas 0 50 382 287 w8 0;
#N canvas 261 69 450 300 control 0;
#X msg 122 93 1;
#X obj 140 126 ==;
#X obj 140 160 sel 1;
#X obj 96 55 inlet mtr;
#X obj 179 52 inlet tgl;
#X obj 167 209 outlet bng;
#X connect 0 0 1 0;
#X connect 1 0 2 0;
#X connect 2 1 5 0;
#X connect 3 0 0 0;
#X connect 4 0 2 1;
#X restore 71 104 pd control;
#X obj 71 129 t b;
#X msg 138 72 1;
#X msg 174 72 0;
#X obj 89 45 inlet;
#X obj 71 205 outlet;
#X obj 71 156 f;
#X obj 138 45 inlet;
#X obj 178 219 outlet;
#X obj 178 192 !=;
#X connect 0 0 1 0;
#X connect 1 0 3 0;
#X connect 1 0 6 0;
#X connect 2 0 0 1;
#X connect 3 0 0 1;
#X connect 4 0 6 1;
#X connect 4 0 0 0;
#X connect 4 0 9 1;
#X connect 6 0 5 0;
#X connect 6 0 9 0;
#X connect 7 0 2 0;
#X connect 7 0 6 0;
#X connect 9 0 8 0;
#X restore 131 558 pd w8;
#N canvas 0 50 382 287 w8 0;
#N canvas 261 69 450 300 control 0;
#X msg 122 93 1;
#X obj 140 126 ==;
#X obj 140 160 sel 1;
#X obj 96 55 inlet mtr;
#X obj 179 52 inlet tgl;
#X obj 167 209 outlet bng;
#X connect 0 0 1 0;
#X connect 1 0 2 0;
#X connect 2 1 5 0;
#X connect 3 0 0 0;
#X connect 4 0 2 1;
#X restore 71 104 pd control;
#X obj 71 129 t b;
#X msg 138 72 1;
#X msg 174 72 0;
#X obj 89 45 inlet;
#X obj 71 205 outlet;
#X obj 71 156 f;
#X obj 138 45 inlet;
#X connect 0 0 1 0;
#X connect 1 0 3 0;
#X connect 1 0 6 0;
#X connect 2 0 0 1;
#X connect 3 0 0 1;
#X connect 4 0 6 1;
#X connect 4 0 0 0;
#X connect 6 0 5 0;
#X connect 7 0 2 0;
#X connect 7 0 6 0;
#X restore 198 558 pd w8;
#N canvas 0 50 382 287 w8 0;
#N canvas 261 69 450 300 control 0;
#X msg 122 93 1;
#X obj 140 126 ==;
#X obj 140 160 sel 1;
#X obj 96 55 inlet mtr;
#X obj 179 52 inlet tgl;
#X obj 167 209 outlet bng;
#X connect 0 0 1 0;
#X connect 1 0 2 0;
#X connect 2 1 5 0;
#X connect 3 0 0 0;
#X connect 4 0 2 1;
#X restore 71 104 pd control;
#X obj 71 129 t b;
#X msg 138 72 1;
#X msg 174 72 0;
#X obj 89 45 inlet;
#X obj 71 205 outlet;
#X obj 71 156 f;
#X obj 138 45 inlet;
#X connect 0 0 1 0;
#X connect 1 0 3 0;
#X connect 1 0 6 0;
#X connect 2 0 0 1;
#X connect 3 0 0 1;
#X connect 4 0 6 1;
#X connect 4 0 0 0;
#X connect 6 0 5 0;
#X connect 7 0 2 0;
#X connect 7 0 6 0;
#X restore 264 558 pd w8;
#X text 306 14 clock;
#X text 406 14 tempo_in_ms;
#X obj 496 15 inlet;
#X text 541 15 key;
#X obj 198 86 * -1;
#X obj 273 157 t b f;
#X obj 273 209 f;
#X obj 273 182 del 1;
#X obj 273 234 - 0;
#X obj 176 381 unpack 0 0 0;
#X msg 111 333 2 5 9;
#X msg 243 333 5 9 12;
#X obj 46 234 tgl 15 0 empty minor minor 17 7 0 10 -261682 -1 -1 0
1;
#X msg 49 332 0 4 7;
#X msg 57 306 0 3 7;
#N canvas 0 50 450 300 sel 0;
#X obj 103 44 inlet;
#X obj 255 44 inlet;
#X obj 154 209 outlet;
#N canvas 261 69 450 300 control 0;
#X msg 122 93 1;
#X obj 140 126 ==;
#X obj 140 160 sel 1;
#X obj 96 55 inlet mtr;
#X obj 179 52 inlet tgl;
#X obj 167 209 outlet bng;
#X connect 0 0 1 0;
#X connect 1 0 2 0;
#X connect 2 1 5 0;
#X connect 3 0 0 0;
#X connect 4 0 2 1;
#X restore 143 111 pd control;
#X obj 143 135 t b;
#N canvas 261 69 450 300 control 0;
#X msg 122 93 1;
#X obj 140 126 ==;
#X obj 140 160 sel 1;
#X obj 96 55 inlet mtr;
#X obj 179 52 inlet tgl;
#X obj 167 209 outlet bng;
#X connect 0 0 1 0;
#X connect 1 0 2 0;
#X connect 2 1 5 0;
#X connect 3 0 0 0;
#X connect 4 0 2 1;
#X restore 189 135 pd control;
#X obj 189 159 t b;
#X obj 210 87 == 0;
#X obj 207 209 outlet;
#X connect 0 0 3 0;
#X connect 0 0 5 0;
#X connect 1 0 7 0;
#X connect 1 0 5 1;
#X connect 3 0 4 0;
#X connect 4 0 2 0;
#X connect 5 0 6 0;
#X connect 6 0 8 0;
#X connect 7 0 3 1;
#X restore 49 281 pd sel;
#N canvas 0 50 450 300 sel 0;
#X obj 103 44 inlet;
#X obj 255 44 inlet;
#X obj 154 209 outlet;
#N canvas 261 69 450 300 control 0;
#X msg 122 93 1;
#X obj 140 126 ==;
#X obj 140 160 sel 1;
#X obj 96 55 inlet mtr;
#X obj 179 52 inlet tgl;
#X obj 167 209 outlet bng;
#X connect 0 0 1 0;
#X connect 1 0 2 0;
#X connect 2 1 5 0;
#X connect 3 0 0 0;
#X connect 4 0 2 1;
#X restore 143 111 pd control;
#X obj 143 135 t b;
#N canvas 261 69 450 300 control 0;
#X msg 122 93 1;
#X obj 140 126 ==;
#X obj 140 160 sel 1;
#X obj 96 55 inlet mtr;
#X obj 179 52 inlet tgl;
#X obj 167 209 outlet bng;
#X connect 0 0 1 0;
#X connect 1 0 2 0;
#X connect 2 1 5 0;
#X connect 3 0 0 0;
#X connect 4 0 2 1;
#X restore 189 135 pd control;
#X obj 189 159 t b;
#X obj 210 87 == 0;
#X obj 207 209 outlet;
#X connect 0 0 3 0;
#X connect 0 0 5 0;
#X connect 1 0 7 0;
#X connect 1 0 5 1;
#X connect 3 0 4 0;
#X connect 4 0 2 0;
#X connect 5 0 6 0;
#X connect 6 0 8 0;
#X connect 7 0 3 1;
#X restore 111 280 pd sel;
#N canvas 0 50 450 300 sel 0;
#X obj 103 44 inlet;
#X obj 255 44 inlet;
#X obj 154 209 outlet;
#N canvas 261 69 450 300 control 0;
#X msg 122 93 1;
#X obj 140 126 ==;
#X obj 140 160 sel 1;
#X obj 96 55 inlet mtr;
#X obj 179 52 inlet tgl;
#X obj 167 209 outlet bng;
#X connect 0 0 1 0;
#X connect 1 0 2 0;
#X connect 2 1 5 0;
#X connect 3 0 0 0;
#X connect 4 0 2 1;
#X restore 143 111 pd control;
#X obj 143 135 t b;
#N canvas 261 69 450 300 control 0;
#X msg 122 93 1;
#X obj 140 126 ==;
#X obj 140 160 sel 1;
#X obj 96 55 inlet mtr;
#X obj 179 52 inlet tgl;
#X obj 167 209 outlet bng;
#X connect 0 0 1 0;
#X connect 1 0 2 0;
#X connect 2 1 5 0;
#X connect 3 0 0 0;
#X connect 4 0 2 1;
#X restore 189 135 pd control;
#X obj 189 159 t b;
#X obj 210 87 == 0;
#X obj 207 209 outlet;
#X connect 0 0 3 0;
#X connect 0 0 5 0;
#X connect 1 0 7 0;
#X connect 1 0 5 1;
#X connect 3 0 4 0;
#X connect 4 0 2 0;
#X connect 5 0 6 0;
#X connect 6 0 8 0;
#X connect 7 0 3 1;
#X restore 176 280 pd sel;
#N canvas 0 50 450 300 sel 0;
#X obj 103 44 inlet;
#X obj 255 44 inlet;
#X obj 154 209 outlet;
#N canvas 261 69 450 300 control 0;
#X msg 122 93 1;
#X obj 140 126 ==;
#X obj 140 160 sel 1;
#X obj 96 55 inlet mtr;
#X obj 179 52 inlet tgl;
#X obj 167 209 outlet bng;
#X connect 0 0 1 0;
#X connect 1 0 2 0;
#X connect 2 1 5 0;
#X connect 3 0 0 0;
#X connect 4 0 2 1;
#X restore 143 111 pd control;
#X obj 143 135 t b;
#N canvas 261 69 450 300 control 0;
#X msg 122 93 1;
#X obj 140 126 ==;
#X obj 140 160 sel 1;
#X obj 96 55 inlet mtr;
#X obj 179 52 inlet tgl;
#X obj 167 209 outlet bng;
#X connect 0 0 1 0;
#X connect 1 0 2 0;
#X connect 2 1 5 0;
#X connect 3 0 0 0;
#X connect 4 0 2 1;
#X restore 189 135 pd control;
#X obj 189 159 t b;
#X obj 210 87 == 0;
#X obj 207 209 outlet;
#X connect 0 0 3 0;
#X connect 0 0 5 0;
#X connect 1 0 7 0;
#X connect 1 0 5 1;
#X connect 3 0 4 0;
#X connect 4 0 2 0;
#X connect 5 0 6 0;
#X connect 6 0 8 0;
#X connect 7 0 3 1;
#X restore 243 280 pd sel;
#N canvas 0 50 450 300 sel 0;
#X obj 103 44 inlet;
#X obj 255 44 inlet;
#X obj 154 209 outlet;
#N canvas 261 69 450 300 control 0;
#X msg 122 93 1;
#X obj 140 126 ==;
#X obj 140 160 sel 1;
#X obj 96 55 inlet mtr;
#X obj 179 52 inlet tgl;
#X obj 167 209 outlet bng;
#X connect 0 0 1 0;
#X connect 1 0 2 0;
#X connect 2 1 5 0;
#X connect 3 0 0 0;
#X connect 4 0 2 1;
#X restore 143 111 pd control;
#X obj 143 135 t b;
#N canvas 261 69 450 300 control 0;
#X msg 122 93 1;
#X obj 140 126 ==;
#X obj 140 160 sel 1;
#X obj 96 55 inlet mtr;
#X obj 179 52 inlet tgl;
#X obj 167 209 outlet bng;
#X connect 0 0 1 0;
#X connect 1 0 2 0;
#X connect 2 1 5 0;
#X connect 3 0 0 0;
#X connect 4 0 2 1;
#X restore 189 135 pd control;
#X obj 189 159 t b;
#X obj 210 87 == 0;
#X obj 207 209 outlet;
#X connect 0 0 3 0;
#X connect 0 0 5 0;
#X connect 1 0 7 0;
#X connect 1 0 5 1;
#X connect 3 0 4 0;
#X connect 4 0 2 0;
#X connect 5 0 6 0;
#X connect 6 0 8 0;
#X connect 7 0 3 1;
#X restore 312 279 pd sel;
#N canvas 0 50 450 300 sel 0;
#X obj 103 44 inlet;
#X obj 255 44 inlet;
#X obj 154 209 outlet;
#N canvas 261 69 450 300 control 0;
#X msg 122 93 1;
#X obj 140 126 ==;
#X obj 140 160 sel 1;
#X obj 96 55 inlet mtr;
#X obj 179 52 inlet tgl;
#X obj 167 209 outlet bng;
#X connect 0 0 1 0;
#X connect 1 0 2 0;
#X connect 2 1 5 0;
#X connect 3 0 0 0;
#X connect 4 0 2 1;
#X restore 143 111 pd control;
#X obj 143 135 t b;
#N canvas 261 69 450 300 control 0;
#X msg 122 93 1;
#X obj 140 126 ==;
#X obj 140 160 sel 1;
#X obj 96 55 inlet mtr;
#X obj 179 52 inlet tgl;
#X obj 167 209 outlet bng;
#X connect 0 0 1 0;
#X connect 1 0 2 0;
#X connect 2 1 5 0;
#X connect 3 0 0 0;
#X connect 4 0 2 1;
#X restore 189 135 pd control;
#X obj 189 159 t b;
#X obj 210 87 == 0;
#X obj 207 209 outlet;
#X connect 0 0 3 0;
#X connect 0 0 5 0;
#X connect 1 0 7 0;
#X connect 1 0 5 1;
#X connect 3 0 4 0;
#X connect 4 0 2 0;
#X connect 5 0 6 0;
#X connect 6 0 8 0;
#X connect 7 0 3 1;
#X restore 386 279 pd sel;
#N canvas 0 50 450 300 sel 0;
#X obj 103 44 inlet;
#X obj 255 44 inlet;
#X obj 154 209 outlet;
#N canvas 261 69 450 300 control 0;
#X msg 122 93 1;
#X obj 140 126 ==;
#X obj 140 160 sel 1;
#X obj 96 55 inlet mtr;
#X obj 179 52 inlet tgl;
#X obj 167 209 outlet bng;
#X connect 0 0 1 0;
#X connect 1 0 2 0;
#X connect 2 1 5 0;
#X connect 3 0 0 0;
#X connect 4 0 2 1;
#X restore 143 111 pd control;
#X obj 143 135 t b;
#N canvas 261 69 450 300 control 0;
#X msg 122 93 1;
#X obj 140 126 ==;
#X obj 140 160 sel 1;
#X obj 96 55 inlet mtr;
#X obj 179 52 inlet tgl;
#X obj 167 209 outlet bng;
#X connect 0 0 1 0;
#X connect 1 0 2 0;
#X connect 2 1 5 0;
#X connect 3 0 0 0;
#X connect 4 0 2 1;
#X restore 189 135 pd control;
#X obj 189 159 t b;
#X obj 210 87 == 0;
#X obj 207 209 outlet;
#X connect 0 0 3 0;
#X connect 0 0 5 0;
#X connect 1 0 7 0;
#X connect 1 0 5 1;
#X connect 3 0 4 0;
#X connect 4 0 2 0;
#X connect 5 0 6 0;
#X connect 6 0 8 0;
#X connect 7 0 3 1;
#X restore 457 279 pd sel;
#X msg 176 333 4 7 11;
#X msg 121 307 2 5 8;
#X msg 186 307 3 7 10;
#X msg 253 307 5 8 12;
#X msg 322 307 7 10 14;
#X msg 396 307 8 12 15;
#X msg 467 307 10 14 17;
#X obj 131 168 / 1.7;
#X obj 131 53 change;
#X obj 369 445 random 31;
#X obj 407 472 random 31;
#X obj 445 502 random 31;
#N canvas 0 50 450 300 maxVl 0;
#X obj 79 19 inlet;
#X obj 362 22 inlet;
#X obj 192 264 outlet;
#X obj 101 53 sel 0 1 2 3 4 5 6 7;
#X obj 208 202 * 1;
#X msg 188 100 1;
#X msg 114 99 0.6;
#X msg 150 98 0.8;
#X connect 0 0 3 0;
#X connect 1 0 4 1;
#X connect 3 0 6 0;
#X connect 3 1 7 0;
#X connect 3 2 7 0;
#X connect 3 3 5 0;
#X connect 3 4 6 0;
#X connect 3 5 7 0;
#X connect 3 6 7 0;
#X connect 3 7 5 0;
#X connect 4 0 2 0;
#X connect 5 0 4 0;
#X connect 6 0 4 0;
#X connect 7 0 4 0;
#X restore 140 630 pd maxVl;
#N canvas 0 50 450 300 maxVl 0;
#X obj 79 19 inlet;
#X obj 362 22 inlet;
#X obj 192 264 outlet;
#X obj 101 53 sel 0 1 2 3 4 5 6 7;
#X obj 208 202 * 1;
#X msg 188 100 1;
#X msg 114 99 0.6;
#X msg 150 98 0.8;
#X connect 0 0 3 0;
#X connect 1 0 4 1;
#X connect 3 0 6 0;
#X connect 3 1 7 0;
#X connect 3 2 7 0;
#X connect 3 3 5 0;
#X connect 3 4 6 0;
#X connect 3 5 7 0;
#X connect 3 6 7 0;
#X connect 3 7 5 0;
#X connect 4 0 2 0;
#X connect 5 0 4 0;
#X connect 6 0 4 0;
#X connect 7 0 4 0;
#X restore 237 631 pd maxVl;
#N canvas 0 50 450 300 maxVl 0;
#X obj 79 19 inlet;
#X obj 362 22 inlet;
#X obj 192 264 outlet;
#X obj 101 53 sel 0 1 2 3 4 5 6 7;
#X obj 208 202 * 1;
#X msg 188 100 1;
#X msg 114 99 0.6;
#X msg 150 98 0.8;
#X connect 0 0 3 0;
#X connect 1 0 4 1;
#X connect 3 0 6 0;
#X connect 3 1 7 0;
#X connect 3 2 7 0;
#X connect 3 3 5 0;
#X connect 3 4 6 0;
#X connect 3 5 7 0;
#X connect 3 6 7 0;
#X connect 3 7 5 0;
#X connect 4 0 2 0;
#X connect 5 0 4 0;
#X connect 6 0 4 0;
#X connect 7 0 4 0;
#X restore 334 631 pd maxVl;
#X msg 312 333 7 11 14;
#X msg 387 333 9 12 16;
#X msg 457 333 11 14 17;
#X obj 131 237 sel 0 1 2 3 4 5 6;
#X obj 131 214 pipe 1;
#N canvas 0 50 450 355 mode 0;
#X obj 87 24 inlet;
#X obj 147 23 inlet;
#X obj 91 290 outlet;
#X obj 91 207 pack 0 0;
#X obj 87 51 stripnote;
#X obj 91 79 change;
#X obj 142 131 f;
#X msg 142 155 \$1 0;
#X obj 142 106 t b;
#X obj 91 177 pipe 1;
#X obj 165 54 r disable;
#X obj 52 245 switch;
#X obj 27 207 pack 0 0;
#X obj 243 54 r lega;
#X obj 243 80 + 1;
#X obj 200 81 sel 0;
#X connect 0 0 4 0;
#X connect 0 0 12 0;
#X connect 1 0 4 1;
#X connect 1 0 12 1;
#X connect 3 0 11 2;
#X connect 4 0 5 0;
#X connect 4 0 6 1;
#X connect 4 1 3 1;
#X connect 5 0 8 0;
#X connect 5 0 9 0;
#X connect 6 0 7 0;
#X connect 7 0 2 0;
#X connect 8 0 6 0;
#X connect 9 0 3 0;
#X connect 10 0 8 0;
#X connect 11 0 2 0;
#X connect 12 0 11 1;
#X connect 13 0 14 0;
#X connect 13 0 15 0;
#X connect 14 0 11 0;
#X connect 15 0 8 0;
#X restore 285 695 pd mode;
#N canvas 0 50 450 355 mode 0;
#X obj 87 24 inlet;
#X obj 147 23 inlet;
#X obj 91 290 outlet;
#X obj 91 207 pack 0 0;
#X obj 87 51 stripnote;
#X obj 91 79 change;
#X obj 142 131 f;
#X msg 142 155 \$1 0;
#X obj 142 106 t b;
#X obj 91 177 pipe 1;
#X obj 165 54 r disable;
#X obj 52 245 switch;
#X obj 27 207 pack 0 0;
#X obj 243 54 r lega;
#X obj 243 80 + 1;
#X obj 200 81 sel 0;
#X connect 0 0 4 0;
#X connect 0 0 12 0;
#X connect 1 0 4 1;
#X connect 1 0 12 1;
#X connect 3 0 11 2;
#X connect 4 0 5 0;
#X connect 4 0 6 1;
#X connect 4 1 3 1;
#X connect 5 0 8 0;
#X connect 5 0 9 0;
#X connect 6 0 7 0;
#X connect 7 0 2 0;
#X connect 8 0 6 0;
#X connect 9 0 3 0;
#X connect 10 0 8 0;
#X connect 11 0 2 0;
#X connect 12 0 11 1;
#X connect 13 0 14 0;
#X connect 13 0 15 0;
#X connect 14 0 11 0;
#X connect 15 0 8 0;
#X restore 219 695 pd mode;
#N canvas 0 50 450 355 mode 0;
#X obj 87 24 inlet;
#X obj 147 23 inlet;
#X obj 91 290 outlet;
#X obj 91 207 pack 0 0;
#X obj 87 51 stripnote;
#X obj 91 79 change;
#X obj 142 131 f;
#X msg 142 155 \$1 0;
#X obj 142 106 t b;
#X obj 91 177 pipe 1;
#X obj 165 54 r disable;
#X obj 52 245 switch;
#X obj 27 207 pack 0 0;
#X obj 243 54 r lega;
#X obj 243 80 + 1;
#X obj 200 81 sel 0;
#X connect 0 0 4 0;
#X connect 0 0 12 0;
#X connect 1 0 4 1;
#X connect 1 0 12 1;
#X connect 3 0 11 2;
#X connect 4 0 5 0;
#X connect 4 0 6 1;
#X connect 4 1 3 1;
#X connect 5 0 8 0;
#X connect 5 0 9 0;
#X connect 6 0 7 0;
#X connect 7 0 2 0;
#X connect 8 0 6 0;
#X connect 9 0 3 0;
#X connect 10 0 8 0;
#X connect 11 0 2 0;
#X connect 12 0 11 1;
#X connect 13 0 14 0;
#X connect 13 0 15 0;
#X connect 14 0 11 0;
#X connect 15 0 8 0;
#X restore 147 695 pd mode;
#X obj 369 470 + 60;
#X obj 407 497 + 60;
#X obj 445 527 + 60;
#X text 179 10 pitch;
#X connect 0 0 3 0;
#X connect 1 0 47 0;
#X connect 1 0 71 0;
#X connect 2 0 83 0;
#X connect 3 0 54 0;
#X connect 4 0 14 0;
#X connect 5 0 12 0;
#X connect 6 0 7 0;
#X connect 6 0 73 0;
#X connect 6 1 5 1;
#X connect 7 0 5 0;
#X connect 8 0 9 0;
#X connect 8 0 74 0;
#X connect 8 1 4 1;
#X connect 9 0 4 0;
#X connect 10 0 40 0;
#X connect 11 0 38 0;
#X connect 11 0 39 0;
#X connect 12 0 13 0;
#X connect 12 1 11 1;
#X connect 13 0 11 0;
#X connect 14 0 15 0;
#X connect 14 1 10 1;
#X connect 15 0 10 0;
#X connect 16 0 17 0;
#X connect 16 1 18 1;
#X connect 17 0 18 0;
#X connect 18 0 1 0;
#X connect 18 0 48 1;
#X connect 19 0 23 0;
#X connect 20 0 21 0;
#X connect 20 0 75 0;
#X connect 20 1 19 1;
#X connect 21 0 19 0;
#X connect 22 0 41 0;
#X connect 23 0 24 0;
#X connect 23 1 22 1;
#X connect 24 0 22 0;
#X connect 25 0 86 0;
#X connect 25 1 86 1;
#X connect 26 0 85 0;
#X connect 26 1 85 1;
#X connect 27 0 84 0;
#X connect 27 1 84 1;
#X connect 28 0 25 0;
#X connect 29 0 26 0;
#X connect 30 0 27 0;
#X connect 32 0 27 2;
#X connect 32 0 26 2;
#X connect 32 0 25 2;
#X connect 33 0 37 0;
#X connect 35 0 38 1;
#X connect 36 0 32 0;
#X connect 36 0 38 2;
#X connect 37 0 72 0;
#X connect 38 0 28 0;
#X connect 38 1 29 0;
#X connect 38 2 30 0;
#X connect 38 3 41 1;
#X connect 38 3 40 1;
#X connect 38 3 39 1;
#X connect 38 4 76 0;
#X connect 38 4 77 0;
#X connect 38 4 78 0;
#X connect 39 0 28 1;
#X connect 39 1 38 3;
#X connect 40 0 29 1;
#X connect 41 0 30 1;
#X connect 44 0 46 0;
#X connect 44 0 13 1;
#X connect 44 0 15 1;
#X connect 44 0 24 1;
#X connect 46 0 17 1;
#X connect 47 0 49 0;
#X connect 47 1 50 1;
#X connect 48 0 50 0;
#X connect 49 0 48 0;
#X connect 50 0 7 1;
#X connect 50 0 9 1;
#X connect 50 0 21 1;
#X connect 51 0 6 0;
#X connect 51 1 8 0;
#X connect 51 2 20 0;
#X connect 52 0 51 0;
#X connect 53 0 51 0;
#X connect 54 0 57 1;
#X connect 54 0 58 1;
#X connect 54 0 59 1;
#X connect 54 0 60 1;
#X connect 54 0 61 1;
#X connect 54 0 62 1;
#X connect 54 0 63 1;
#X connect 55 0 51 0;
#X connect 56 0 51 0;
#X connect 57 0 55 0;
#X connect 57 1 56 0;
#X connect 58 0 52 0;
#X connect 58 1 65 0;
#X connect 59 0 64 0;
#X connect 59 1 66 0;
#X connect 60 0 53 0;
#X connect 60 1 67 0;
#X connect 61 0 79 0;
#X connect 61 1 68 0;
#X connect 62 0 80 0;
#X connect 62 1 69 0;
#X connect 63 0 81 0;
#X connect 63 1 70 0;
#X connect 64 0 51 0;
#X connect 65 0 51 0;
#X connect 66 0 51 0;
#X connect 67 0 51 0;
#X connect 68 0 51 0;
#X connect 69 0 51 0;
#X connect 70 0 51 0;
#X connect 71 0 2 0;
#X connect 72 0 16 0;
#X connect 73 0 87 0;
#X connect 74 0 88 0;
#X connect 75 0 89 0;
#X connect 76 0 25 1;
#X connect 77 0 26 1;
#X connect 78 0 27 1;
#X connect 79 0 51 0;
#X connect 80 0 51 0;
#X connect 81 0 51 0;
#X connect 82 0 57 0;
#X connect 82 1 58 0;
#X connect 82 2 59 0;
#X connect 82 3 60 0;
#X connect 82 4 61 0;
#X connect 82 5 62 0;
#X connect 82 6 63 0;
#X connect 83 0 82 0;
#X connect 84 0 34 0;
#X connect 85 0 34 0;
#X connect 86 0 34 0;
#X connect 87 0 76 1;
#X connect 88 0 77 1;
#X connect 89 0 78 1;
#X restore 160 253 pd quantizer_chord_arp;
#N canvas 0 50 450 530 tapV3 0;
#X obj 106 114 bng 15 250 50 0 empty empty tap! 0 -6 0 10 -204786 -258113
-1;
#X obj 202 23 sel 1;
#X obj 202 5 tgl 15 0 empty empty empty 17 7 0 10 -262144 -1 -1 0 1
;
#X obj 202 70 timer;
#X obj 202 46 t b b;
#X obj 202 142 pow -1;
#X obj 202 118 / 1000;
#X obj 202 166 * 60;
#X obj 202 94 i;
#X obj 252 70 timer;
#X obj 252 46 t b b;
#X obj 252 142 pow -1;
#X obj 252 118 / 1000;
#X obj 252 166 * 60;
#X obj 252 94 i;
#X obj 252 217 +;
#X floatatom 128 109 4 0 0 1 BPM - -;
#X obj 252 191 t b f;
#X obj 191 340 metro;
#X obj 191 267 expr 60000/$f1;
#X obj 191 292 change;
#X msg 191 316 1;
#X obj 299 267 / 60;
#X floatatom 299 293 5 0 0 1 Hz - -;
#X obj 106 21 inlet;
#X obj 127 474 outlet;
#X obj 299 474 outlet;
#X obj 252 241 i;
#X obj 181 474 outlet;
#X obj 33 44 loadbang;
#X obj 235 474 outlet;
#X obj 191 366 tgl 15 0 empty empty empty 17 7 0 10 -262144 -1 -1 0
1;
#X obj 190 384 sel 0 1;
#X obj 223 428 del 500;
#X obj 259 368 / 2;
#X obj 223 316 / 2;
#X msg 33 68 75;
#X connect 0 0 2 0;
#X connect 1 0 4 0;
#X connect 1 1 10 0;
#X connect 2 0 1 0;
#X connect 3 0 8 0;
#X connect 4 0 3 0;
#X connect 4 1 3 1;
#X connect 5 0 7 0;
#X connect 6 0 5 0;
#X connect 7 0 15 0;
#X connect 8 0 6 0;
#X connect 9 0 14 0;
#X connect 10 0 9 0;
#X connect 10 1 9 1;
#X connect 11 0 13 0;
#X connect 12 0 11 0;
#X connect 13 0 17 0;
#X connect 14 0 12 0;
#X connect 15 0 27 0;
#X connect 16 0 22 0;
#X connect 16 0 19 0;
#X connect 17 0 15 0;
#X connect 17 1 15 1;
#X connect 18 0 31 0;
#X connect 19 0 20 0;
#X connect 20 0 21 0;
#X connect 20 0 35 0;
#X connect 21 0 18 0;
#X connect 22 0 23 0;
#X connect 24 0 0 0;
#X connect 27 0 16 0;
#X connect 29 0 36 0;
#X connect 31 0 32 0;
#X connect 32 0 25 0;
#X connect 32 0 33 0;
#X connect 32 1 33 0;
#X connect 32 1 28 0;
#X connect 33 0 30 0;
#X connect 34 0 33 1;
#X connect 35 0 18 1;
#X connect 35 0 34 0;
#X connect 35 0 26 0;
#X connect 36 0 16 0;
#X coords 0 -1 1 1 85 36 2 100 100;
#X restore 210 207 pd tapV3;
#X obj 159 438 out~;
#N canvas 0 50 450 300 tremolo 0;
#X obj 92 21 inlet~;
#X obj 92 246 outlet~;
#X obj 285 20 inlet~;
#X obj 284 245 outlet~;
#X obj 113 126 +~ 1;
#X obj 93 187 *~;
#X obj 305 128 +~ 1;
#X obj 285 189 *~;
#X obj 113 94 osc~ 7;
#X obj 305 96 osc~ 11;
#X obj 233 116 *~ 0.6;
#X obj 304 161 /~ 5;
#X obj 41 114 *~ 0.6;
#X obj 112 159 /~ 5;
#X connect 0 0 5 0;
#X connect 0 0 12 0;
#X connect 2 0 7 0;
#X connect 2 0 10 0;
#X connect 4 0 13 0;
#X connect 5 0 1 0;
#X connect 6 0 11 0;
#X connect 7 0 3 0;
#X connect 8 0 4 0;
#X connect 9 0 6 0;
#X connect 10 0 3 0;
#X connect 11 0 7 1;
#X connect 12 0 1 0;
#X connect 13 0 5 1;
#X restore 159 353 pd tremolo;
#N canvas 602 116 737 478 MDChorus2 0;
#X obj 19 27 inlet~;
#X obj 81 28 inlet~;
#X obj 22 441 outlet~;
#X obj 85 442 outlet~;
#X obj 21 399 *~;
#X obj 84 400 *~;
#X obj 51 400 *~;
#X obj 114 401 *~;
#X obj 477 373 hsl 128 15 0 127 0 0 empty empty mix -2 -8 0 10 -262144
-1 -1 5000 1;
#X floatatom 525 417 5 0 0 0 - - -;
#X obj 473 416 * -1;
#X obj 471 440 + 1;
#X obj 112 58 delwrite~ chrstR 1000;
#X obj 97 84 delwrite~ chrstL 1000;
#X obj 402 147 cos~;
#X obj 402 173 +~ 1;
#X obj 402 200 *~ 0.5;
#X obj 402 277 *~;
#X obj 662 88 vsl 15 128 0 127 0 0 empty empty depth 0 -9 0 10 -262144
-1 -1 7000 1;
#X obj 619 225 / 4.23333;
#X obj 619 245 + 20;
#X obj 402 327 vd~ chrstR;
#X obj 403 87 phasor~ 2;
#X obj 368 17 hsl 128 15 0 127 0 0 empty empty speed -2 -8 0 10 -262144
-1 -1 1600 1;
#X obj 501 146 cos~;
#X obj 501 172 +~ 1;
#X obj 501 199 *~ 0.5;
#X obj 501 276 *~;
#X obj 501 326 vd~ chrstR;
#X obj 603 147 cos~;
#X obj 603 173 +~ 1;
#X obj 603 200 *~ 0.5;
#X obj 603 277 *~;
#X obj 603 327 vd~ chrstR;
#X obj 480 121 +~ 0.33;
#X obj 585 122 +~ 0.66;
#X obj 114 185 *~ -1;
#X obj 212 185 *~ -1;
#X obj 311 185 *~ -1;
#X obj 112 209 +~ 1;
#X obj 112 236 *~ 0.5;
#X obj 111 269 *~;
#X obj 211 208 +~ 1;
#X obj 211 235 *~ 0.5;
#X obj 210 268 *~;
#X obj 313 209 +~ 1;
#X obj 313 236 *~ 0.5;
#X obj 312 269 *~;
#X obj 112 329 vd~ chrstL;
#X obj 212 329 vd~ chrstL;
#X obj 313 327 vd~ chrstL;
#X floatatom 363 65 5 0 0 0 - - -;
#X floatatom 660 275 5 0 0 0 - - -;
#X obj 475 394 / 127;
#X obj 402 357 *~ 0.5;
#X obj 112 359 *~ 0.5;
#N canvas 0 50 450 300 math 0;
#X obj 125 70 / 127;
#X obj 125 91 t f f;
#X obj 125 115 *;
#X obj 125 136 * 10;
#X obj 125 158 + 0.01;
#X obj 125 27 inlet;
#X obj 134 253 outlet;
#X connect 0 0 1 0;
#X connect 1 0 2 0;
#X connect 1 1 2 1;
#X connect 2 0 3 0;
#X connect 3 0 4 0;
#X connect 4 0 6 0;
#X connect 5 0 0 0;
#X restore 365 38 pd math;
#X obj 236 120 sel 1;
#X obj 236 91 tgl 15 0 empty empty mono 17 7 0 10 -262144 -1 -1 0 1
;
#X msg 235 143 1;
#X msg 264 144 -1;
#X obj 402 301 +~ 1;
#X obj 500 301 +~ 1;
#X obj 602 303 +~ 1;
#X obj 313 299 +~ 1;
#X obj 211 298 +~ 1;
#X obj 111 298 +~ 1;
#X obj 403 63 sig~;
#X obj 413 243 sig~;
#X obj 240 9 loadbang;
#X obj 248 31 bng 15 250 50 0 empty empty default 17 7 0 10 -262144
-1 -1;
#X msg 248 64 0;
#X obj 21 420 +~;
#X obj 85 421 +~;
#X msg 305 48 16;
#X msg 310 81 70;
#X msg 325 119 50;
#X connect 0 0 4 0;
#X connect 0 0 13 0;
#X connect 1 0 5 0;
#X connect 1 0 12 0;
#X connect 4 0 72 0;
#X connect 5 0 73 0;
#X connect 6 0 72 1;
#X connect 7 0 73 1;
#X connect 8 0 53 0;
#X connect 10 0 11 0;
#X connect 11 0 5 1;
#X connect 11 0 4 1;
#X connect 14 0 15 0;
#X connect 14 0 36 0;
#X connect 15 0 16 0;
#X connect 16 0 17 0;
#X connect 17 0 61 0;
#X connect 18 0 19 0;
#X connect 19 0 20 0;
#X connect 20 0 52 0;
#X connect 20 0 68 0;
#X connect 21 0 54 0;
#X connect 22 0 14 0;
#X connect 22 0 34 0;
#X connect 22 0 35 0;
#X connect 23 0 56 0;
#X connect 24 0 25 0;
#X connect 24 0 37 0;
#X connect 25 0 26 0;
#X connect 26 0 27 0;
#X connect 27 0 62 0;
#X connect 28 0 54 0;
#X connect 29 0 30 0;
#X connect 29 0 38 0;
#X connect 30 0 31 0;
#X connect 31 0 32 0;
#X connect 32 0 63 0;
#X connect 33 0 54 0;
#X connect 34 0 24 0;
#X connect 35 0 29 0;
#X connect 36 0 39 0;
#X connect 37 0 42 0;
#X connect 38 0 45 0;
#X connect 39 0 40 0;
#X connect 40 0 41 0;
#X connect 41 0 66 0;
#X connect 42 0 43 0;
#X connect 43 0 44 0;
#X connect 44 0 65 0;
#X connect 45 0 46 0;
#X connect 46 0 47 0;
#X connect 47 0 64 0;
#X connect 48 0 55 0;
#X connect 49 0 55 0;
#X connect 50 0 55 0;
#X connect 53 0 7 1;
#X connect 53 0 6 1;
#X connect 53 0 10 0;
#X connect 53 0 9 0;
#X connect 54 0 7 0;
#X connect 55 0 6 0;
#X connect 56 0 51 0;
#X connect 56 0 67 0;
#X connect 57 0 59 0;
#X connect 57 1 60 0;
#X connect 58 0 57 0;
#X connect 59 0 36 1;
#X connect 59 0 37 1;
#X connect 59 0 38 1;
#X connect 60 0 36 1;
#X connect 60 0 37 1;
#X connect 60 0 38 1;
#X connect 61 0 21 0;
#X connect 62 0 28 0;
#X connect 63 0 33 0;
#X connect 64 0 50 0;
#X connect 65 0 49 0;
#X connect 66 0 48 0;
#X connect 67 0 22 0;
#X connect 68 0 32 1;
#X connect 68 0 27 1;
#X connect 68 0 47 1;
#X connect 68 0 44 1;
#X connect 68 0 41 1;
#X connect 68 0 17 1;
#X connect 69 0 70 0;
#X connect 70 0 74 0;
#X connect 70 0 76 0;
#X connect 70 0 75 0;
#X connect 70 0 71 0;
#X connect 71 0 58 0;
#X connect 72 0 2 0;
#X connect 73 0 3 0;
#X connect 74 0 23 0;
#X connect 75 0 18 0;
#X connect 76 0 8 0;
#X restore 159 325 pd MDChorus2;
#N canvas 1142 286 542 405 root 0;
#X obj 111 119 hsl 45 15 0 11 0 0 empty empty empty -2 -8 0 10 -262144
-1 -1 0 1;
#X obj 201 96 i;
#X obj 108 50 notein 1;
#X obj 108 76 & 12;
#X obj 201 124 sel 0 1 2 3 4 5 6 7 8 9 10 11;
#X msg 201 152 symbol C;
#X symbolatom 104 137 3 0 0 0 - - -;
#X obj 422 122 outlet;
#X msg 217 178 symbol C#;
#X msg 234 204 symbol D;
#X msg 251 230 symbol D#;
#X msg 267 152 symbol E;
#X msg 284 178 symbol F;
#X msg 301 204 symbol F#;
#X msg 318 230 symbol G;
#X msg 334 152 symbol G#;
#X msg 350 178 symbol A;
#X msg 367 204 symbol A#;
#X msg 384 230 symbol H;
#X obj 180 50 inlet;
#X obj 51 18 loadbang;
#X msg 51 48 0;
#X obj 130 139 tgl 15 0 minor empty min 17 7 0 10 -262144 -1 -1 0 1
;
#X connect 0 0 1 0;
#X connect 1 0 4 0;
#X connect 1 0 7 0;
#X connect 2 0 3 0;
#X connect 3 0 0 0;
#X connect 4 0 5 0;
#X connect 4 1 8 0;
#X connect 4 2 9 0;
#X connect 4 3 10 0;
#X connect 4 4 11 0;
#X connect 4 5 12 0;
#X connect 4 6 13 0;
#X connect 4 7 14 0;
#X connect 4 8 15 0;
#X connect 4 9 16 0;
#X connect 4 10 17 0;
#X connect 4 11 18 0;
#X connect 5 0 6 0;
#X connect 8 0 6 0;
#X connect 9 0 6 0;
#X connect 10 0 6 0;
#X connect 11 0 6 0;
#X connect 12 0 6 0;
#X connect 13 0 6 0;
#X connect 14 0 6 0;
#X connect 15 0 6 0;
#X connect 16 0 6 0;
#X connect 17 0 6 0;
#X connect 18 0 6 0;
#X connect 19 0 3 0;
#X connect 20 0 21 0;
#X connect 21 0 3 0;
#X connect 21 0 22 0;
#X coords 0 -1 1 1 66 60 1 100 100;
#X restore 311 113 pd root;
#X obj 141 69 vsl 15 128 0 127 0 0 empty empty empty 0 -9 0 10 -262144
-1 -1 0 1;
#X obj 160 88 route x y;
#X msg 141 203 y \$1;
#N canvas 0 50 450 300 midi-mouse 0;
#X obj 103 105 vradio 15 1 0 3 control empty empty 0 -8 0 10 -262144
-1 -1 2;
#X obj 103 33 loadbang;
#X obj 147 163 + 1;
#X obj 147 255 outlet;
#X obj 251 53 gemmouse 127 1;
#X obj 274 78 * -1;
#X obj 274 103 + 1;
#X obj 274 127 * 127;
#X text 120 101 MOUSE;
#X text 120 116 MIDI;
#X msg 147 225 y \$1;
#X msg 234 224 x \$1;
#X obj 147 199 switch 3;
#X obj 234 198 switch 3;
#X text 119 132 JOYSTICK;
#N canvas 487 86 694 573 gamepad_ctrl 0;
#X msg 291 133 close;
#X obj 85 344 * 127;
#X obj 156 344 * 127;
#X obj 156 369 sig~;
#X obj 156 421 snapshot~;
#X obj 156 395 lop~ 4;
#X obj 85 369 sig~;
#X obj 85 421 snapshot~;
#X obj 85 395 lop~ 4;
#X obj 85 503 outlet;
#X obj 156 501 outlet;
#X obj 42 386 t b;
#X obj 292 301 s xtg;
#X obj 213 302 s ytg;
#X obj 220 388 t b;
#X obj 89 176 hid;
#X obj 157 137 tgl 15 0 empty empty empty 17 7 0 10 -262144 -1 -1 0
1;
#X obj 89 203 route abs;
#X obj 156 256 + 8192;
#X obj 156 283 / 16384;
#X obj 90 255 + 8192;
#X obj 89 282 / 16384;
#X obj 89 229 route abs_x abs_z;
#N canvas 0 50 450 300 inv 0;
#X obj 120 32 inlet;
#X obj 120 205 outlet;
#X obj 120 127 * 1;
#X obj 120 162 + 0;
#X msg 168 104 -1;
#X msg 163 130 1;
#X msg 203 105 1;
#X msg 198 131 0;
#X obj 102 103 tgl 15 0 empty empty inv 17 7 0 10 -262144 -1 -1 1 1
;
#X obj 277 34 loadbang;
#X msg 277 60 1;
#X obj 163 75 sel 1 0;
#X connect 0 0 2 0;
#X connect 2 0 3 0;
#X connect 3 0 1 0;
#X connect 4 0 2 1;
#X connect 5 0 3 1;
#X connect 6 0 2 1;
#X connect 7 0 3 1;
#X connect 8 0 11 0;
#X connect 9 0 10 0;
#X connect 10 0 8 0;
#X connect 11 0 4 0;
#X connect 11 0 5 0;
#X connect 11 1 6 0;
#X connect 11 1 7 0;
#X coords 0 -1 1 1 36 20 2 100 100;
#X restore 84 310 pd inv;
#N canvas 0 50 450 300 inv 0;
#X obj 120 32 inlet;
#X obj 120 205 outlet;
#X obj 120 127 * 1;
#X obj 120 162 + 0;
#X msg 168 104 -1;
#X msg 163 130 1;
#X msg 203 105 1;
#X msg 198 131 0;
#X obj 102 103 tgl 15 0 empty empty inv 17 7 0 10 -262144 -1 -1 1 1
;
#X obj 277 34 loadbang;
#X msg 277 60 1;
#X obj 163 75 sel 1 0;
#X connect 0 0 2 0;
#X connect 2 0 3 0;
#X connect 3 0 1 0;
#X connect 4 0 2 1;
#X connect 5 0 3 1;
#X connect 6 0 2 1;
#X connect 7 0 3 1;
#X connect 8 0 11 0;
#X connect 9 0 10 0;
#X connect 10 0 8 0;
#X connect 11 0 4 0;
#X connect 11 0 5 0;
#X connect 11 1 6 0;
#X connect 11 1 7 0;
#X coords 0 -1 1 1 36 20 2 100 100;
#X restore 156 310 pd inv;
#X obj 231 179 hid;
#X obj 190 139 tgl 15 0 empty empty empty 17 7 0 10 -262144 -1 -1 0
1;
#X obj 231 206 route key;
#X obj 232 240 route btn_6 btn_7;
#X obj 152 25 r control;
#X obj 152 51 sel 2;
#X msg 152 104 1;
#X obj 152 80 del 3000;
#X msg 184 105 0;
#X obj 220 82 del 3000;
#X msg 91 129 open 2;
#X msg 233 132 open 3;
#X obj 85 449 i;
#X obj 156 448 i;
#X obj 156 473 change;
#X obj 85 475 change;
#X connect 0 0 15 0;
#X connect 0 0 25 0;
#X connect 1 0 6 0;
#X connect 2 0 3 0;
#X connect 3 0 5 0;
#X connect 4 0 38 0;
#X connect 5 0 4 0;
#X connect 6 0 8 0;
#X connect 7 0 37 0;
#X connect 8 0 7 0;
#X connect 11 0 7 0;
#X connect 14 0 4 0;
#X connect 15 0 17 0;
#X connect 16 0 15 0;
#X connect 17 0 22 0;
#X connect 18 0 19 0;
#X connect 19 0 24 0;
#X connect 20 0 21 0;
#X connect 21 0 23 0;
#X connect 22 0 18 0;
#X connect 22 0 14 0;
#X connect 22 1 20 0;
#X connect 22 1 11 0;
#X connect 23 0 1 0;
#X connect 24 0 2 0;
#X connect 25 0 27 0;
#X connect 26 0 25 0;
#X connect 27 0 28 0;
#X connect 28 0 12 0;
#X connect 28 1 13 0;
#X connect 29 0 30 0;
#X connect 30 0 35 0;
#X connect 30 0 36 0;
#X connect 30 0 32 0;
#X connect 30 1 33 0;
#X connect 30 1 34 0;
#X connect 31 0 16 0;
#X connect 31 0 26 0;
#X connect 32 0 31 0;
#X connect 33 0 16 0;
#X connect 33 0 26 0;
#X connect 34 0 0 0;
#X connect 35 0 15 0;
#X connect 36 0 25 0;
#X connect 37 0 40 0;
#X connect 38 0 39 0;
#X connect 39 0 10 0;
#X connect 40 0 9 0;
#X restore 200 24 pd gamepad_ctrl;
#X obj 182 161 ctlin 14 1;
#X obj 269 162 ctlin 12 1;
#X obj 350 83 s xtg;
#X obj 328 116 s ytg;
#X msg 103 67 2;
#X connect 0 0 2 0;
#X connect 1 0 20 0;
#X connect 2 0 12 0;
#X connect 2 0 13 0;
#X connect 4 0 13 1;
#X connect 4 1 5 0;
#X connect 4 2 19 0;
#X connect 4 4 18 0;
#X connect 5 0 6 0;
#X connect 6 0 7 0;
#X connect 7 0 12 1;
#X connect 10 0 3 0;
#X connect 11 0 3 0;
#X connect 12 0 10 0;
#X connect 13 0 11 0;
#X connect 15 0 12 3;
#X connect 15 1 13 3;
#X connect 16 0 12 2;
#X connect 17 0 13 2;
#X connect 20 0 0 0;
#X coords 0 -1 1 1 82 56 2 100 100;
#X restore 160 27 pd midi-mouse;
#N canvas 149 129 511 509 bass_line 0;
#X obj 110 8 inlet;
#X obj 93 479 outlet~;
#X obj 406 10 inlet;
#X obj 92 158 % 12;
#X obj 92 183 t b f;
#X obj 92 235 f;
#X obj 110 33 route y;
#X obj 92 208 del 1;
#X obj 92 260 - 0;
#X obj 92 285 +;
#X obj 155 268 switch;
#X obj 215 209 + 7;
#X obj 174 238 f;
#X obj 201 238 f;
#X obj 151 209 random 2;
#X obj 183 182 del 1;
#X obj 147 238 + 1;
#X obj 92 111 f;
#X obj 198 8 inlet;
#X obj 92 134 change;
#X obj 151 157 t b;
#X obj 281 10 inlet;
#X obj 92 387 makenote;
#X obj 92 309 - 24;
#X obj 174 31 random 53;
#X obj 174 56 moses 20;
#X obj 227 80 t b;
#N canvas 0 50 479 571 FmEPiano 0;
#X obj 118 10 inlet;
#X obj 119 525 outlet~;
#X obj 118 38 unpack 0 0;
#X obj 137 184 *~;
#X obj 118 238 +~;
#X obj 118 264 osc~;
#X obj 137 133 osc~;
#X obj 118 103 mtof;
#X obj 118 293 *~;
#X obj 137 211 *~;
#N canvas 524 244 898 512 AHDSRenv 0;
#X obj 189 32 inlet;
#X obj 219 456 outlet~;
#X obj 245 258 vline~;
#X obj 172 269 vline~;
#X obj 189 57 moses 1;
#X obj 236 383 / 127;
#X obj 245 309 +~ 1;
#X obj 245 284 *~ 9;
#X obj 245 333 log~ 10;
#X obj 220 359 max~;
#X msg 245 229 0 0;
#X obj 219 431 *~;
#X obj 236 407 sig~;
#X obj 172 315 pow~ 4;
#X floatatom 388 391 5 0 0 0 - - -;
#X floatatom 441 391 5 0 0 0 - - -;
#X floatatom 495 391 5 0 0 0 - - -;
#X floatatom 601 391 5 0 0 0 - - -;
#X obj 441 259 i;
#X obj 388 259 i;
#X obj 601 259 i;
#X obj 495 259 i;
#X floatatom 550 391 5 0 0 0 - - -;
#X obj 764 5 bng 15 250 50 0 empty empty empty 17 7 0 10 -262144 -1
-1;
#X obj 550 186 i;
#X obj 542 281 / 100;
#X obj 542 306 pow 0.25;
#X obj 406 283 t f b;
#X obj 438 309 del 1;
#X obj 388 330 +;
#X msg 121 230 1 0 \$2 \, \$5 \$4 \$3;
#X obj 57 230 pack f f;
#X obj 606 306 expr (pow(10 \, $f1)-1)/9;
#X obj 252 202 pack f f f f f f;
#X msg 278 229 1 \$2 \, \$6 0 \$3;
#X obj 791 5 loadbang;
#X msg 440 101 1;
#X msg 473 101 8000;
#X msg 505 101 0;
#X msg 537 101 400;
#X connect 0 0 4 0;
#X connect 2 0 7 0;
#X connect 3 0 13 0;
#X connect 4 0 10 0;
#X connect 4 0 31 0;
#X connect 4 1 5 0;
#X connect 4 1 33 0;
#X connect 5 0 12 0;
#X connect 6 0 8 0;
#X connect 7 0 6 0;
#X connect 8 0 9 1;
#X connect 9 0 11 0;
#X connect 10 0 2 0;
#X connect 11 0 1 0;
#X connect 12 0 11 1;
#X connect 13 0 9 0;
#X connect 18 0 15 0;
#X connect 18 0 27 0;
#X connect 19 0 14 0;
#X connect 19 0 29 0;
#X connect 19 0 33 1;
#X connect 20 0 17 0;
#X connect 20 0 31 1;
#X connect 21 0 16 0;
#X connect 21 0 33 3;
#X connect 23 0 36 0;
#X connect 23 0 37 0;
#X connect 23 0 38 0;
#X connect 23 0 39 0;
#X connect 24 0 22 0;
#X connect 24 0 25 0;
#X connect 25 0 26 0;
#X connect 25 0 32 0;
#X connect 26 0 33 4;
#X connect 27 0 29 1;
#X connect 27 1 28 0;
#X connect 28 0 29 0;
#X connect 29 0 33 2;
#X connect 30 0 3 0;
#X connect 31 0 3 0;
#X connect 32 0 33 5;
#X connect 33 0 30 0;
#X connect 33 0 34 0;
#X connect 34 0 2 0;
#X connect 35 0 23 0;
#X connect 36 0 19 0;
#X connect 37 0 21 0;
#X connect 38 0 24 0;
#X connect 38 0 18 0;
#X connect 39 0 20 0;
#X restore 185 63 pd AHDSRenv;
#X obj 155 158 * 6;
#X obj 200 209 *~;
#X obj 181 263 +~;
#X obj 181 289 osc~;
#X obj 200 158 osc~;
#X obj 200 236 *~;
#X obj 181 315 *~;
#X obj 200 131 mtof;
#N canvas 524 244 898 512 AHDSRenv 0;
#X obj 189 32 inlet;
#X obj 219 456 outlet~;
#X obj 245 258 vline~;
#X obj 172 269 vline~;
#X obj 189 57 moses 1;
#X obj 236 383 / 127;
#X obj 245 309 +~ 1;
#X obj 245 284 *~ 9;
#X obj 245 333 log~ 10;
#X obj 220 359 max~;
#X msg 245 229 0 0;
#X obj 219 431 *~;
#X obj 236 407 sig~;
#X obj 172 315 pow~ 4;
#X floatatom 388 391 5 0 0 0 - - -;
#X floatatom 441 391 5 0 0 0 - - -;
#X floatatom 495 391 5 0 0 0 - - -;
#X floatatom 601 391 5 0 0 0 - - -;
#X obj 441 259 i;
#X obj 388 259 i;
#X obj 601 259 i;
#X obj 495 259 i;
#X floatatom 550 391 5 0 0 0 - - -;
#X obj 764 5 bng 15 250 50 0 empty empty empty 17 7 0 10 -262144 -1
-1;
#X obj 550 186 i;
#X obj 542 281 / 100;
#X obj 542 306 pow 0.25;
#X obj 406 283 t f b;
#X obj 438 309 del 1;
#X obj 388 330 +;
#X msg 121 230 1 0 \$2 \, \$5 \$4 \$3;
#X obj 57 230 pack f f;
#X obj 606 306 expr (pow(10 \, $f1)-1)/9;
#X obj 252 202 pack f f f f f f;
#X msg 278 229 1 \$2 \, \$6 0 \$3;
#X obj 791 5 loadbang;
#X msg 440 101 1;
#X msg 505 101 0;
#X msg 537 101 400;
#X msg 473 101 1000;
#X connect 0 0 4 0;
#X connect 2 0 7 0;
#X connect 3 0 13 0;
#X connect 4 0 10 0;
#X connect 4 0 31 0;
#X connect 4 1 5 0;
#X connect 4 1 33 0;
#X connect 5 0 12 0;
#X connect 6 0 8 0;
#X connect 7 0 6 0;
#X connect 8 0 9 1;
#X connect 9 0 11 0;
#X connect 10 0 2 0;
#X connect 11 0 1 0;
#X connect 12 0 11 1;
#X connect 13 0 9 0;
#X connect 18 0 15 0;
#X connect 18 0 27 0;
#X connect 19 0 14 0;
#X connect 19 0 29 0;
#X connect 19 0 33 1;
#X connect 20 0 17 0;
#X connect 20 0 31 1;
#X connect 21 0 16 0;
#X connect 21 0 33 3;
#X connect 23 0 36 0;
#X connect 23 0 39 0;
#X connect 23 0 37 0;
#X connect 23 0 38 0;
#X connect 24 0 22 0;
#X connect 24 0 25 0;
#X connect 25 0 26 0;
#X connect 25 0 32 0;
#X connect 26 0 33 4;
#X connect 27 0 29 1;
#X connect 27 1 28 0;
#X connect 28 0 29 0;
#X connect 29 0 33 2;
#X connect 30 0 3 0;
#X connect 31 0 3 0;
#X connect 32 0 33 5;
#X connect 33 0 30 0;
#X connect 33 0 34 0;
#X connect 34 0 2 0;
#X connect 35 0 23 0;
#X connect 36 0 19 0;
#X connect 37 0 24 0;
#X connect 37 0 18 0;
#X connect 38 0 20 0;
#X connect 39 0 21 0;
#X restore 275 62 pd AHDSRenv;
#X obj 218 183 * 3;
#X obj 200 105 + 60;
#X obj 119 366 +~;
#X obj 119 418 lop~ 5000;
#X obj 119 443 lop~ 5000;
#X obj 120 469 lop~ 5000;
#X obj 119 496 lop~ 5000;
#X obj 119 392 /~ 2;
#X connect 0 0 2 0;
#X connect 2 0 7 0;
#X connect 2 0 21 0;
#X connect 2 1 10 0;
#X connect 2 1 19 0;
#X connect 3 0 9 0;
#X connect 4 0 5 0;
#X connect 5 0 8 0;
#X connect 6 0 3 0;
#X connect 7 0 11 0;
#X connect 7 0 4 0;
#X connect 7 0 6 0;
#X connect 7 0 20 0;
#X connect 7 0 13 0;
#X connect 8 0 22 0;
#X connect 9 0 4 1;
#X connect 10 0 9 1;
#X connect 10 0 8 1;
#X connect 10 0 17 1;
#X connect 11 0 3 1;
#X connect 12 0 16 0;
#X connect 13 0 14 0;
#X connect 14 0 17 0;
#X connect 15 0 12 0;
#X connect 16 0 13 1;
#X connect 17 0 22 1;
#X connect 18 0 15 0;
#X connect 19 0 16 1;
#X connect 20 0 12 1;
#X connect 21 0 18 0;
#X connect 22 0 27 0;
#X connect 23 0 24 0;
#X connect 24 0 25 0;
#X connect 25 0 26 0;
#X connect 26 0 1 0;
#X connect 27 0 23 0;
#X restore 93 449 pd FmEPiano;
#N canvas 0 50 450 355 mode 0;
#X obj 87 24 inlet;
#X obj 147 23 inlet;
#X obj 91 290 outlet;
#X obj 91 207 pack 0 0;
#X obj 87 51 stripnote;
#X obj 91 79 change;
#X obj 142 131 f;
#X msg 142 155 \$1 0;
#X obj 142 106 t b;
#X obj 91 177 pipe 1;
#X obj 165 54 r disable;
#X obj 52 245 switch;
#X obj 27 207 pack 0 0;
#X obj 243 54 r lega;
#X obj 243 80 + 1;
#X obj 200 81 sel 0;
#X connect 0 0 4 0;
#X connect 0 0 12 0;
#X connect 1 0 4 1;
#X connect 1 0 12 1;
#X connect 3 0 11 2;
#X connect 4 0 5 0;
#X connect 4 0 6 1;
#X connect 4 1 3 1;
#X connect 5 0 8 0;
#X connect 5 0 9 0;
#X connect 6 0 7 0;
#X connect 7 0 2 0;
#X connect 8 0 6 0;
#X connect 9 0 3 0;
#X connect 10 0 8 0;
#X connect 11 0 2 0;
#X connect 12 0 11 1;
#X connect 13 0 14 0;
#X connect 13 0 15 0;
#X connect 14 0 11 0;
#X connect 15 0 8 0;
#X restore 93 418 pd mode;
#X obj 145 359 * 0.8;
#X obj 111 359 + 50;
#X obj 111 334 random 11;
#X text 152 8 pitch;
#X text 239 10 clock;
#X text 321 11 tempo_in_ms;
#X text 451 11 key;
#X connect 0 0 6 0;
#X connect 2 0 11 0;
#X connect 2 0 12 1;
#X connect 3 0 4 0;
#X connect 4 0 7 0;
#X connect 4 1 8 1;
#X connect 5 0 8 0;
#X connect 6 0 17 1;
#X connect 7 0 5 0;
#X connect 8 0 9 0;
#X connect 9 0 23 0;
#X connect 10 0 9 1;
#X connect 11 0 13 1;
#X connect 12 0 10 1;
#X connect 13 0 10 2;
#X connect 14 0 16 0;
#X connect 15 0 12 0;
#X connect 15 0 13 0;
#X connect 16 0 10 0;
#X connect 17 0 19 0;
#X connect 18 0 24 0;
#X connect 19 0 20 0;
#X connect 19 0 3 0;
#X connect 19 0 5 1;
#X connect 20 0 15 0;
#X connect 20 0 14 0;
#X connect 20 0 31 0;
#X connect 21 0 29 0;
#X connect 22 0 28 0;
#X connect 22 1 28 1;
#X connect 23 0 22 0;
#X connect 24 0 25 0;
#X connect 25 1 26 0;
#X connect 26 0 17 0;
#X connect 27 0 1 0;
#X connect 28 0 27 0;
#X connect 29 0 22 2;
#X connect 30 0 22 1;
#X connect 31 0 30 0;
#X restore 64 281 pd bass_line;
#N canvas 318 316 472 499 melody_line 0;
#X obj 51 22 inlet;
#X obj 142 22 inlet;
#X obj 237 22 inlet;
#X obj 363 23 inlet;
#X obj 33 458 outlet~;
#X obj 51 49 route y;
#X obj 33 253 f;
#X obj 33 276 change;
#X obj 51 74 t b f;
#X obj 51 101 f;
#X obj 51 126 + 0;
#X obj 98 74 * -1;
#N canvas 809 406 450 292 quantizer 0;
#X obj 200 41 % 12;
#X obj 129 220 i;
#X obj 27 97 vradio 15 1 0 2 empty minor scale 0 -8 0 10 -261682 -1
-1 0;
#X text 47 90 maj;
#X text 46 107 min;
#X obj 27 133 + 1;
#X obj 165 163 switch;
#X obj 129 13 inlet;
#X obj 129 246 outlet;
#X obj 27 31 loadbang;
#X msg 27 60 0;
#X obj 129 121 t b;
#X obj 200 95 sel 0 1 2 3 4 5 6 7 8 9 10 11;
#X msg 223 130 2, f 1;
#X msg 205 130 0, f 1;
#X msg 241 130 4, f 1;
#X msg 260 130 7, f 1;
#X msg 278 130 9, f 1;
#X msg 298 130 0, f 1;
#X msg 353 130 7, f 1;
#X msg 316 130 3, f 1;
#X msg 334 130 5, f 1;
#X msg 371 130 10, f 2;
#X obj 147 94 +;
#X obj 165 70 * -1;
#X obj 147 193 +;
#X connect 0 0 12 0;
#X connect 0 0 24 0;
#X connect 1 0 8 0;
#X connect 2 0 5 0;
#X connect 5 0 6 0;
#X connect 6 0 25 1;
#X connect 7 0 0 0;
#X connect 7 0 11 0;
#X connect 7 0 23 0;
#X connect 9 0 10 0;
#X connect 10 0 2 0;
#X connect 11 0 1 0;
#X connect 12 0 14 0;
#X connect 12 0 18 0;
#X connect 12 1 14 0;
#X connect 12 1 18 0;
#X connect 12 2 13 0;
#X connect 12 2 18 0;
#X connect 12 3 13 0;
#X connect 12 3 20 0;
#X connect 12 4 15 0;
#X connect 12 4 20 0;
#X connect 12 5 15 0;
#X connect 12 5 21 0;
#X connect 12 6 15 0;
#X connect 12 6 21 0;
#X connect 12 7 16 0;
#X connect 12 7 19 0;
#X connect 12 8 16 0;
#X connect 12 8 19 0;
#X connect 12 9 17 0;
#X connect 12 9 19 0;
#X connect 12 10 17 0;
#X connect 12 10 22 0;
#X connect 12 11 17 0;
#X connect 12 11 22 0;
#X connect 13 0 6 1;
#X connect 14 0 6 1;
#X connect 15 0 6 1;
#X connect 16 0 6 1;
#X connect 17 0 6 1;
#X connect 18 0 6 2;
#X connect 19 0 6 2;
#X connect 20 0 6 2;
#X connect 21 0 6 2;
#X connect 22 0 6 2;
#X connect 23 0 25 0;
#X connect 24 0 23 1;
#X connect 25 0 1 1;
#X restore 51 151 pd quantizer;
#X obj 51 176 t b f;
#X obj 51 201 f;
#X obj 51 226 + 0;
#X obj 33 381 makenote;
#X obj 59 328 random 21;
#X obj 59 303 t b;
#X obj 94 353 * 0.3;
#X obj 126 459 outlet;
#N canvas 0 50 479 571 FmEPiano 0;
#X obj 118 10 inlet;
#X obj 119 525 outlet~;
#X obj 118 38 unpack 0 0;
#X obj 137 184 *~;
#X obj 118 238 +~;
#X obj 118 264 osc~;
#X obj 137 133 osc~;
#X obj 118 103 mtof;
#X obj 118 293 *~;
#X obj 137 211 *~;
#N canvas 524 244 898 512 AHDSRenv 0;
#X obj 189 32 inlet;
#X obj 219 456 outlet~;
#X obj 245 258 vline~;
#X obj 172 269 vline~;
#X obj 189 57 moses 1;
#X obj 236 383 / 127;
#X obj 245 309 +~ 1;
#X obj 245 284 *~ 9;
#X obj 245 333 log~ 10;
#X obj 220 359 max~;
#X msg 245 229 0 0;
#X obj 219 431 *~;
#X obj 236 407 sig~;
#X obj 172 315 pow~ 4;
#X floatatom 388 391 5 0 0 0 - - -;
#X floatatom 441 391 5 0 0 0 - - -;
#X floatatom 495 391 5 0 0 0 - - -;
#X floatatom 601 391 5 0 0 0 - - -;
#X obj 441 259 i;
#X obj 388 259 i;
#X obj 601 259 i;
#X obj 495 259 i;
#X floatatom 550 391 5 0 0 0 - - -;
#X obj 764 5 bng 15 250 50 0 empty empty empty 17 7 0 10 -262144 -1
-1;
#X obj 550 186 i;
#X obj 542 281 / 100;
#X obj 542 306 pow 0.25;
#X obj 406 283 t f b;
#X obj 438 309 del 1;
#X obj 388 330 +;
#X msg 121 230 1 0 \$2 \, \$5 \$4 \$3;
#X obj 57 230 pack f f;
#X obj 606 306 expr (pow(10 \, $f1)-1)/9;
#X obj 252 202 pack f f f f f f;
#X msg 278 229 1 \$2 \, \$6 0 \$3;
#X obj 791 5 loadbang;
#X msg 440 101 1;
#X msg 473 101 8000;
#X msg 505 101 0;
#X msg 537 101 400;
#X connect 0 0 4 0;
#X connect 2 0 7 0;
#X connect 3 0 13 0;
#X connect 4 0 10 0;
#X connect 4 0 31 0;
#X connect 4 1 5 0;
#X connect 4 1 33 0;
#X connect 5 0 12 0;
#X connect 6 0 8 0;
#X connect 7 0 6 0;
#X connect 8 0 9 1;
#X connect 9 0 11 0;
#X connect 10 0 2 0;
#X connect 11 0 1 0;
#X connect 12 0 11 1;
#X connect 13 0 9 0;
#X connect 18 0 15 0;
#X connect 18 0 27 0;
#X connect 19 0 14 0;
#X connect 19 0 29 0;
#X connect 19 0 33 1;
#X connect 20 0 17 0;
#X connect 20 0 31 1;
#X connect 21 0 16 0;
#X connect 21 0 33 3;
#X connect 23 0 36 0;
#X connect 23 0 37 0;
#X connect 23 0 38 0;
#X connect 23 0 39 0;
#X connect 24 0 22 0;
#X connect 24 0 25 0;
#X connect 25 0 26 0;
#X connect 25 0 32 0;
#X connect 26 0 33 4;
#X connect 27 0 29 1;
#X connect 27 1 28 0;
#X connect 28 0 29 0;
#X connect 29 0 33 2;
#X connect 30 0 3 0;
#X connect 31 0 3 0;
#X connect 32 0 33 5;
#X connect 33 0 30 0;
#X connect 33 0 34 0;
#X connect 34 0 2 0;
#X connect 35 0 23 0;
#X connect 36 0 19 0;
#X connect 37 0 21 0;
#X connect 38 0 24 0;
#X connect 38 0 18 0;
#X connect 39 0 20 0;
#X restore 185 63 pd AHDSRenv;
#X obj 155 158 * 6;
#X obj 200 209 *~;
#X obj 181 263 +~;
#X obj 181 289 osc~;
#X obj 200 158 osc~;
#X obj 200 236 *~;
#X obj 181 315 *~;
#X obj 200 131 mtof;
#N canvas 524 244 898 512 AHDSRenv 0;
#X obj 189 32 inlet;
#X obj 219 456 outlet~;
#X obj 245 258 vline~;
#X obj 172 269 vline~;
#X obj 189 57 moses 1;
#X obj 236 383 / 127;
#X obj 245 309 +~ 1;
#X obj 245 284 *~ 9;
#X obj 245 333 log~ 10;
#X obj 220 359 max~;
#X msg 245 229 0 0;
#X obj 219 431 *~;
#X obj 236 407 sig~;
#X obj 172 315 pow~ 4;
#X floatatom 388 391 5 0 0 0 - - -;
#X floatatom 441 391 5 0 0 0 - - -;
#X floatatom 495 391 5 0 0 0 - - -;
#X floatatom 601 391 5 0 0 0 - - -;
#X obj 441 259 i;
#X obj 388 259 i;
#X obj 601 259 i;
#X obj 495 259 i;
#X floatatom 550 391 5 0 0 0 - - -;
#X obj 764 5 bng 15 250 50 0 empty empty empty 17 7 0 10 -262144 -1
-1;
#X obj 550 186 i;
#X obj 542 281 / 100;
#X obj 542 306 pow 0.25;
#X obj 406 283 t f b;
#X obj 438 309 del 1;
#X obj 388 330 +;
#X msg 121 230 1 0 \$2 \, \$5 \$4 \$3;
#X obj 57 230 pack f f;
#X obj 606 306 expr (pow(10 \, $f1)-1)/9;
#X obj 252 202 pack f f f f f f;
#X msg 278 229 1 \$2 \, \$6 0 \$3;
#X obj 791 5 loadbang;
#X msg 440 101 1;
#X msg 505 101 0;
#X msg 537 101 400;
#X msg 473 101 1000;
#X connect 0 0 4 0;
#X connect 2 0 7 0;
#X connect 3 0 13 0;
#X connect 4 0 10 0;
#X connect 4 0 31 0;
#X connect 4 1 5 0;
#X connect 4 1 33 0;
#X connect 5 0 12 0;
#X connect 6 0 8 0;
#X connect 7 0 6 0;
#X connect 8 0 9 1;
#X connect 9 0 11 0;
#X connect 10 0 2 0;
#X connect 11 0 1 0;
#X connect 12 0 11 1;
#X connect 13 0 9 0;
#X connect 18 0 15 0;
#X connect 18 0 27 0;
#X connect 19 0 14 0;
#X connect 19 0 29 0;
#X connect 19 0 33 1;
#X connect 20 0 17 0;
#X connect 20 0 31 1;
#X connect 21 0 16 0;
#X connect 21 0 33 3;
#X connect 23 0 36 0;
#X connect 23 0 39 0;
#X connect 23 0 37 0;
#X connect 23 0 38 0;
#X connect 24 0 22 0;
#X connect 24 0 25 0;
#X connect 25 0 26 0;
#X connect 25 0 32 0;
#X connect 26 0 33 4;
#X connect 27 0 29 1;
#X connect 27 1 28 0;
#X connect 28 0 29 0;
#X connect 29 0 33 2;
#X connect 30 0 3 0;
#X connect 31 0 3 0;
#X connect 32 0 33 5;
#X connect 33 0 30 0;
#X connect 33 0 34 0;
#X connect 34 0 2 0;
#X connect 35 0 23 0;
#X connect 36 0 19 0;
#X connect 37 0 24 0;
#X connect 37 0 18 0;
#X connect 38 0 20 0;
#X connect 39 0 21 0;
#X restore 275 62 pd AHDSRenv;
#X obj 218 183 * 3;
#X obj 200 105 + 60;
#X obj 119 366 +~;
#X obj 119 418 lop~ 5000;
#X obj 119 443 lop~ 5000;
#X obj 120 469 lop~ 5000;
#X obj 119 496 lop~ 5000;
#X obj 119 392 /~ 2;
#X connect 0 0 2 0;
#X connect 2 0 7 0;
#X connect 2 0 21 0;
#X connect 2 1 10 0;
#X connect 2 1 19 0;
#X connect 3 0 9 0;
#X connect 4 0 5 0;
#X connect 5 0 8 0;
#X connect 6 0 3 0;
#X connect 7 0 11 0;
#X connect 7 0 4 0;
#X connect 7 0 6 0;
#X connect 7 0 20 0;
#X connect 7 0 13 0;
#X connect 8 0 22 0;
#X connect 9 0 4 1;
#X connect 10 0 9 1;
#X connect 10 0 8 1;
#X connect 10 0 17 1;
#X connect 11 0 3 1;
#X connect 12 0 16 0;
#X connect 13 0 14 0;
#X connect 14 0 17 0;
#X connect 15 0 12 0;
#X connect 16 0 13 1;
#X connect 17 0 22 1;
#X connect 18 0 15 0;
#X connect 19 0 16 1;
#X connect 20 0 12 1;
#X connect 21 0 18 0;
#X connect 22 0 27 0;
#X connect 23 0 24 0;
#X connect 24 0 25 0;
#X connect 25 0 26 0;
#X connect 26 0 1 0;
#X connect 27 0 23 0;
#X restore 33 432 pd FmEPiano;
#N canvas 0 50 450 355 mode 0;
#X obj 87 24 inlet;
#X obj 147 23 inlet;
#X obj 91 290 outlet;
#X obj 91 207 pack 0 0;
#X obj 87 51 stripnote;
#X obj 91 79 change;
#X obj 142 131 f;
#X msg 142 155 \$1 0;
#X obj 142 106 t b;
#X obj 91 177 pipe 1;
#X obj 165 54 r disable;
#X obj 52 245 switch;
#X obj 27 207 pack 0 0;
#X obj 243 54 r lega;
#X obj 243 80 + 1;
#X obj 200 81 sel 0;
#X connect 0 0 4 0;
#X connect 0 0 12 0;
#X connect 1 0 4 1;
#X connect 1 0 12 1;
#X connect 3 0 11 2;
#X connect 4 0 5 0;
#X connect 4 0 6 1;
#X connect 4 1 3 1;
#X connect 5 0 8 0;
#X connect 5 0 9 0;
#X connect 6 0 7 0;
#X connect 7 0 2 0;
#X connect 8 0 6 0;
#X connect 9 0 3 0;
#X connect 10 0 8 0;
#X connect 11 0 2 0;
#X connect 12 0 11 1;
#X connect 13 0 14 0;
#X connect 13 0 15 0;
#X connect 14 0 11 0;
#X connect 15 0 8 0;
#X restore 34 406 pd mode;
#X obj 59 353 + 70;
#X text 92 20 pitch;
#X text 184 22 clock;
#X text 279 22 tempo_in_ms;
#X text 409 22 key;
#X connect 0 0 5 0;
#X connect 1 0 6 0;
#X connect 2 0 19 0;
#X connect 3 0 11 0;
#X connect 3 0 14 1;
#X connect 5 0 8 0;
#X connect 6 0 7 0;
#X connect 7 0 16 0;
#X connect 7 0 18 0;
#X connect 7 0 20 0;
#X connect 8 0 9 0;
#X connect 8 1 10 1;
#X connect 9 0 10 0;
#X connect 10 0 12 0;
#X connect 11 0 9 1;
#X connect 12 0 13 0;
#X connect 13 0 14 0;
#X connect 13 1 15 1;
#X connect 14 0 15 0;
#X connect 15 0 6 1;
#X connect 16 0 22 0;
#X connect 16 1 22 1;
#X connect 17 0 23 0;
#X connect 18 0 17 0;
#X connect 19 0 16 2;
#X connect 21 0 4 0;
#X connect 22 0 21 0;
#X connect 23 0 16 1;
#X restore 233 281 pd melody_line;
#N canvas 29 168 431 537 chords 0;
#X obj 96 16 inlet;
#X obj 99 467 outlet~;
#X obj 207 468 outlet~;
#X obj 96 69 pack 0 0 0;
#X obj 96 43 poly 3 1;
#X obj 99 441 tanh~;
#X obj 96 96 route 1 2 3;
#X obj 66 368 *~;
#X obj 96 368 *~;
#X obj 207 443 tanh~;
#X obj 83 313 *~ -1;
#X obj 83 337 +~ 1;
#X obj 151 368 *~;
#X obj 181 368 *~;
#X obj 168 313 *~ -1;
#X obj 168 337 +~ 1;
#X obj 229 368 *~;
#X obj 259 368 *~;
#X obj 246 313 *~ -1;
#X obj 246 337 +~ 1;
#X msg 322 84 0;
#X msg 319 114 0.33;
#X msg 318 146 0.66;
#X obj 337 52 bng 15 250 50 0 empty empty empty 17 7 0 10 -262144 -1
-1;
#X obj 337 25 loadbang;
#X obj 83 235 osc~ 1;
#X obj 83 260 +~ 1;
#X obj 83 286 /~ 2;
#X obj 160 236 osc~ 1;
#X obj 160 261 +~ 1;
#X obj 160 287 /~ 2;
#X obj 243 236 osc~ 1;
#X obj 243 261 +~ 1;
#X obj 243 287 /~ 2;
#N canvas 0 50 479 571 FmEPiano 0;
#X obj 118 10 inlet;
#X obj 119 525 outlet~;
#X obj 118 38 unpack 0 0;
#X obj 137 184 *~;
#X obj 118 238 +~;
#X obj 118 264 osc~;
#X obj 137 133 osc~;
#X obj 118 103 mtof;
#X obj 118 293 *~;
#X obj 137 211 *~;
#N canvas 524 244 898 512 AHDSRenv 0;
#X obj 189 32 inlet;
#X obj 219 456 outlet~;
#X obj 245 258 vline~;
#X obj 172 269 vline~;
#X obj 189 57 moses 1;
#X obj 236 383 / 127;
#X obj 245 309 +~ 1;
#X obj 245 284 *~ 9;
#X obj 245 333 log~ 10;
#X obj 220 359 max~;
#X msg 245 229 0 0;
#X obj 219 431 *~;
#X obj 236 407 sig~;
#X obj 172 315 pow~ 4;
#X floatatom 388 391 5 0 0 0 - - -;
#X floatatom 441 391 5 0 0 0 - - -;
#X floatatom 495 391 5 0 0 0 - - -;
#X floatatom 601 391 5 0 0 0 - - -;
#X obj 441 259 i;
#X obj 388 259 i;
#X obj 601 259 i;
#X obj 495 259 i;
#X floatatom 550 391 5 0 0 0 - - -;
#X obj 764 5 bng 15 250 50 0 empty empty empty 17 7 0 10 -262144 -1
-1;
#X obj 550 186 i;
#X obj 542 281 / 100;
#X obj 542 306 pow 0.25;
#X obj 406 283 t f b;
#X obj 438 309 del 1;
#X obj 388 330 +;
#X msg 121 230 1 0 \$2 \, \$5 \$4 \$3;
#X obj 57 230 pack f f;
#X obj 606 306 expr (pow(10 \, $f1)-1)/9;
#X obj 252 202 pack f f f f f f;
#X msg 278 229 1 \$2 \, \$6 0 \$3;
#X obj 791 5 loadbang;
#X msg 440 101 1;
#X msg 473 101 8000;
#X msg 505 101 0;
#X msg 537 101 400;
#X connect 0 0 4 0;
#X connect 2 0 7 0;
#X connect 3 0 13 0;
#X connect 4 0 10 0;
#X connect 4 0 31 0;
#X connect 4 1 5 0;
#X connect 4 1 33 0;
#X connect 5 0 12 0;
#X connect 6 0 8 0;
#X connect 7 0 6 0;
#X connect 8 0 9 1;
#X connect 9 0 11 0;
#X connect 10 0 2 0;
#X connect 11 0 1 0;
#X connect 12 0 11 1;
#X connect 13 0 9 0;
#X connect 18 0 15 0;
#X connect 18 0 27 0;
#X connect 19 0 14 0;
#X connect 19 0 29 0;
#X connect 19 0 33 1;
#X connect 20 0 17 0;
#X connect 20 0 31 1;
#X connect 21 0 16 0;
#X connect 21 0 33 3;
#X connect 23 0 36 0;
#X connect 23 0 37 0;
#X connect 23 0 38 0;
#X connect 23 0 39 0;
#X connect 24 0 22 0;
#X connect 24 0 25 0;
#X connect 25 0 26 0;
#X connect 25 0 32 0;
#X connect 26 0 33 4;
#X connect 27 0 29 1;
#X connect 27 1 28 0;
#X connect 28 0 29 0;
#X connect 29 0 33 2;
#X connect 30 0 3 0;
#X connect 31 0 3 0;
#X connect 32 0 33 5;
#X connect 33 0 30 0;
#X connect 33 0 34 0;
#X connect 34 0 2 0;
#X connect 35 0 23 0;
#X connect 36 0 19 0;
#X connect 37 0 21 0;
#X connect 38 0 24 0;
#X connect 38 0 18 0;
#X connect 39 0 20 0;
#X restore 185 63 pd AHDSRenv;
#X obj 155 158 * 6;
#X obj 200 209 *~;
#X obj 181 263 +~;
#X obj 181 289 osc~;
#X obj 200 158 osc~;
#X obj 200 236 *~;
#X obj 181 315 *~;
#X obj 200 131 mtof;
#N canvas 524 244 898 512 AHDSRenv 0;
#X obj 189 32 inlet;
#X obj 219 456 outlet~;
#X obj 245 258 vline~;
#X obj 172 269 vline~;
#X obj 189 57 moses 1;
#X obj 236 383 / 127;
#X obj 245 309 +~ 1;
#X obj 245 284 *~ 9;
#X obj 245 333 log~ 10;
#X obj 220 359 max~;
#X msg 245 229 0 0;
#X obj 219 431 *~;
#X obj 236 407 sig~;
#X obj 172 315 pow~ 4;
#X floatatom 388 391 5 0 0 0 - - -;
#X floatatom 441 391 5 0 0 0 - - -;
#X floatatom 495 391 5 0 0 0 - - -;
#X floatatom 601 391 5 0 0 0 - - -;
#X obj 441 259 i;
#X obj 388 259 i;
#X obj 601 259 i;
#X obj 495 259 i;
#X floatatom 550 391 5 0 0 0 - - -;
#X obj 764 5 bng 15 250 50 0 empty empty empty 17 7 0 10 -262144 -1
-1;
#X obj 550 186 i;
#X obj 542 281 / 100;
#X obj 542 306 pow 0.25;
#X obj 406 283 t f b;
#X obj 438 309 del 1;
#X obj 388 330 +;
#X msg 121 230 1 0 \$2 \, \$5 \$4 \$3;
#X obj 57 230 pack f f;
#X obj 606 306 expr (pow(10 \, $f1)-1)/9;
#X obj 252 202 pack f f f f f f;
#X msg 278 229 1 \$2 \, \$6 0 \$3;
#X obj 791 5 loadbang;
#X msg 440 101 1;
#X msg 505 101 0;
#X msg 537 101 400;
#X msg 473 101 1000;
#X connect 0 0 4 0;
#X connect 2 0 7 0;
#X connect 3 0 13 0;
#X connect 4 0 10 0;
#X connect 4 0 31 0;
#X connect 4 1 5 0;
#X connect 4 1 33 0;
#X connect 5 0 12 0;
#X connect 6 0 8 0;
#X connect 7 0 6 0;
#X connect 8 0 9 1;
#X connect 9 0 11 0;
#X connect 10 0 2 0;
#X connect 11 0 1 0;
#X connect 12 0 11 1;
#X connect 13 0 9 0;
#X connect 18 0 15 0;
#X connect 18 0 27 0;
#X connect 19 0 14 0;
#X connect 19 0 29 0;
#X connect 19 0 33 1;
#X connect 20 0 17 0;
#X connect 20 0 31 1;
#X connect 21 0 16 0;
#X connect 21 0 33 3;
#X connect 23 0 36 0;
#X connect 23 0 39 0;
#X connect 23 0 37 0;
#X connect 23 0 38 0;
#X connect 24 0 22 0;
#X connect 24 0 25 0;
#X connect 25 0 26 0;
#X connect 25 0 32 0;
#X connect 26 0 33 4;
#X connect 27 0 29 1;
#X connect 27 1 28 0;
#X connect 28 0 29 0;
#X connect 29 0 33 2;
#X connect 30 0 3 0;
#X connect 31 0 3 0;
#X connect 32 0 33 5;
#X connect 33 0 30 0;
#X connect 33 0 34 0;
#X connect 34 0 2 0;
#X connect 35 0 23 0;
#X connect 36 0 19 0;
#X connect 37 0 24 0;
#X connect 37 0 18 0;
#X connect 38 0 20 0;
#X connect 39 0 21 0;
#X restore 275 62 pd AHDSRenv;
#X obj 218 183 * 3;
#X obj 200 105 + 60;
#X obj 119 366 +~;
#X obj 119 418 lop~ 5000;
#X obj 119 443 lop~ 5000;
#X obj 120 469 lop~ 5000;
#X obj 119 496 lop~ 5000;
#X obj 119 392 /~ 2;
#X connect 0 0 2 0;
#X connect 2 0 7 0;
#X connect 2 0 21 0;
#X connect 2 1 10 0;
#X connect 2 1 19 0;
#X connect 3 0 9 0;
#X connect 4 0 5 0;
#X connect 5 0 8 0;
#X connect 6 0 3 0;
#X connect 7 0 11 0;
#X connect 7 0 4 0;
#X connect 7 0 6 0;
#X connect 7 0 20 0;
#X connect 7 0 13 0;
#X connect 8 0 22 0;
#X connect 9 0 4 1;
#X connect 10 0 9 1;
#X connect 10 0 8 1;
#X connect 10 0 17 1;
#X connect 11 0 3 1;
#X connect 12 0 16 0;
#X connect 13 0 14 0;
#X connect 14 0 17 0;
#X connect 15 0 12 0;
#X connect 16 0 13 1;
#X connect 17 0 22 1;
#X connect 18 0 15 0;
#X connect 19 0 16 1;
#X connect 20 0 12 1;
#X connect 21 0 18 0;
#X connect 22 0 27 0;
#X connect 23 0 24 0;
#X connect 24 0 25 0;
#X connect 25 0 26 0;
#X connect 26 0 1 0;
#X connect 27 0 23 0;
#X restore 67 163 pd FmEPiano;
#N canvas 0 50 479 571 FmEPiano 0;
#X obj 118 10 inlet;
#X obj 119 525 outlet~;
#X obj 118 38 unpack 0 0;
#X obj 137 184 *~;
#X obj 118 238 +~;
#X obj 118 264 osc~;
#X obj 137 133 osc~;
#X obj 118 103 mtof;
#X obj 118 293 *~;
#X obj 137 211 *~;
#N canvas 524 244 898 512 AHDSRenv 0;
#X obj 189 32 inlet;
#X obj 219 456 outlet~;
#X obj 245 258 vline~;
#X obj 172 269 vline~;
#X obj 189 57 moses 1;
#X obj 236 383 / 127;
#X obj 245 309 +~ 1;
#X obj 245 284 *~ 9;
#X obj 245 333 log~ 10;
#X obj 220 359 max~;
#X msg 245 229 0 0;
#X obj 219 431 *~;
#X obj 236 407 sig~;
#X obj 172 315 pow~ 4;
#X floatatom 388 391 5 0 0 0 - - -;
#X floatatom 441 391 5 0 0 0 - - -;
#X floatatom 495 391 5 0 0 0 - - -;
#X floatatom 601 391 5 0 0 0 - - -;
#X obj 441 259 i;
#X obj 388 259 i;
#X obj 601 259 i;
#X obj 495 259 i;
#X floatatom 550 391 5 0 0 0 - - -;
#X obj 764 5 bng 15 250 50 0 empty empty empty 17 7 0 10 -262144 -1
-1;
#X obj 550 186 i;
#X obj 542 281 / 100;
#X obj 542 306 pow 0.25;
#X obj 406 283 t f b;
#X obj 438 309 del 1;
#X obj 388 330 +;
#X msg 121 230 1 0 \$2 \, \$5 \$4 \$3;
#X obj 57 230 pack f f;
#X obj 606 306 expr (pow(10 \, $f1)-1)/9;
#X obj 252 202 pack f f f f f f;
#X msg 278 229 1 \$2 \, \$6 0 \$3;
#X obj 791 5 loadbang;
#X msg 440 101 1;
#X msg 473 101 8000;
#X msg 505 101 0;
#X msg 537 101 400;
#X connect 0 0 4 0;
#X connect 2 0 7 0;
#X connect 3 0 13 0;
#X connect 4 0 10 0;
#X connect 4 0 31 0;
#X connect 4 1 5 0;
#X connect 4 1 33 0;
#X connect 5 0 12 0;
#X connect 6 0 8 0;
#X connect 7 0 6 0;
#X connect 8 0 9 1;
#X connect 9 0 11 0;
#X connect 10 0 2 0;
#X connect 11 0 1 0;
#X connect 12 0 11 1;
#X connect 13 0 9 0;
#X connect 18 0 15 0;
#X connect 18 0 27 0;
#X connect 19 0 14 0;
#X connect 19 0 29 0;
#X connect 19 0 33 1;
#X connect 20 0 17 0;
#X connect 20 0 31 1;
#X connect 21 0 16 0;
#X connect 21 0 33 3;
#X connect 23 0 36 0;
#X connect 23 0 37 0;
#X connect 23 0 38 0;
#X connect 23 0 39 0;
#X connect 24 0 22 0;
#X connect 24 0 25 0;
#X connect 25 0 26 0;
#X connect 25 0 32 0;
#X connect 26 0 33 4;
#X connect 27 0 29 1;
#X connect 27 1 28 0;
#X connect 28 0 29 0;
#X connect 29 0 33 2;
#X connect 30 0 3 0;
#X connect 31 0 3 0;
#X connect 32 0 33 5;
#X connect 33 0 30 0;
#X connect 33 0 34 0;
#X connect 34 0 2 0;
#X connect 35 0 23 0;
#X connect 36 0 19 0;
#X connect 37 0 21 0;
#X connect 38 0 24 0;
#X connect 38 0 18 0;
#X connect 39 0 20 0;
#X restore 185 63 pd AHDSRenv;
#X obj 155 158 * 6;
#X obj 200 209 *~;
#X obj 181 263 +~;
#X obj 181 289 osc~;
#X obj 200 158 osc~;
#X obj 200 236 *~;
#X obj 181 315 *~;
#X obj 200 131 mtof;
#N canvas 524 244 898 512 AHDSRenv 0;
#X obj 189 32 inlet;
#X obj 219 456 outlet~;
#X obj 245 258 vline~;
#X obj 172 269 vline~;
#X obj 189 57 moses 1;
#X obj 236 383 / 127;
#X obj 245 309 +~ 1;
#X obj 245 284 *~ 9;
#X obj 245 333 log~ 10;
#X obj 220 359 max~;
#X msg 245 229 0 0;
#X obj 219 431 *~;
#X obj 236 407 sig~;
#X obj 172 315 pow~ 4;
#X floatatom 388 391 5 0 0 0 - - -;
#X floatatom 441 391 5 0 0 0 - - -;
#X floatatom 495 391 5 0 0 0 - - -;
#X floatatom 601 391 5 0 0 0 - - -;
#X obj 441 259 i;
#X obj 388 259 i;
#X obj 601 259 i;
#X obj 495 259 i;
#X floatatom 550 391 5 0 0 0 - - -;
#X obj 764 5 bng 15 250 50 0 empty empty empty 17 7 0 10 -262144 -1
-1;
#X obj 550 186 i;
#X obj 542 281 / 100;
#X obj 542 306 pow 0.25;
#X obj 406 283 t f b;
#X obj 438 309 del 1;
#X obj 388 330 +;
#X msg 121 230 1 0 \$2 \, \$5 \$4 \$3;
#X obj 57 230 pack f f;
#X obj 606 306 expr (pow(10 \, $f1)-1)/9;
#X obj 252 202 pack f f f f f f;
#X msg 278 229 1 \$2 \, \$6 0 \$3;
#X obj 791 5 loadbang;
#X msg 440 101 1;
#X msg 505 101 0;
#X msg 537 101 400;
#X msg 473 101 1000;
#X connect 0 0 4 0;
#X connect 2 0 7 0;
#X connect 3 0 13 0;
#X connect 4 0 10 0;
#X connect 4 0 31 0;
#X connect 4 1 5 0;
#X connect 4 1 33 0;
#X connect 5 0 12 0;
#X connect 6 0 8 0;
#X connect 7 0 6 0;
#X connect 8 0 9 1;
#X connect 9 0 11 0;
#X connect 10 0 2 0;
#X connect 11 0 1 0;
#X connect 12 0 11 1;
#X connect 13 0 9 0;
#X connect 18 0 15 0;
#X connect 18 0 27 0;
#X connect 19 0 14 0;
#X connect 19 0 29 0;
#X connect 19 0 33 1;
#X connect 20 0 17 0;
#X connect 20 0 31 1;
#X connect 21 0 16 0;
#X connect 21 0 33 3;
#X connect 23 0 36 0;
#X connect 23 0 39 0;
#X connect 23 0 37 0;
#X connect 23 0 38 0;
#X connect 24 0 22 0;
#X connect 24 0 25 0;
#X connect 25 0 26 0;
#X connect 25 0 32 0;
#X connect 26 0 33 4;
#X connect 27 0 29 1;
#X connect 27 1 28 0;
#X connect 28 0 29 0;
#X connect 29 0 33 2;
#X connect 30 0 3 0;
#X connect 31 0 3 0;
#X connect 32 0 33 5;
#X connect 33 0 30 0;
#X connect 33 0 34 0;
#X connect 34 0 2 0;
#X connect 35 0 23 0;
#X connect 36 0 19 0;
#X connect 37 0 24 0;
#X connect 37 0 18 0;
#X connect 38 0 20 0;
#X connect 39 0 21 0;
#X restore 275 62 pd AHDSRenv;
#X obj 218 183 * 3;
#X obj 200 105 + 60;
#X obj 119 366 +~;
#X obj 119 418 lop~ 5000;
#X obj 119 443 lop~ 5000;
#X obj 120 469 lop~ 5000;
#X obj 119 496 lop~ 5000;
#X obj 119 392 /~ 2;
#X connect 0 0 2 0;
#X connect 2 0 7 0;
#X connect 2 0 21 0;
#X connect 2 1 10 0;
#X connect 2 1 19 0;
#X connect 3 0 9 0;
#X connect 4 0 5 0;
#X connect 5 0 8 0;
#X connect 6 0 3 0;
#X connect 7 0 11 0;
#X connect 7 0 4 0;
#X connect 7 0 6 0;
#X connect 7 0 20 0;
#X connect 7 0 13 0;
#X connect 8 0 22 0;
#X connect 9 0 4 1;
#X connect 10 0 9 1;
#X connect 10 0 8 1;
#X connect 10 0 17 1;
#X connect 11 0 3 1;
#X connect 12 0 16 0;
#X connect 13 0 14 0;
#X connect 14 0 17 0;
#X connect 15 0 12 0;
#X connect 16 0 13 1;
#X connect 17 0 22 1;
#X connect 18 0 15 0;
#X connect 19 0 16 1;
#X connect 20 0 12 1;
#X connect 21 0 18 0;
#X connect 22 0 27 0;
#X connect 23 0 24 0;
#X connect 24 0 25 0;
#X connect 25 0 26 0;
#X connect 26 0 1 0;
#X connect 27 0 23 0;
#X restore 152 138 pd FmEPiano;
#N canvas 0 50 479 571 FmEPiano 0;
#X obj 118 10 inlet;
#X obj 119 525 outlet~;
#X obj 118 38 unpack 0 0;
#X obj 137 184 *~;
#X obj 118 238 +~;
#X obj 118 264 osc~;
#X obj 137 133 osc~;
#X obj 118 103 mtof;
#X obj 118 293 *~;
#X obj 137 211 *~;
#N canvas 524 244 898 512 AHDSRenv 0;
#X obj 189 32 inlet;
#X obj 219 456 outlet~;
#X obj 245 258 vline~;
#X obj 172 269 vline~;
#X obj 189 57 moses 1;
#X obj 236 383 / 127;
#X obj 245 309 +~ 1;
#X obj 245 284 *~ 9;
#X obj 245 333 log~ 10;
#X obj 220 359 max~;
#X msg 245 229 0 0;
#X obj 219 431 *~;
#X obj 236 407 sig~;
#X obj 172 315 pow~ 4;
#X floatatom 388 391 5 0 0 0 - - -;
#X floatatom 441 391 5 0 0 0 - - -;
#X floatatom 495 391 5 0 0 0 - - -;
#X floatatom 601 391 5 0 0 0 - - -;
#X obj 441 259 i;
#X obj 388 259 i;
#X obj 601 259 i;
#X obj 495 259 i;
#X floatatom 550 391 5 0 0 0 - - -;
#X obj 764 5 bng 15 250 50 0 empty empty empty 17 7 0 10 -262144 -1
-1;
#X obj 550 186 i;
#X obj 542 281 / 100;
#X obj 542 306 pow 0.25;
#X obj 406 283 t f b;
#X obj 438 309 del 1;
#X obj 388 330 +;
#X msg 121 230 1 0 \$2 \, \$5 \$4 \$3;
#X obj 57 230 pack f f;
#X obj 606 306 expr (pow(10 \, $f1)-1)/9;
#X obj 252 202 pack f f f f f f;
#X msg 278 229 1 \$2 \, \$6 0 \$3;
#X obj 791 5 loadbang;
#X msg 440 101 1;
#X msg 473 101 8000;
#X msg 505 101 0;
#X msg 537 101 400;
#X connect 0 0 4 0;
#X connect 2 0 7 0;
#X connect 3 0 13 0;
#X connect 4 0 10 0;
#X connect 4 0 31 0;
#X connect 4 1 5 0;
#X connect 4 1 33 0;
#X connect 5 0 12 0;
#X connect 6 0 8 0;
#X connect 7 0 6 0;
#X connect 8 0 9 1;
#X connect 9 0 11 0;
#X connect 10 0 2 0;
#X connect 11 0 1 0;
#X connect 12 0 11 1;
#X connect 13 0 9 0;
#X connect 18 0 15 0;
#X connect 18 0 27 0;
#X connect 19 0 14 0;
#X connect 19 0 29 0;
#X connect 19 0 33 1;
#X connect 20 0 17 0;
#X connect 20 0 31 1;
#X connect 21 0 16 0;
#X connect 21 0 33 3;
#X connect 23 0 36 0;
#X connect 23 0 37 0;
#X connect 23 0 38 0;
#X connect 23 0 39 0;
#X connect 24 0 22 0;
#X connect 24 0 25 0;
#X connect 25 0 26 0;
#X connect 25 0 32 0;
#X connect 26 0 33 4;
#X connect 27 0 29 1;
#X connect 27 1 28 0;
#X connect 28 0 29 0;
#X connect 29 0 33 2;
#X connect 30 0 3 0;
#X connect 31 0 3 0;
#X connect 32 0 33 5;
#X connect 33 0 30 0;
#X connect 33 0 34 0;
#X connect 34 0 2 0;
#X connect 35 0 23 0;
#X connect 36 0 19 0;
#X connect 37 0 21 0;
#X connect 38 0 24 0;
#X connect 38 0 18 0;
#X connect 39 0 20 0;
#X restore 185 63 pd AHDSRenv;
#X obj 155 158 * 6;
#X obj 200 209 *~;
#X obj 181 263 +~;
#X obj 181 289 osc~;
#X obj 200 158 osc~;
#X obj 200 236 *~;
#X obj 181 315 *~;
#X obj 200 131 mtof;
#N canvas 524 244 898 512 AHDSRenv 0;
#X obj 189 32 inlet;
#X obj 219 456 outlet~;
#X obj 245 258 vline~;
#X obj 172 269 vline~;
#X obj 189 57 moses 1;
#X obj 236 383 / 127;
#X obj 245 309 +~ 1;
#X obj 245 284 *~ 9;
#X obj 245 333 log~ 10;
#X obj 220 359 max~;
#X msg 245 229 0 0;
#X obj 219 431 *~;
#X obj 236 407 sig~;
#X obj 172 315 pow~ 4;
#X floatatom 388 391 5 0 0 0 - - -;
#X floatatom 441 391 5 0 0 0 - - -;
#X floatatom 495 391 5 0 0 0 - - -;
#X floatatom 601 391 5 0 0 0 - - -;
#X obj 441 259 i;
#X obj 388 259 i;
#X obj 601 259 i;
#X obj 495 259 i;
#X floatatom 550 391 5 0 0 0 - - -;
#X obj 764 5 bng 15 250 50 0 empty empty empty 17 7 0 10 -262144 -1
-1;
#X obj 550 186 i;
#X obj 542 281 / 100;
#X obj 542 306 pow 0.25;
#X obj 406 283 t f b;
#X obj 438 309 del 1;
#X obj 388 330 +;
#X msg 121 230 1 0 \$2 \, \$5 \$4 \$3;
#X obj 57 230 pack f f;
#X obj 606 306 expr (pow(10 \, $f1)-1)/9;
#X obj 252 202 pack f f f f f f;
#X msg 278 229 1 \$2 \, \$6 0 \$3;
#X obj 791 5 loadbang;
#X msg 440 101 1;
#X msg 505 101 0;
#X msg 537 101 400;
#X msg 473 101 1000;
#X connect 0 0 4 0;
#X connect 2 0 7 0;
#X connect 3 0 13 0;
#X connect 4 0 10 0;
#X connect 4 0 31 0;
#X connect 4 1 5 0;
#X connect 4 1 33 0;
#X connect 5 0 12 0;
#X connect 6 0 8 0;
#X connect 7 0 6 0;
#X connect 8 0 9 1;
#X connect 9 0 11 0;
#X connect 10 0 2 0;
#X connect 11 0 1 0;
#X connect 12 0 11 1;
#X connect 13 0 9 0;
#X connect 18 0 15 0;
#X connect 18 0 27 0;
#X connect 19 0 14 0;
#X connect 19 0 29 0;
#X connect 19 0 33 1;
#X connect 20 0 17 0;
#X connect 20 0 31 1;
#X connect 21 0 16 0;
#X connect 21 0 33 3;
#X connect 23 0 36 0;
#X connect 23 0 39 0;
#X connect 23 0 37 0;
#X connect 23 0 38 0;
#X connect 24 0 22 0;
#X connect 24 0 25 0;
#X connect 25 0 26 0;
#X connect 25 0 32 0;
#X connect 26 0 33 4;
#X connect 27 0 29 1;
#X connect 27 1 28 0;
#X connect 28 0 29 0;
#X connect 29 0 33 2;
#X connect 30 0 3 0;
#X connect 31 0 3 0;
#X connect 32 0 33 5;
#X connect 33 0 30 0;
#X connect 33 0 34 0;
#X connect 34 0 2 0;
#X connect 35 0 23 0;
#X connect 36 0 19 0;
#X connect 37 0 24 0;
#X connect 37 0 18 0;
#X connect 38 0 20 0;
#X connect 39 0 21 0;
#X restore 275 62 pd AHDSRenv;
#X obj 218 183 * 3;
#X obj 200 105 + 60;
#X obj 119 366 +~;
#X obj 119 418 lop~ 5000;
#X obj 119 443 lop~ 5000;
#X obj 120 469 lop~ 5000;
#X obj 119 496 lop~ 5000;
#X obj 119 392 /~ 2;
#X connect 0 0 2 0;
#X connect 2 0 7 0;
#X connect 2 0 21 0;
#X connect 2 1 10 0;
#X connect 2 1 19 0;
#X connect 3 0 9 0;
#X connect 4 0 5 0;
#X connect 5 0 8 0;
#X connect 6 0 3 0;
#X connect 7 0 11 0;
#X connect 7 0 4 0;
#X connect 7 0 6 0;
#X connect 7 0 20 0;
#X connect 7 0 13 0;
#X connect 8 0 22 0;
#X connect 9 0 4 1;
#X connect 10 0 9 1;
#X connect 10 0 8 1;
#X connect 10 0 17 1;
#X connect 11 0 3 1;
#X connect 12 0 16 0;
#X connect 13 0 14 0;
#X connect 14 0 17 0;
#X connect 15 0 12 0;
#X connect 16 0 13 1;
#X connect 17 0 22 1;
#X connect 18 0 15 0;
#X connect 19 0 16 1;
#X connect 20 0 12 1;
#X connect 21 0 18 0;
#X connect 22 0 27 0;
#X connect 23 0 24 0;
#X connect 24 0 25 0;
#X connect 25 0 26 0;
#X connect 26 0 1 0;
#X connect 27 0 23 0;
#X restore 228 163 pd FmEPiano;
#X connect 0 0 4 0;
#X connect 3 0 6 0;
#X connect 4 0 3 0;
#X connect 4 1 3 1;
#X connect 4 2 3 2;
#X connect 5 0 1 0;
#X connect 6 0 34 0;
#X connect 6 1 35 0;
#X connect 6 2 36 0;
#X connect 7 0 5 0;
#X connect 8 0 9 0;
#X connect 9 0 2 0;
#X connect 10 0 11 0;
#X connect 11 0 8 1;
#X connect 12 0 5 0;
#X connect 13 0 9 0;
#X connect 14 0 15 0;
#X connect 15 0 13 1;
#X connect 16 0 5 0;
#X connect 17 0 9 0;
#X connect 18 0 19 0;
#X connect 19 0 17 1;
#X connect 20 0 25 1;
#X connect 21 0 28 1;
#X connect 22 0 31 1;
#X connect 23 0 20 0;
#X connect 23 0 21 0;
#X connect 23 0 22 0;
#X connect 24 0 23 0;
#X connect 25 0 26 0;
#X connect 26 0 27 0;
#X connect 27 0 10 0;
#X connect 27 0 7 1;
#X connect 28 0 29 0;
#X connect 29 0 30 0;
#X connect 30 0 14 0;
#X connect 30 0 12 1;
#X connect 31 0 32 0;
#X connect 32 0 33 0;
#X connect 33 0 18 0;
#X connect 33 0 16 1;
#X connect 34 0 7 0;
#X connect 34 0 8 0;
#X connect 35 0 12 0;
#X connect 35 0 13 0;
#X connect 36 0 16 0;
#X connect 36 0 17 0;
#X restore 160 281 pd chords;
#X obj 83 132 bng 30 250 50 0 disable empty all_note_off -13 37 0 10
-260097 -1 -1;
#X obj 82 74 tgl 30 0 lega rlega legato 0 37 0 10 -232576 -1 -1 1 1
;
#X obj 26 131 tgl 30 1 ygt rygt Y_hold 0 37 0 10 -203904 -1 -1 1 1
;
#X obj 28 73 tgl 30 1 xgt rxgt X_hold 0 37 0 10 -203904 -1 -1 1 1;
#N canvas 0 50 450 406 xy_gate 0;
#X obj 92 18 inlet;
#X obj 93 358 outlet;
#X obj 92 53 route x y;
#X obj 94 295 switch;
#X obj 163 295 switch;
#X msg 163 326 y \$1;
#X msg 93 326 x \$1;
#X obj 169 22 r xgt;
#X obj 169 101 + 1;
#X obj 234 101 + 1;
#X obj 234 22 r ygt;
#X obj 113 267 switch;
#X obj 182 267 switch;
#X obj 174 132 r xtg;
#X obj 246 134 r ytg;
#X obj 208 212 del 1;
#X obj 137 211 del 1;
#X obj 201 238 f;
#X obj 132 238 f;
#X obj 170 158 sel 0 1;
#X msg 170 183 1, f 2;
#X msg 194 183 0, f 2;
#X obj 238 159 sel 0 1;
#X msg 238 184 1, f 2;
#X msg 262 184 0, f 2;
#X obj 169 49 sel 0 1;
#X msg 169 74 1, f 2;
#X msg 193 74 0, f 2;
#X obj 234 47 sel 0 1;
#X msg 234 72 1, f 2;
#X msg 258 72 0, f 2;
#X obj 333 143 loadbang;
#X connect 0 0 2 0;
#X connect 2 0 3 2;
#X connect 2 0 18 0;
#X connect 2 1 4 2;
#X connect 2 1 17 0;
#X connect 3 0 6 0;
#X connect 4 0 5 0;
#X connect 5 0 1 0;
#X connect 6 0 1 0;
#X connect 7 0 25 0;
#X connect 8 0 3 0;
#X connect 9 0 4 0;
#X connect 10 0 28 0;
#X connect 11 0 3 1;
#X connect 12 0 4 1;
#X connect 13 0 19 0;
#X connect 14 0 22 0;
#X connect 15 0 17 0;
#X connect 16 0 18 0;
#X connect 17 0 12 1;
#X connect 18 0 11 1;
#X connect 19 0 20 0;
#X connect 19 1 21 0;
#X connect 20 0 11 0;
#X connect 20 0 16 0;
#X connect 21 0 11 0;
#X connect 22 0 23 0;
#X connect 22 1 24 0;
#X connect 23 0 12 0;
#X connect 23 0 15 0;
#X connect 24 0 12 0;
#X connect 25 0 26 0;
#X connect 25 1 27 0;
#X connect 26 0 8 0;
#X connect 27 0 8 0;
#X connect 28 0 29 0;
#X connect 28 1 30 0;
#X connect 29 0 9 0;
#X connect 30 0 9 0;
#X connect 31 0 23 0;
#X connect 31 0 20 0;
#X restore 160 174 pd xy_gate;
#N canvas 732 230 450 300 def 0;
#X obj 111 23 loadbang;
#X obj 57 161 s rlega;
#X obj 121 162 s rxgt;
#X obj 176 162 s rygt;
#X msg 120 112 1, f 2;
#X text 188 76 controls defaults;
#X obj 112 70 del 1000;
#X connect 0 0 6 0;
#X connect 4 0 1 0;
#X connect 4 0 2 0;
#X connect 4 0 3 0;
#X connect 6 0 4 0;
#X restore 48 19 pd def;
#X obj 353 315 loadbang;
#X obj 345 356 del 3000;
#X msg 331 415 0.9;
#N canvas 567 165 469 343 verb2 0;
#X obj 92 27 inlet~;
#X obj 89 230 outlet~;
#X obj 200 26 inlet~;
#X obj 154 231 outlet~;
#X obj 90 186 *~;
#X obj 153 187 *~;
#X obj 120 187 *~;
#X obj 183 188 *~;
#X obj 90 207 +~;
#X obj 154 208 +~;
#N canvas 0 50 450 300 mix 0;
#X obj 94 22 inlet;
#X obj 253 21 inlet;
#X floatatom 242 57 5 0 0 0 - - -;
#X obj 99 59 sel 0 1;
#X obj 126 82 t b;
#X msg 99 139 1;
#X msg 132 138 0;
#X obj 238 85 spigot;
#X obj 183 63 del 1;
#X obj 242 107 / 127;
#X text 70 226 dry;
#X text 326 225 wet;
#X obj 200 140 * -1;
#X obj 129 164 + 1;
#X msg 164 87 1;
#X text 66 20 on;
#X text 298 23 mix;
#X obj 99 207 vline~;
#X obj 99 229 outlet~;
#X obj 274 229 outlet~;
#X obj 274 203 vline~;
#X msg 99 186 \$1 2;
#X msg 274 181 \$1 2;
#X floatatom 48 176 5 0 0 0 - - -;
#X floatatom 320 182 5 0 0 0 - - -;
#X connect 0 0 3 0;
#X connect 1 0 2 0;
#X connect 2 0 7 0;
#X connect 3 0 5 0;
#X connect 3 0 6 0;
#X connect 3 1 4 0;
#X connect 3 1 14 0;
#X connect 4 0 8 0;
#X connect 5 0 21 0;
#X connect 5 0 23 0;
#X connect 6 0 7 1;
#X connect 6 0 22 0;
#X connect 6 0 24 0;
#X connect 7 0 9 0;
#X connect 8 0 2 0;
#X connect 9 0 12 0;
#X connect 9 0 22 0;
#X connect 9 0 24 0;
#X connect 12 0 13 0;
#X connect 13 0 21 0;
#X connect 13 0 23 0;
#X connect 14 0 7 1;
#X connect 17 0 18 0;
#X connect 20 0 19 0;
#X connect 21 0 17 0;
#X connect 22 0 20 0;
#X restore 105 154 pd mix;
#X obj 104 99 +~;
#X obj 229 99 +~;
#X obj 276 112 hsl 128 15 0 127 0 0 empty vram mix -2 -8 0 10 -262144
-1 -1 3000 1;
#X obj 48 118 tgl 15 0 empty empty on 17 7 0 10 -262144 -1 -1 1 1;
#X obj 321 5 loadbang;
#X obj 105 71 rev2~ 100 90 3000 50;
#X obj 245 70 rev2~ 100 90 3000 50;
#X msg 144 40 1;
#X msg 274 34 30;
#X connect 0 0 4 0;
#X connect 0 0 16 0;
#X connect 2 0 5 0;
#X connect 2 0 17 0;
#X connect 4 0 8 0;
#X connect 5 0 9 0;
#X connect 6 0 8 1;
#X connect 7 0 9 1;
#X connect 8 0 1 0;
#X connect 9 0 3 0;
#X connect 10 0 4 1;
#X connect 10 0 5 1;
#X connect 10 1 7 1;
#X connect 10 1 6 1;
#X connect 11 0 6 0;
#X connect 12 0 7 0;
#X connect 13 0 10 1;
#X connect 14 0 10 0;
#X connect 15 0 19 0;
#X connect 15 0 18 0;
#X connect 16 0 11 0;
#X connect 16 1 12 0;
#X connect 17 0 12 1;
#X connect 17 1 11 1;
#X connect 18 0 14 0;
#X connect 19 0 13 0;
#X restore 159 389 pd verb2;
#X connect 0 0 20 0;
#X connect 1 0 2 0;
#X connect 2 0 0 0;
#X connect 3 0 15 0;
#X connect 4 0 3 1;
#X connect 4 1 13 1;
#X connect 4 2 14 1;
#X connect 4 3 3 2;
#X connect 4 3 13 2;
#X connect 4 3 14 2;
#X connect 6 0 25 0;
#X connect 6 1 25 1;
#X connect 7 0 6 0;
#X connect 7 1 6 1;
#X connect 8 0 3 3;
#X connect 8 0 13 3;
#X connect 8 0 14 3;
#X connect 9 0 11 0;
#X connect 10 0 1 0;
#X connect 10 1 9 0;
#X connect 11 0 0 0;
#X connect 12 0 10 0;
#X connect 13 0 6 0;
#X connect 13 0 6 1;
#X connect 14 0 7 1;
#X connect 14 0 7 0;
#X connect 15 0 7 0;
#X connect 15 1 7 1;
#X connect 20 0 14 0;
#X connect 20 0 3 0;
#X connect 20 0 13 0;
#X connect 22 0 23 0;
#X connect 23 0 24 0;
#X connect 24 0 5 2;
#X connect 25 0 5 0;
#X connect 25 1 5 1;
