#N canvas 796 66 549 579 10;
#X obj 85 53 vsl 15 128 0 127 0 0 empty empty empty 0 -9 0 10 -262144
-1 -1 12700 1;
#X obj 108 189 hsl 128 15 0 127 0 0 empty empty empty -2 -8 0 10 -262144
-1 -1 0 1;
#N canvas 0 50 450 300 gemwin 0;
#X obj 67 89 outlet;
#X obj 67 10 inlet;
#X obj 67 41 route create;
#X msg 67 70 set destroy;
#X msg 155 70 set create;
#X msg 197 134 destroy;
#X msg 132 112 reset \, dimen 1920 1080 \, create \, 1;
#X obj 132 136 gemwin 30;
#X connect 1 0 2 0;
#X connect 2 0 3 0;
#X connect 2 0 6 0;
#X connect 2 1 4 0;
#X connect 2 1 5 0;
#X connect 3 0 0 0;
#X connect 4 0 0 0;
#X connect 5 0 7 0;
#X connect 6 0 7 0;
#X restore 337 489 pd gemwin;
#X msg 337 470 create;
#X obj 16 482 out~;
#N canvas 0 50 450 250 (subpatch) 0;
#X array array924 100 float 4;
#X coords 0 1 100 -1 200 140 1;
#X restore 258 307 graph;
#X obj 115 482 tabwrite~ array924;
#X obj 131 423 tgl 20 0 empty empty empty 17 7 0 10 -262144 -13381
-1 0 1;
#X obj 131 458 metro 20;
#N canvas 0 50 450 442 quad-max-ctrl 0;
#X obj 76 43 inlet;
#X obj 275 43 inlet;
#X text 147 16 inlets range 0-127;
#X text 116 42 x;
#X text 317 42 y;
#X obj 233 75 / 127;
#X obj 69 160 t b f;
#X obj 63 179 *;
#X obj 63 224 * 127;
#X obj 144 159 t b f;
#X obj 138 178 *;
#X obj 138 223 * 127;
#X obj 206 160 t b f;
#X obj 200 179 *;
#X obj 200 224 * 127;
#X obj 280 159 t b f;
#X obj 274 178 *;
#X obj 274 223 * 127;
#X obj 63 75 / 127;
#X obj 270 75 expr ($f1*-1+127)/127;
#X obj 100 75 expr ($f1*-1+127)/127;
#X obj 63 202 *;
#X obj 138 201 *;
#X obj 200 202 *;
#X obj 274 201 *;
#X obj 93 262 max;
#X obj 228 261 max;
#X obj 148 299 max;
#X obj 148 346 outlet;
#X connect 0 0 18 0;
#X connect 0 0 20 0;
#X connect 1 0 5 0;
#X connect 1 0 19 0;
#X connect 5 0 7 0;
#X connect 5 0 10 0;
#X connect 6 0 7 0;
#X connect 6 1 7 1;
#X connect 7 0 21 0;
#X connect 7 0 21 1;
#X connect 8 0 25 0;
#X connect 9 0 10 0;
#X connect 9 1 10 1;
#X connect 10 0 22 0;
#X connect 10 0 22 1;
#X connect 11 0 25 1;
#X connect 12 0 13 0;
#X connect 12 1 13 1;
#X connect 13 0 23 0;
#X connect 13 0 23 1;
#X connect 14 0 26 0;
#X connect 15 0 16 0;
#X connect 15 1 16 1;
#X connect 16 0 24 0;
#X connect 16 0 24 1;
#X connect 17 0 26 1;
#X connect 18 0 9 0;
#X connect 18 0 15 0;
#X connect 19 0 13 0;
#X connect 19 0 16 0;
#X connect 20 0 6 0;
#X connect 20 0 12 0;
#X connect 21 0 8 0;
#X connect 22 0 11 0;
#X connect 23 0 14 0;
#X connect 24 0 17 0;
#X connect 25 0 27 0;
#X connect 26 0 27 1;
#X connect 27 0 28 0;
#X restore 105 230 pd quad-max-ctrl;
#N canvas 541 50 450 476 contort 0;
#X obj 325 26 inlet;
#X obj 181 21 inlet;
#X floatatom 206 94 5 0 0 0 - - -, f 5;
#X floatatom 338 97 5 0 0 0 - - -, f 5;
#X obj 267 212 &&;
#X obj 256 100 == 0;
#X obj 209 123 == 0;
#X obj 310 212 &&;
#X obj 181 213 &&;
#X obj 224 212 &&;
#X obj 181 364 outlet;
#X msg 267 326 2;
#X obj 130 130 tgl 30 0 empty empty empty 17 7 0 10 -262144 -4160 -1
0 1;
#X obj 130 100 tgl 30 0 empty empty empty 17 7 0 10 -262144 -4160 -1
0 1;
#X obj 100 130 tgl 30 0 empty empty empty 17 7 0 10 -262144 -4160 -1
0 1;
#X obj 100 100 tgl 30 0 empty empty empty 17 7 0 10 -262144 -4160 -1
1 1;
#X obj 352 146 del 2;
#X obj 325 123 t f b;
#X obj 283 152 del 2;
#X obj 256 129 t f b;
#X obj 181 260 sel 1;
#X obj 224 260 sel 1;
#X obj 267 259 sel 1;
#X obj 310 259 sel 1;
#X obj 181 70 > 64;
#X obj 325 75 > 64;
#X msg 224 326 1;
#X msg 310 325 0;
#X msg 181 326 3;
#X connect 0 0 25 0;
#X connect 1 0 24 0;
#X connect 4 0 14 0;
#X connect 4 0 22 0;
#X connect 5 0 19 0;
#X connect 6 0 4 0;
#X connect 6 0 7 0;
#X connect 7 0 15 0;
#X connect 7 0 23 0;
#X connect 8 0 12 0;
#X connect 8 0 20 0;
#X connect 9 0 13 0;
#X connect 9 0 21 0;
#X connect 11 0 10 0;
#X connect 16 0 7 0;
#X connect 16 0 9 0;
#X connect 17 0 7 1;
#X connect 17 0 9 1;
#X connect 17 1 16 0;
#X connect 18 0 8 0;
#X connect 18 0 4 0;
#X connect 19 0 4 1;
#X connect 19 0 8 1;
#X connect 19 1 18 0;
#X connect 20 0 28 0;
#X connect 21 0 26 0;
#X connect 22 0 11 0;
#X connect 23 0 27 0;
#X connect 24 0 2 0;
#X connect 24 0 6 0;
#X connect 24 0 8 0;
#X connect 24 0 9 0;
#X connect 25 0 3 0;
#X connect 25 0 5 0;
#X connect 25 0 17 0;
#X connect 26 0 10 0;
#X connect 27 0 10 0;
#X connect 28 0 10 0;
#X coords 0 -1 1 1 60 60 2 100 100;
#X restore 32 204 pd contort;
#N canvas 483 166 603 380 chord-ctrl 0;
#X obj 215 24 inlet;
#X obj 203 49 sel 0 1 2 3;
#X msg 128 207 1 \$1;
#X msg 222 207 2 \$1;
#X msg 341 206 3 \$1;
#X text 58 45 I-V-VI-IV;
#X obj 222 255 outlet;
#X obj 128 183 + 60;
#X msg 25 117 0;
#X msg 54 117 4;
#X obj 222 183 + 60;
#X obj 342 183 + 60;
#X msg 83 117 7;
#X msg 135 117 7;
#X msg 164 117 11;
#X msg 193 117 14;
#X msg 250 116 9;
#X msg 279 116 12;
#X msg 308 116 16;
#X msg 360 116 5;
#X msg 389 116 9;
#X msg 418 116 12;
#X floatatom 403 53 5 0 0 1 root_note - -, f 5;
#X obj 403 5 loadbang;
#X msg 403 28 60;
#X obj 441 28 notein 1;
#X connect 0 0 1 0;
#X connect 1 0 8 0;
#X connect 1 0 9 0;
#X connect 1 0 12 0;
#X connect 1 1 13 0;
#X connect 1 1 14 0;
#X connect 1 1 15 0;
#X connect 1 2 16 0;
#X connect 1 2 17 0;
#X connect 1 2 18 0;
#X connect 1 3 19 0;
#X connect 1 3 20 0;
#X connect 1 3 21 0;
#X connect 2 0 6 0;
#X connect 3 0 6 0;
#X connect 4 0 6 0;
#X connect 7 0 2 0;
#X connect 8 0 7 0;
#X connect 9 0 10 0;
#X connect 10 0 3 0;
#X connect 11 0 4 0;
#X connect 12 0 11 0;
#X connect 13 0 7 0;
#X connect 14 0 10 0;
#X connect 15 0 11 0;
#X connect 16 0 7 0;
#X connect 17 0 10 0;
#X connect 18 0 11 0;
#X connect 19 0 7 0;
#X connect 20 0 10 0;
#X connect 21 0 11 0;
#X connect 22 0 11 1;
#X connect 22 0 10 1;
#X connect 22 0 7 1;
#X connect 23 0 24 0;
#X connect 24 0 22 0;
#X connect 25 0 22 0;
#X coords 0 -1 1 1 40 20 2 400 50;
#X restore 17 345 pd chord-ctrl;
#N canvas 79 280 638 436 ply-snth 0;
#X obj 130 26 inlet;
#X obj 110 62 route 1 2 3;
#X obj 354 23 inlet;
#X obj 77 378 outlet~;
#X obj 158 378 outlet~;
#N canvas 255 50 457 490 snth-vce 0;
#X obj 94 56 inlet;
#X obj 94 293 triangle~;
#X obj 94 271 phasor~;
#X obj 94 230 +~;
#X obj 94 250 mtof~;
#X obj 185 138 osc~ 1;
#X obj 185 159 /~ 8;
#X obj 170 190 *~;
#X obj 140 76 change;
#X obj 140 96 t b;
#X obj 140 138 vline~;
#X obj 94 99 vline~;
#X obj 92 425 outlet~;
#X obj 282 53 inlet~;
#X msg 140 116 0 10 \, 1 100 10;
#X obj 93 345 bob~;
#X msg 94 77 \$1 200;
#X obj 92 389 *~;
#X obj 198 348 vline~;
#X obj 352 53 inlet;
#X obj 262 194 / 127;
#X obj 262 279 + 50;
#X obj 262 237 *;
#X obj 277 215 t f b;
#X obj 262 258 * 950;
#X msg 198 323 1 50 \, 0.2 \$1 50;
#X obj 314 122 r env_rel;
#X obj 299 148 f;
#X obj 299 98 t b;
#X obj 146 272 vline~;
#X msg 146 250 0.5 50 \, 0.2 \$1 50;
#X connect 0 0 16 0;
#X connect 0 0 8 0;
#X connect 1 0 15 0;
#X connect 2 0 1 0;
#X connect 3 0 4 0;
#X connect 4 0 2 0;
#X connect 5 0 6 0;
#X connect 6 0 7 1;
#X connect 7 0 3 1;
#X connect 8 0 9 0;
#X connect 9 0 14 0;
#X connect 10 0 7 0;
#X connect 11 0 3 0;
#X connect 13 0 15 1;
#X connect 14 0 10 0;
#X connect 15 0 17 0;
#X connect 16 0 11 0;
#X connect 17 0 12 0;
#X connect 18 0 17 1;
#X connect 19 0 28 0;
#X connect 20 0 23 0;
#X connect 20 0 22 0;
#X connect 21 0 25 0;
#X connect 21 0 30 0;
#X connect 22 0 24 0;
#X connect 23 0 22 1;
#X connect 23 1 22 0;
#X connect 24 0 21 0;
#X connect 25 0 18 0;
#X connect 26 0 27 1;
#X connect 27 0 20 0;
#X connect 28 0 27 0;
#X connect 29 0 1 1;
#X connect 30 0 29 0;
#X restore 76 98 pd snth-vce;
#X obj 77 274 tanh~;
#X text 391 24 gate_trig;
#X text 268 43 fltr-ctrl;
#N canvas 820 341 456 300 sub 0;
#X obj 163 18 inlet;
#X obj 164 236 outlet~;
#X obj 163 40 - 24;
#X obj 163 66 sig~;
#X obj 196 65 mtof;
#X text 263 162 hard_sync_master;
#X text 80 191 synced_slave;
#N canvas 618 234 579 496 osc 0;
#X obj 83 206 *~;
#X msg 202 125 set 1;
#X obj 202 102 loadbang;
#X obj 83 243 phasor~;
#X obj 83 74 inlet~;
#X obj 123 414 cos~;
#X obj 123 370 +~;
#X obj 84 313 -~;
#X obj 324 73 inlet~;
#X obj 139 73 inlet~;
#X obj 123 450 outlet~;
#X obj 192 73 inlet~;
#X obj 99 285 fexpr~ if($x2[0] > 0 \, $x1[0] \, $y1[-1]);
#X obj 192 155 fexpr~ if($x1[0] == 1 \, -$y1[-1] \, $y1[-1]);
#X text 342 286 gate/hold;
#X text 453 154 Toggle switch;
#X text 86 50 freq;
#X text 141 48 phase;
#X text 191 48 soft sync;
#X text 319 48 hard sync;
#X obj 210 450 outlet~;
#X obj 210 419 cos~;
#X obj 334 398 vline~;
#X obj 210 393 -~;
#X msg 334 374 \$1 50;
#X obj 412 295 tgl 25 0 empty empty stereo 17 7 0 10 -262144 -1 -1
1 1;
#X obj 382 337 / 4;
#X obj 450 233 loadbang;
#X msg 450 261 1;
#X connect 0 0 3 0;
#X connect 1 0 13 0;
#X connect 2 0 1 0;
#X connect 3 0 7 0;
#X connect 3 0 12 0;
#X connect 4 0 0 0;
#X connect 5 0 10 0;
#X connect 6 0 5 0;
#X connect 6 0 23 0;
#X connect 7 0 6 0;
#X connect 8 0 12 1;
#X connect 9 0 6 1;
#X connect 11 0 13 0;
#X connect 12 0 7 1;
#X connect 13 0 0 1;
#X connect 21 0 20 0;
#X connect 22 0 23 1;
#X connect 23 0 21 0;
#X connect 24 0 22 0;
#X connect 25 0 26 0;
#X connect 26 0 24 0;
#X connect 27 0 28 0;
#X connect 28 0 25 0;
#X restore 163 191 pd osc;
#N canvas 0 50 450 300 impulse 0;
#X obj 110 16 inlet;
#X obj 111 210 outlet~;
#X obj 110 53 sig~;
#X obj 110 89 *~ 0.5;
#N canvas 0 50 450 300 square 0;
#X obj 99 33 inlet~;
#X obj 99 66 phasor~;
#X obj 99 99 expr~ $v1 > 0.5;
#X obj 99 137 outlet~;
#X connect 0 0 1 0;
#X connect 1 0 2 0;
#X connect 2 0 3 0;
#X restore 110 122 pd square;
#X obj 111 165 fexpr~ $x1[0] !=$x1[-1];
#X connect 0 0 2 0;
#X connect 2 0 3 0;
#X connect 3 0 4 0;
#X connect 4 0 5 0;
#X connect 5 0 1 0;
#X restore 196 163 pd impulse;
#X obj 221 237 outlet~;
#X obj 90 92 *~ 7;
#X obj 157 157 mtof~;
#X obj 147 114 +~;
#X obj 90 68 osc~ 0.125;
#X connect 0 0 2 0;
#X connect 2 0 4 0;
#X connect 2 0 3 0;
#X connect 3 0 12 1;
#X connect 4 0 8 0;
#X connect 7 0 1 0;
#X connect 7 1 9 0;
#X connect 8 0 7 3;
#X connect 10 0 12 0;
#X connect 11 0 7 0;
#X connect 12 0 11 0;
#X connect 13 0 10 0;
#X restore 248 215 pd sub;
#X obj 77 221 expr~ $v1 +$v2 +$v3;
#X obj 77 338 +~;
#X obj 158 338 +~;
#X obj 158 358 tanh~;
#X obj 77 358 tanh~;
#N canvas 602 116 737 478 MDChorus2 0;
#X obj 19 27 inlet~;
#X obj 81 28 inlet~;
#X obj 22 441 outlet~;
#X obj 85 442 outlet~;
#X obj 21 399 *~;
#X obj 84 400 *~;
#X obj 51 400 *~;
#X obj 114 401 *~;
#X obj 477 373 hsl 128 15 0 127 0 0 empty empty mix -2 -8 0 10 -262144
-1 -1 4200 1;
#X floatatom 525 417 5 0 0 0 - - -, f 5;
#X obj 473 416 * -1;
#X obj 471 440 + 1;
#X obj 112 58 delwrite~ chrstR 1000;
#X obj 97 84 delwrite~ chrstL 1000;
#X obj 402 147 cos~;
#X obj 402 173 +~ 1;
#X obj 402 200 *~ 0.5;
#X obj 402 277 *~;
#X obj 662 88 vsl 15 128 0 127 0 0 empty empty depth 0 -9 0 10 -262144
-1 -1 5000 1;
#X obj 619 225 / 4.23333;
#X obj 619 245 + 20;
#X obj 402 327 vd~ chrstR;
#X obj 403 87 phasor~ 2;
#X obj 368 17 hsl 128 15 0 127 0 0 empty empty speed -2 -8 0 10 -262144
-1 -1 1600 1;
#X obj 501 146 cos~;
#X obj 501 172 +~ 1;
#X obj 501 199 *~ 0.5;
#X obj 501 276 *~;
#X obj 501 326 vd~ chrstR;
#X obj 603 147 cos~;
#X obj 603 173 +~ 1;
#X obj 603 200 *~ 0.5;
#X obj 603 277 *~;
#X obj 603 327 vd~ chrstR;
#X obj 480 121 +~ 0.33;
#X obj 585 122 +~ 0.66;
#X obj 114 185 *~ -1;
#X obj 212 185 *~ -1;
#X obj 311 185 *~ -1;
#X obj 112 209 +~ 1;
#X obj 112 236 *~ 0.5;
#X obj 111 269 *~;
#X obj 211 208 +~ 1;
#X obj 211 235 *~ 0.5;
#X obj 210 268 *~;
#X obj 313 209 +~ 1;
#X obj 313 236 *~ 0.5;
#X obj 312 269 *~;
#X obj 112 329 vd~ chrstL;
#X obj 212 329 vd~ chrstL;
#X obj 313 327 vd~ chrstL;
#X floatatom 363 65 5 0 0 0 - - -, f 5;
#X floatatom 660 275 5 0 0 0 - - -, f 5;
#X obj 475 394 / 127;
#X obj 402 357 *~ 0.5;
#X obj 112 359 *~ 0.5;
#N canvas 0 50 450 300 math 0;
#X obj 125 70 / 127;
#X obj 125 91 t f f;
#X obj 125 115 *;
#X obj 125 136 * 10;
#X obj 125 158 + 0.01;
#X obj 125 27 inlet;
#X obj 134 253 outlet;
#X connect 0 0 1 0;
#X connect 1 0 2 0;
#X connect 1 1 2 1;
#X connect 2 0 3 0;
#X connect 3 0 4 0;
#X connect 4 0 6 0;
#X connect 5 0 0 0;
#X restore 365 38 pd math;
#X obj 236 120 sel 1;
#X obj 236 91 tgl 15 0 empty empty mono 17 7 0 10 -262144 -1 -1 0 1
;
#X msg 235 143 1;
#X msg 264 144 -1;
#X obj 402 301 +~ 1;
#X obj 500 301 +~ 1;
#X obj 602 303 +~ 1;
#X obj 313 299 +~ 1;
#X obj 211 298 +~ 1;
#X obj 111 298 +~ 1;
#X obj 403 63 sig~;
#X obj 413 243 sig~;
#X obj 240 9 loadbang;
#X obj 248 31 bng 15 250 50 0 empty empty default 17 7 0 10 -262144
-1 -1;
#X msg 325 120 42;
#X msg 310 81 50;
#X msg 248 64 0;
#X obj 21 420 +~;
#X obj 85 421 +~;
#X msg 305 48 16;
#X connect 0 0 4 0;
#X connect 0 0 13 0;
#X connect 1 0 5 0;
#X connect 1 0 12 0;
#X connect 4 0 74 0;
#X connect 5 0 75 0;
#X connect 6 0 74 1;
#X connect 7 0 75 1;
#X connect 8 0 53 0;
#X connect 10 0 11 0;
#X connect 11 0 5 1;
#X connect 11 0 4 1;
#X connect 14 0 15 0;
#X connect 14 0 36 0;
#X connect 15 0 16 0;
#X connect 16 0 17 0;
#X connect 17 0 61 0;
#X connect 18 0 19 0;
#X connect 19 0 20 0;
#X connect 20 0 52 0;
#X connect 20 0 68 0;
#X connect 21 0 54 0;
#X connect 22 0 14 0;
#X connect 22 0 34 0;
#X connect 22 0 35 0;
#X connect 23 0 56 0;
#X connect 24 0 25 0;
#X connect 24 0 37 0;
#X connect 25 0 26 0;
#X connect 26 0 27 0;
#X connect 27 0 62 0;
#X connect 28 0 54 0;
#X connect 29 0 30 0;
#X connect 29 0 38 0;
#X connect 30 0 31 0;
#X connect 31 0 32 0;
#X connect 32 0 63 0;
#X connect 33 0 54 0;
#X connect 34 0 24 0;
#X connect 35 0 29 0;
#X connect 36 0 39 0;
#X connect 37 0 42 0;
#X connect 38 0 45 0;
#X connect 39 0 40 0;
#X connect 40 0 41 0;
#X connect 41 0 66 0;
#X connect 42 0 43 0;
#X connect 43 0 44 0;
#X connect 44 0 65 0;
#X connect 45 0 46 0;
#X connect 46 0 47 0;
#X connect 47 0 64 0;
#X connect 48 0 55 0;
#X connect 49 0 55 0;
#X connect 50 0 55 0;
#X connect 53 0 7 1;
#X connect 53 0 6 1;
#X connect 53 0 10 0;
#X connect 53 0 9 0;
#X connect 54 0 7 0;
#X connect 55 0 6 0;
#X connect 56 0 51 0;
#X connect 56 0 67 0;
#X connect 57 0 59 0;
#X connect 57 1 60 0;
#X connect 58 0 57 0;
#X connect 59 0 36 1;
#X connect 59 0 37 1;
#X connect 59 0 38 1;
#X connect 60 0 36 1;
#X connect 60 0 37 1;
#X connect 60 0 38 1;
#X connect 61 0 21 0;
#X connect 62 0 28 0;
#X connect 63 0 33 0;
#X connect 64 0 50 0;
#X connect 65 0 49 0;
#X connect 66 0 48 0;
#X connect 67 0 22 0;
#X connect 68 0 32 1;
#X connect 68 0 27 1;
#X connect 68 0 47 1;
#X connect 68 0 44 1;
#X connect 68 0 41 1;
#X connect 68 0 17 1;
#X connect 69 0 70 0;
#X connect 70 0 76 0;
#X connect 70 0 71 0;
#X connect 70 0 72 0;
#X connect 70 0 73 0;
#X connect 71 0 8 0;
#X connect 72 0 18 0;
#X connect 73 0 58 0;
#X connect 74 0 2 0;
#X connect 75 0 3 0;
#X connect 76 0 23 0;
#X restore 78 303 pd MDChorus2;
#X obj 258 22 inlet~;
#X obj 249 262 bob~;
#X obj 285 262 bob~;
#X obj 327 116 vline~;
#X obj 305 162 /~ 2;
#X obj 78 247 *~;
#X obj 248 292 *~;
#X obj 279 292 *~;
#X obj 352 163 /~ 4;
#X msg 327 88 0.25 5 \, 1 500 5;
#X obj 348 45 change;
#X obj 332 65 t b;
#X obj 548 24 inlet;
#X obj 475 71 i;
#X obj 508 71 + 1;
#X obj 475 48 t b;
#X obj 475 95 % 3;
#X obj 475 117 sel 0 1 2;
#N canvas 255 50 457 490 snth-vce 0;
#X obj 94 56 inlet;
#X obj 94 293 triangle~;
#X obj 94 271 phasor~;
#X obj 94 230 +~;
#X obj 94 250 mtof~;
#X obj 185 138 osc~ 1;
#X obj 185 159 /~ 8;
#X obj 170 190 *~;
#X obj 140 76 change;
#X obj 140 96 t b;
#X obj 140 138 vline~;
#X obj 94 99 vline~;
#X obj 92 425 outlet~;
#X obj 282 53 inlet~;
#X msg 140 116 0 10 \, 1 100 10;
#X obj 93 345 bob~;
#X msg 94 77 \$1 200;
#X obj 92 389 *~;
#X obj 198 348 vline~;
#X obj 352 53 inlet;
#X obj 262 194 / 127;
#X obj 262 279 + 50;
#X obj 262 237 *;
#X obj 277 215 t f b;
#X obj 262 258 * 950;
#X msg 198 323 1 50 \, 0.2 \$1 50;
#X obj 314 122 r env_rel;
#X obj 299 148 f;
#X obj 299 98 t b;
#X obj 146 272 vline~;
#X msg 146 250 0.5 50 \, 0.2 \$1 50;
#X connect 0 0 16 0;
#X connect 0 0 8 0;
#X connect 1 0 15 0;
#X connect 2 0 1 0;
#X connect 3 0 4 0;
#X connect 4 0 2 0;
#X connect 5 0 6 0;
#X connect 6 0 7 1;
#X connect 7 0 3 1;
#X connect 8 0 9 0;
#X connect 9 0 14 0;
#X connect 10 0 7 0;
#X connect 11 0 3 0;
#X connect 13 0 15 1;
#X connect 14 0 10 0;
#X connect 15 0 17 0;
#X connect 16 0 11 0;
#X connect 17 0 12 0;
#X connect 18 0 17 1;
#X connect 19 0 28 0;
#X connect 20 0 23 0;
#X connect 20 0 22 0;
#X connect 21 0 25 0;
#X connect 21 0 30 0;
#X connect 22 0 24 0;
#X connect 23 0 22 1;
#X connect 23 1 22 0;
#X connect 24 0 21 0;
#X connect 25 0 18 0;
#X connect 26 0 27 1;
#X connect 27 0 20 0;
#X connect 28 0 27 0;
#X connect 29 0 1 1;
#X connect 30 0 29 0;
#X restore 132 134 pd snth-vce;
#N canvas 255 50 457 490 snth-vce 0;
#X obj 94 56 inlet;
#X obj 94 293 triangle~;
#X obj 94 271 phasor~;
#X obj 94 230 +~;
#X obj 94 250 mtof~;
#X obj 185 138 osc~ 1;
#X obj 185 159 /~ 8;
#X obj 170 190 *~;
#X obj 140 76 change;
#X obj 140 96 t b;
#X obj 140 138 vline~;
#X obj 94 99 vline~;
#X obj 92 425 outlet~;
#X obj 282 53 inlet~;
#X msg 140 116 0 10 \, 1 100 10;
#X obj 93 345 bob~;
#X msg 94 77 \$1 200;
#X obj 92 389 *~;
#X obj 198 348 vline~;
#X obj 352 53 inlet;
#X obj 262 194 / 127;
#X obj 262 279 + 50;
#X obj 262 237 *;
#X obj 277 215 t f b;
#X obj 262 258 * 950;
#X msg 198 323 1 50 \, 0.2 \$1 50;
#X obj 314 122 r env_rel;
#X obj 299 148 f;
#X obj 299 98 t b;
#X obj 146 272 vline~;
#X msg 146 250 0.5 50 \, 0.2 \$1 50;
#X connect 0 0 16 0;
#X connect 0 0 8 0;
#X connect 1 0 15 0;
#X connect 2 0 1 0;
#X connect 3 0 4 0;
#X connect 4 0 2 0;
#X connect 5 0 6 0;
#X connect 6 0 7 1;
#X connect 7 0 3 1;
#X connect 8 0 9 0;
#X connect 9 0 14 0;
#X connect 10 0 7 0;
#X connect 11 0 3 0;
#X connect 13 0 15 1;
#X connect 14 0 10 0;
#X connect 15 0 17 0;
#X connect 16 0 11 0;
#X connect 17 0 12 0;
#X connect 18 0 17 1;
#X connect 19 0 28 0;
#X connect 20 0 23 0;
#X connect 20 0 22 0;
#X connect 21 0 25 0;
#X connect 21 0 30 0;
#X connect 22 0 24 0;
#X connect 23 0 22 1;
#X connect 23 1 22 0;
#X connect 24 0 21 0;
#X connect 25 0 18 0;
#X connect 26 0 27 1;
#X connect 27 0 20 0;
#X connect 28 0 27 0;
#X connect 29 0 1 1;
#X connect 30 0 29 0;
#X restore 188 165 pd snth-vce;
#X connect 0 0 1 0;
#X connect 1 0 5 0;
#X connect 1 0 9 0;
#X connect 1 1 34 0;
#X connect 1 2 35 0;
#X connect 2 0 26 0;
#X connect 5 0 10 0;
#X connect 6 0 15 0;
#X connect 6 0 15 1;
#X connect 9 0 17 0;
#X connect 9 1 18 0;
#X connect 10 0 21 0;
#X connect 11 0 14 0;
#X connect 12 0 13 0;
#X connect 13 0 4 0;
#X connect 14 0 3 0;
#X connect 15 0 11 0;
#X connect 15 1 12 0;
#X connect 16 0 5 1;
#X connect 16 0 17 1;
#X connect 16 0 18 1;
#X connect 16 0 34 1;
#X connect 16 0 35 1;
#X connect 17 0 22 0;
#X connect 18 0 23 0;
#X connect 19 0 20 0;
#X connect 19 0 24 0;
#X connect 20 0 21 1;
#X connect 21 0 6 0;
#X connect 22 0 11 1;
#X connect 23 0 12 1;
#X connect 24 0 22 1;
#X connect 24 0 23 1;
#X connect 25 0 19 0;
#X connect 26 0 27 0;
#X connect 27 0 25 0;
#X connect 28 0 31 0;
#X connect 29 0 30 0;
#X connect 29 0 32 0;
#X connect 30 0 29 1;
#X connect 31 0 29 0;
#X connect 32 0 33 0;
#X connect 33 0 5 2;
#X connect 33 1 34 2;
#X connect 33 2 35 2;
#X connect 34 0 10 1;
#X connect 35 0 10 2;
#X restore 17 408 pd ply-snth;
#N canvas 571 185 450 300 fltr-ctrl 0;
#X obj 54 24 inlet;
#X obj 330 27 inlet;
#X obj 102 257 outlet~;
#X obj 330 73 osc~;
#X obj 161 22 inlet;
#X obj 54 114 mtof;
#X obj 54 153 vline~;
#X msg 54 133 \$1 50;
#X obj 161 47 / 127;
#X obj 178 198 *~;
#X obj 208 101 sig~;
#X obj 330 94 +~ 1;
#X obj 330 116 /~ 2;
#X obj 330 137 *~ 127;
#X obj 330 182 mtof~;
#X obj 102 228 +~;
#X obj 132 74 expr $f1*-1+1;
#X obj 129 105 sig~;
#X obj 84 178 *~;
#X obj 54 45 / 127;
#X obj 54 67 * 70;
#X obj 54 94 + 57;
#X obj 256 15 loadbang;
#X msg 247 49 0;
#X obj 330 49 / 2;
#X connect 0 0 19 0;
#X connect 1 0 24 0;
#X connect 3 0 11 0;
#X connect 4 0 8 0;
#X connect 5 0 7 0;
#X connect 6 0 18 0;
#X connect 7 0 6 0;
#X connect 8 0 10 0;
#X connect 8 0 16 0;
#X connect 9 0 15 1;
#X connect 10 0 9 0;
#X connect 11 0 12 0;
#X connect 12 0 13 0;
#X connect 13 0 14 0;
#X connect 14 0 9 1;
#X connect 15 0 2 0;
#X connect 16 0 17 0;
#X connect 17 0 18 1;
#X connect 18 0 15 0;
#X connect 19 0 20 0;
#X connect 20 0 21 0;
#X connect 21 0 5 0;
#X connect 22 0 23 0;
#X connect 23 0 8 0;
#X connect 24 0 3 0;
#X restore 105 325 pd fltr-ctrl;
#N canvas 261 69 450 300 control 0;
#X msg 122 93 1;
#X obj 140 126 ==;
#X obj 140 160 sel 1;
#X obj 96 55 inlet mtr;
#X obj 179 52 inlet tgl;
#X obj 167 209 outlet bng;
#X connect 0 0 1 0;
#X connect 1 0 2 0;
#X connect 2 1 5 0;
#X connect 3 0 0 0;
#X connect 4 0 2 1;
#X restore 17 278 pd control;
#X obj 17 323 f;
#X obj 257 186 tgl 15 0 empty empty empty 17 7 0 10 -262144 -1 -1 1
1;
#X obj 257 157 change;
#X obj 17 300 t b;
#N canvas 939 118 572 511 scope 0;
#X obj 82 149 gemhead;
#X obj 82 215 color 0 1 0;
#X obj 181 30 loadbang;
#X obj 193 121 inlet~;
#X obj 260 122 inlet~;
#X msg 82 126 1;
#X obj 193 167 clip~ -1 1;
#X obj 260 166 clip~ -1 1;
#X obj 260 144 lop~ 300;
#X obj 192 144 lop~ 300;
#X obj 336 104 inlet;
#X obj 336 159 mtof;
#X obj 336 211 osc~;
#X obj 82 181 rotateXYZ;
#X obj 123 32 bang~;
#X obj 111 9 phasor~ 0.125;
#X msg 181 99 draw line;
#N canvas 1303 385 450 300 rgb 0;
#X obj 74 129 * -1;
#X obj 74 151 + 1;
#X obj 74 81 clip 0 0.333;
#X obj 74 104 / 0.333;
#X obj 159 102 - 0.333;
#X obj 159 123 / 0.333;
#X obj 159 80 clip 0.333 0.666;
#X obj 182 195 -;
#X obj 267 80 clip 0.666 1;
#X obj 267 102 - 0.666;
#X obj 306 195 -;
#X obj 267 122 / 0.334;
#X obj 182 165 t b f;
#X obj 306 165 t b f;
#X obj 74 197 +;
#X obj 82 174 t b f;
#X obj 147 28 inlet;
#X obj 154 237 pack 0 1 0;
#X obj 155 267 outlet;
#X connect 0 0 1 0;
#X connect 1 0 14 0;
#X connect 2 0 3 0;
#X connect 3 0 0 0;
#X connect 3 0 7 0;
#X connect 4 0 5 0;
#X connect 5 0 10 0;
#X connect 5 0 12 0;
#X connect 6 0 4 0;
#X connect 7 0 17 1;
#X connect 8 0 9 0;
#X connect 9 0 11 0;
#X connect 10 0 17 2;
#X connect 11 0 13 0;
#X connect 11 0 15 0;
#X connect 12 0 7 0;
#X connect 12 1 7 1;
#X connect 13 0 10 0;
#X connect 13 1 10 1;
#X connect 14 0 17 0;
#X connect 15 0 14 0;
#X connect 15 1 14 1;
#X connect 16 0 2 0;
#X connect 16 0 6 0;
#X connect 16 0 8 0;
#X connect 17 0 18 0;
#X restore 142 181 pd rgb;
#X obj 39 164 * 360;
#X obj 110 55 snapshot~;
#X obj 465 270 clip 70 100;
#X obj 465 304 - 70;
#X obj 465 247 env~ 2048;
#X obj 465 333 / 15;
#X obj 181 406 color 0 1 0;
#N canvas 1303 385 450 300 rgb 0;
#X obj 74 129 * -1;
#X obj 74 151 + 1;
#X obj 74 81 clip 0 0.333;
#X obj 74 104 / 0.333;
#X obj 159 102 - 0.333;
#X obj 159 123 / 0.333;
#X obj 159 80 clip 0.333 0.666;
#X obj 182 195 -;
#X obj 267 80 clip 0.666 1;
#X obj 267 102 - 0.666;
#X obj 306 195 -;
#X obj 267 122 / 0.334;
#X obj 182 165 t b f;
#X obj 306 165 t b f;
#X obj 74 197 +;
#X obj 82 174 t b f;
#X obj 147 28 inlet;
#X obj 154 237 pack 0 1 0;
#X obj 155 267 outlet;
#X connect 0 0 1 0;
#X connect 1 0 14 0;
#X connect 2 0 3 0;
#X connect 3 0 0 0;
#X connect 3 0 7 0;
#X connect 4 0 5 0;
#X connect 5 0 10 0;
#X connect 5 0 12 0;
#X connect 6 0 4 0;
#X connect 7 0 17 1;
#X connect 8 0 9 0;
#X connect 9 0 11 0;
#X connect 10 0 17 2;
#X connect 11 0 13 0;
#X connect 11 0 15 0;
#X connect 12 0 7 0;
#X connect 12 1 7 1;
#X connect 13 0 10 0;
#X connect 13 1 10 1;
#X connect 14 0 17 0;
#X connect 15 0 14 0;
#X connect 15 1 14 1;
#X connect 16 0 2 0;
#X connect 16 0 6 0;
#X connect 16 0 8 0;
#X connect 17 0 18 0;
#X restore 244 379 pd rgb;
#X obj 244 357 wrap;
#X obj 244 335 + 0.5;
#X obj 440 102 inlet;
#X obj 440 124 route x y;
#X obj 373 123 gemhead;
#X obj 373 300 circle 0.05;
#X obj 373 230 translateXYZ;
#X obj 396 148 / 127;
#X obj 396 170 * 8;
#X obj 396 196 - 4;
#X obj 442 149 / 127;
#X obj 442 171 * 8;
#X obj 442 197 - 4;
#X obj 465 364 + 0.1;
#X obj 181 454 teapot 2 10;
#X msg 128 243 width 4;
#X obj 193 190 *~ 3;
#X obj 260 189 *~ 3;
#X obj 336 185 - 1;
#X obj 293 263 *~ 1.2;
#X obj 181 303 scopeXYZ~ 3072;
#X obj 336 131 - 24;
#X connect 0 0 13 0;
#X connect 1 0 46 0;
#X connect 2 0 16 0;
#X connect 2 0 5 0;
#X connect 2 0 41 0;
#X connect 3 0 9 0;
#X connect 3 0 22 0;
#X connect 4 0 8 0;
#X connect 5 0 0 0;
#X connect 6 0 42 0;
#X connect 7 0 43 0;
#X connect 8 0 7 0;
#X connect 9 0 6 0;
#X connect 10 0 47 0;
#X connect 11 0 44 0;
#X connect 12 0 45 0;
#X connect 13 0 1 0;
#X connect 13 0 24 0;
#X connect 14 0 19 0;
#X connect 15 0 19 0;
#X connect 16 0 40 0;
#X connect 16 0 46 0;
#X connect 17 0 1 1;
#X connect 18 0 13 1;
#X connect 18 0 13 3;
#X connect 18 0 13 2;
#X connect 19 0 18 0;
#X connect 19 0 17 0;
#X connect 19 0 27 0;
#X connect 20 0 21 0;
#X connect 21 0 23 0;
#X connect 22 0 20 0;
#X connect 23 0 39 0;
#X connect 24 0 40 0;
#X connect 25 0 24 1;
#X connect 26 0 25 0;
#X connect 27 0 26 0;
#X connect 28 0 29 0;
#X connect 29 0 33 0;
#X connect 29 1 36 0;
#X connect 30 0 32 0;
#X connect 32 0 31 0;
#X connect 33 0 34 0;
#X connect 34 0 35 0;
#X connect 35 0 32 1;
#X connect 36 0 37 0;
#X connect 37 0 38 0;
#X connect 38 0 32 2;
#X connect 39 0 40 1;
#X connect 41 0 46 0;
#X connect 42 0 46 1;
#X connect 43 0 46 2;
#X connect 44 0 12 0;
#X connect 45 0 46 3;
#X connect 47 0 11 0;
#X restore 23 453 pd scope;
#X obj 28 376 route 1;
#N canvas 1087 490 450 300 div4 0;
#X obj 115 23 inlet;
#X obj 115 68 tgl 15 0 empty empty empty 17 7 0 10 -262144 -1 -1 0
1;
#X obj 115 124 tgl 15 0 empty empty empty 17 7 0 10 -262144 -1 -1 0
1;
#X obj 115 232 outlet;
#X obj 115 188 t b;
#X obj 115 94 sel 1;
#X obj 115 150 sel 1;
#X connect 0 0 1 0;
#X connect 1 0 5 0;
#X connect 2 0 6 0;
#X connect 4 0 3 0;
#X connect 5 0 2 0;
#X connect 6 0 4 0;
#X restore 17 162 pd div4;
#X obj 25 183 bng 15 250 50 0 empty empty empty 17 7 0 10 -262144 -258113
-1;
#X obj 42 325 hradio 15 1 0 4 empty empty empty 0 -8 0 10 -262144 -1
-1 0;
#X obj 257 111 loadbang;
#X msg 257 132 1;
#X obj 315 218 hsl 128 15 0 127 0 0 empty empty joy-lfo-mix -2 -8 0
10 -262144 -1 -1 3000 1;
#X msg 302 186 30;
#X obj 381 201 ctlin 10 1;
#X msg 105 209 x \$1;
#X msg 49 184 y \$1;
#N canvas 0 50 450 300 midi-mouse 0;
#X obj 106 104 vradio 15 1 0 2 empty empty empty 0 -8 0 10 -262144
-1 -1 0;
#X obj 147 33 loadbang;
#X obj 147 212 switch;
#X obj 147 185 + 1;
#X obj 147 241 outlet;
#X obj 234 211 switch;
#X obj 234 240 outlet;
#X obj 251 85 gemmouse 127 1;
#X obj 271 107 * -1;
#X obj 271 128 + 1;
#X obj 271 149 * 127;
#X obj 193 182 ctlin 12 1;
#X obj 277 183 ctlin 14 1;
#X text 123 100 MOUSE;
#X text 123 118 MIDI;
#X msg 147 67 0;
#X msg 206 67 127;
#X connect 0 0 3 0;
#X connect 1 0 15 0;
#X connect 1 0 16 0;
#X connect 2 0 4 0;
#X connect 3 0 2 0;
#X connect 3 0 5 0;
#X connect 5 0 6 0;
#X connect 7 0 2 1;
#X connect 7 1 8 0;
#X connect 8 0 9 0;
#X connect 9 0 10 0;
#X connect 10 0 5 1;
#X connect 11 0 2 2;
#X connect 12 0 5 2;
#X connect 15 0 0 0;
#X connect 15 0 4 0;
#X connect 16 0 6 0;
#X coords 0 -1 1 1 76 40 2 100 100;
#X restore 105 11 pd midi-mouse;
#X text 122 146 2 switch dsp on;
#X text 122 162 3 create gemwin;
#X obj 315 265 hsl 128 15 0 127 0 0 env_rel empty env_release -2 -8
0 10 -262144 -1 -1 7000 1;
#X msg 280 218 70;
#X obj 473 202 ctlin 16 1;
#N canvas 0 50 450 447 tapV3 0;
#X obj 107 114 bng 15 250 50 0 empty empty tap! 0 -6 0 10 -262144 -258113
-1;
#X obj 202 53 sel 1;
#X obj 202 33 tgl 15 0 empty empty empty 17 7 0 10 -262144 -1 -1 0
1;
#X obj 202 94 timer;
#X obj 202 74 t b b;
#X obj 202 154 pow -1;
#X obj 202 134 / 1000;
#X obj 202 174 * 60;
#X obj 202 114 i;
#X obj 245 94 timer;
#X obj 245 74 t b b;
#X obj 245 154 pow -1;
#X obj 245 134 / 1000;
#X obj 245 174 * 60;
#X obj 245 114 i;
#X obj 245 225 +;
#X floatatom 130 115 5 0 0 1 BPM - -, f 5;
#X obj 245 194 t b f;
#X obj 191 328 metro;
#X obj 191 357 bng 15 250 50 0 empty empty empty 17 7 0 10 -262144
-1 -1;
#X obj 191 269 expr 60000/$f1;
#X obj 191 289 change;
#X msg 191 308 1;
#X obj 283 269 / 60;
#X floatatom 283 290 5 0 0 1 Hz - -, f 5;
#X obj 107 21 inlet;
#X obj 127 358 outlet;
#X obj 283 359 outlet;
#X connect 0 0 2 0;
#X connect 1 0 4 0;
#X connect 1 1 10 0;
#X connect 2 0 1 0;
#X connect 3 0 8 0;
#X connect 4 0 3 0;
#X connect 4 1 3 1;
#X connect 5 0 7 0;
#X connect 6 0 5 0;
#X connect 7 0 15 0;
#X connect 8 0 6 0;
#X connect 9 0 14 0;
#X connect 10 0 9 0;
#X connect 10 1 9 1;
#X connect 11 0 13 0;
#X connect 12 0 11 0;
#X connect 13 0 17 0;
#X connect 14 0 12 0;
#X connect 15 0 16 0;
#X connect 16 0 23 0;
#X connect 16 0 20 0;
#X connect 17 0 15 0;
#X connect 17 1 15 1;
#X connect 18 0 19 0;
#X connect 18 0 26 0;
#X connect 20 0 18 1;
#X connect 20 0 21 0;
#X connect 21 0 22 0;
#X connect 22 0 18 0;
#X connect 23 0 24 0;
#X connect 23 0 27 0;
#X connect 25 0 0 0;
#X coords 0 -1 1 1 85 36 2 100 100;
#X restore 271 36 pd tapV3;
#X text 122 130 1 tap/set tempo;
#X obj 473 225 * -1;
#X obj 473 248 + 127;
#X text 367 532 macieksypniewski.com;
#X text 369 547 github.com/maceq687;
#X text 325 518 made by Maciej Odrowaz-sypniewski;
#X connect 0 0 10 1;
#X connect 0 0 9 1;
#X connect 0 0 30 0;
#X connect 1 0 9 0;
#X connect 1 0 10 0;
#X connect 1 0 29 0;
#X connect 2 0 3 0;
#X connect 3 0 2 0;
#X connect 7 0 8 0;
#X connect 8 0 6 0;
#X connect 9 0 13 0;
#X connect 10 0 15 1;
#X connect 11 0 12 0;
#X connect 11 0 20 0;
#X connect 12 0 19 0;
#X connect 12 0 4 0;
#X connect 12 1 19 1;
#X connect 12 1 4 1;
#X connect 12 1 6 0;
#X connect 13 0 12 1;
#X connect 14 0 18 0;
#X connect 15 0 11 0;
#X connect 15 0 23 0;
#X connect 15 0 12 2;
#X connect 16 0 14 1;
#X connect 17 0 16 0;
#X connect 18 0 15 0;
#X connect 20 0 19 2;
#X connect 21 0 14 0;
#X connect 21 0 22 0;
#X connect 24 0 25 0;
#X connect 24 0 27 0;
#X connect 24 0 35 0;
#X connect 25 0 17 0;
#X connect 26 0 13 1;
#X connect 27 0 26 0;
#X connect 28 0 26 0;
#X connect 29 0 19 3;
#X connect 30 0 19 3;
#X connect 31 0 1 0;
#X connect 31 1 0 0;
#X connect 35 0 34 0;
#X connect 36 0 39 0;
#X connect 37 0 12 3;
#X connect 37 0 21 0;
#X connect 37 1 13 2;
#X connect 39 0 40 0;
#X connect 40 0 34 0;
