#N canvas 100 50 1192 660 10;
#X obj 763 63 ctlin 1 1;
#X floatatom 783 87 5 0 0 0 - - -, f 5;
#X floatatom 882 93 5 0 0 0 - - -, f 5;
#X obj 882 65 ctlin 5 1;
#X obj 747 119 switch;
#X floatatom 747 141 5 0 0 0 - - -, f 5;
#X obj 834 93 == 127;
#X obj 475 502 bob~;
#X obj 588 391 osc~;
#X obj 588 412 +~ 1;
#X obj 588 432 /~ 2;
#X obj 603 158 hradio 30 1 0 4 empty empty empty 0 -8 0 10 -262144
-1 -1 0;
#X obj 471 236 hsl 128 15 0 127 0 0 empty empty empty -2 -8 0 10 -262144
-1 -1 2309 1;
#X obj 468 255 / 12.7;
#X floatatom 468 277 5 0 0 0 - - -, f 5;
#X msg 603 214 1;
#X obj 603 256 t f b;
#X msg 618 235 2;
#X obj 588 472 mtof~;
#X obj 588 452 *~ 127;
#X obj 630 277 del 4;
#X msg 634 214 4;
#N canvas 558 149 450 300 contort 0;
#X obj 112 66 moses 32;
#X obj 157 92 moses 64;
#X obj 206 119 moses 96;
#X obj 131 200 hradio 15 1 0 4 empty empty empty 0 -8 0 10 -262144
-1 -1 0;
#X msg 117 119 0;
#X msg 162 122 1;
#X msg 206 155 2;
#X msg 242 166 3;
#X obj 115 26 inlet;
#X obj 148 246 outlet;
#X connect 0 0 4 0;
#X connect 0 1 1 0;
#X connect 1 0 5 0;
#X connect 1 1 2 0;
#X connect 2 0 6 0;
#X connect 2 1 7 0;
#X connect 3 0 9 0;
#X connect 4 0 3 0;
#X connect 5 0 3 0;
#X connect 6 0 3 0;
#X connect 7 0 3 0;
#X connect 8 0 0 0;
#X restore 603 136 pd contort;
#X obj 116 69 ctlin 10 1;
#X obj 230 69 ctlin 6 1;
#X obj 132 123 switch;
#X obj 230 98 == 127;
#X obj 117 411 phasor~;
#X obj 117 432 *~ 2;
#X obj 117 453 -~ 1;
#X obj 117 350 mtof;
#X floatatom 178 140 5 0 0 0 - - -, f 5;
#X obj 588 370 vline~;
#X msg 588 349 \$1 10;
#X obj 588 306 * 1;
#X obj 588 327 change;
#N canvas 685 163 696 378 scale 0;
#X obj 256 46 hsl 128 15 0 127 0 0 empty empty empty -2 -8 0 10 -262144
-1 -1 4800 1;
#X floatatom 307 66 5 0 0 0 - - -, f 5;
#X obj 253 26 inlet;
#X obj 275 87 sel 0 1 2 3 4 5 6 7 8 9 10 11 12;
#X obj 238 287 outlet;
#N canvas 261 69 450 300 control 0;
#X msg 122 93 1;
#X obj 140 126 ==;
#X obj 140 160 sel 1;
#X obj 96 55 inlet mtr;
#X obj 179 52 inlet tgl;
#X obj 167 209 outlet bng;
#X connect 0 0 1 0;
#X connect 1 0 2 0;
#X connect 2 1 5 0;
#X connect 3 0 0 0;
#X connect 4 0 2 1;
#X restore 275 121 pd control;
#X obj 106 124 tgl 15 0 empty empty empty 17 7 0 10 -262144 -1 -1 1
1;
#N canvas 261 69 450 300 control 0;
#X msg 122 93 1;
#X obj 140 126 ==;
#X obj 140 160 sel 1;
#X obj 96 55 inlet mtr;
#X obj 179 52 inlet tgl;
#X obj 167 209 outlet bng;
#X connect 0 0 1 0;
#X connect 1 0 2 0;
#X connect 2 1 5 0;
#X connect 3 0 0 0;
#X connect 4 0 2 1;
#X restore 289 140 pd control;
#X obj 115 107 tgl 15 0 empty empty empty 17 7 0 10 -262144 -1 -1 0
1;
#N canvas 261 69 450 300 control 0;
#X msg 122 93 1;
#X obj 140 126 ==;
#X obj 140 160 sel 1;
#X obj 96 55 inlet mtr;
#X obj 179 52 inlet tgl;
#X obj 167 209 outlet bng;
#X connect 0 0 1 0;
#X connect 1 0 2 0;
#X connect 2 1 5 0;
#X connect 3 0 0 0;
#X connect 4 0 2 1;
#X restore 304 159 pd control;
#X obj 123 124 tgl 15 0 empty empty empty 17 7 0 10 -262144 -1 -1 0
1;
#N canvas 261 69 450 300 control 0;
#X msg 122 93 1;
#X obj 140 126 ==;
#X obj 140 160 sel 1;
#X obj 96 55 inlet mtr;
#X obj 179 52 inlet tgl;
#X obj 167 209 outlet bng;
#X connect 0 0 1 0;
#X connect 1 0 2 0;
#X connect 2 1 5 0;
#X connect 3 0 0 0;
#X connect 4 0 2 1;
#X restore 318 179 pd control;
#X obj 132 107 tgl 15 0 empty empty empty 17 7 0 10 -262144 -1 -1 0
1;
#N canvas 261 69 450 300 control 0;
#X msg 122 93 1;
#X obj 140 126 ==;
#X obj 140 160 sel 1;
#X obj 96 55 inlet mtr;
#X obj 179 52 inlet tgl;
#X obj 167 209 outlet bng;
#X connect 0 0 1 0;
#X connect 1 0 2 0;
#X connect 2 1 5 0;
#X connect 3 0 0 0;
#X connect 4 0 2 1;
#X restore 333 198 pd control;
#X obj 140 124 tgl 15 0 empty empty empty 17 7 0 10 -262144 -1 -1 1
1;
#N canvas 261 69 450 300 control 0;
#X msg 122 93 1;
#X obj 140 126 ==;
#X obj 140 160 sel 1;
#X obj 96 55 inlet mtr;
#X obj 179 52 inlet tgl;
#X obj 167 209 outlet bng;
#X connect 0 0 1 0;
#X connect 1 0 2 0;
#X connect 2 1 5 0;
#X connect 3 0 0 0;
#X connect 4 0 2 1;
#X restore 347 120 pd control;
#X obj 158 124 tgl 15 0 empty empty empty 17 7 0 10 -262144 -1 -1 0
1;
#N canvas 261 69 450 300 control 0;
#X msg 122 93 1;
#X obj 140 126 ==;
#X obj 140 160 sel 1;
#X obj 96 55 inlet mtr;
#X obj 179 52 inlet tgl;
#X obj 167 209 outlet bng;
#X connect 0 0 1 0;
#X connect 1 0 2 0;
#X connect 2 1 5 0;
#X connect 3 0 0 0;
#X connect 4 0 2 1;
#X restore 361 139 pd control;
#X obj 167 107 tgl 15 0 empty empty empty 17 7 0 10 -262144 -1 -1 0
1;
#N canvas 261 69 450 300 control 0;
#X msg 122 93 1;
#X obj 140 126 ==;
#X obj 140 160 sel 1;
#X obj 96 55 inlet mtr;
#X obj 179 52 inlet tgl;
#X obj 167 209 outlet bng;
#X connect 0 0 1 0;
#X connect 1 0 2 0;
#X connect 2 1 5 0;
#X connect 3 0 0 0;
#X connect 4 0 2 1;
#X restore 376 158 pd control;
#X obj 175 124 tgl 15 0 empty empty empty 17 7 0 10 -262144 -1 -1 1
1;
#N canvas 261 69 450 300 control 0;
#X msg 122 93 1;
#X obj 140 126 ==;
#X obj 140 160 sel 1;
#X obj 96 55 inlet mtr;
#X obj 179 52 inlet tgl;
#X obj 167 209 outlet bng;
#X connect 0 0 1 0;
#X connect 1 0 2 0;
#X connect 2 1 5 0;
#X connect 3 0 0 0;
#X connect 4 0 2 1;
#X restore 390 178 pd control;
#X obj 184 107 tgl 15 0 empty empty empty 17 7 0 10 -262144 -1 -1 0
1;
#N canvas 261 69 450 300 control 0;
#X msg 122 93 1;
#X obj 140 126 ==;
#X obj 140 160 sel 1;
#X obj 96 55 inlet mtr;
#X obj 179 52 inlet tgl;
#X obj 167 209 outlet bng;
#X connect 0 0 1 0;
#X connect 1 0 2 0;
#X connect 2 1 5 0;
#X connect 3 0 0 0;
#X connect 4 0 2 1;
#X restore 405 197 pd control;
#X obj 192 124 tgl 15 0 empty empty empty 17 7 0 10 -262144 -1 -1 0
1;
#N canvas 261 69 450 300 control 0;
#X msg 122 93 1;
#X obj 140 126 ==;
#X obj 140 160 sel 1;
#X obj 96 55 inlet mtr;
#X obj 179 52 inlet tgl;
#X obj 167 209 outlet bng;
#X connect 0 0 1 0;
#X connect 1 0 2 0;
#X connect 2 1 5 0;
#X connect 3 0 0 0;
#X connect 4 0 2 1;
#X restore 419 120 pd control;
#X obj 201 107 tgl 15 0 empty empty empty 17 7 0 10 -262144 -1 -1 0
1;
#N canvas 261 69 450 300 control 0;
#X msg 122 93 1;
#X obj 140 126 ==;
#X obj 140 160 sel 1;
#X obj 96 55 inlet mtr;
#X obj 179 52 inlet tgl;
#X obj 167 209 outlet bng;
#X connect 0 0 1 0;
#X connect 1 0 2 0;
#X connect 2 1 5 0;
#X connect 3 0 0 0;
#X connect 4 0 2 1;
#X restore 434 139 pd control;
#X obj 209 124 tgl 15 0 empty empty empty 17 7 0 10 -262144 -1 -1 0
1;
#X floatatom 291 283 5 0 0 0 - - -, f 5;
#X obj 275 66 % 12;
#X obj 238 266 i;
#X obj 238 245 del 1;
#X obj 114 143 bng 15 250 50 0 empty empty empty 17 7 0 10 -262144
-1 -1;
#X obj 132 143 bng 15 250 50 0 empty empty empty 17 7 0 10 -262144
-1 -1;
#X obj 105 161 bng 15 250 50 0 empty empty empty 17 7 0 10 -262144
-1 -1;
#X obj 123 161 bng 15 250 50 0 empty empty empty 17 7 0 10 -262144
-1 -1;
#X obj 168 143 bng 15 250 50 0 empty empty empty 17 7 0 10 -262144
-1 -1;
#X obj 186 143 bng 15 250 50 0 empty empty empty 17 7 0 10 -262144
-1 -1;
#X obj 159 161 bng 15 250 50 0 empty empty empty 17 7 0 10 -262144
-1 -1;
#X obj 177 161 bng 15 250 50 0 empty empty empty 17 7 0 10 -262144
-1 -1;
#X obj 141 161 bng 15 250 50 0 empty empty empty 17 7 0 10 -262144
-1 -1;
#X obj 204 143 bng 15 250 50 0 empty empty empty 17 7 0 10 -262144
-1 -1;
#X obj 213 161 bng 15 250 50 0 empty empty empty 17 7 0 10 -262144
-1 -1;
#X obj 195 161 bng 15 250 50 0 empty empty empty 17 7 0 10 -262144
-1 -1;
#X obj 158 49 loadbang;
#X msg 158 66 0;
#X connect 0 0 1 0;
#X connect 0 0 30 0;
#X connect 0 0 31 1;
#X connect 2 0 0 0;
#X connect 3 0 5 0;
#X connect 3 1 7 0;
#X connect 3 2 9 0;
#X connect 3 3 11 0;
#X connect 3 4 13 0;
#X connect 3 5 15 0;
#X connect 3 6 17 0;
#X connect 3 7 19 0;
#X connect 3 8 21 0;
#X connect 3 9 23 0;
#X connect 3 10 25 0;
#X connect 3 11 27 0;
#X connect 5 0 32 0;
#X connect 5 0 35 0;
#X connect 6 0 5 1;
#X connect 7 0 32 0;
#X connect 7 0 33 0;
#X connect 8 0 7 1;
#X connect 9 0 32 0;
#X connect 9 0 36 0;
#X connect 10 0 9 1;
#X connect 11 0 32 0;
#X connect 11 0 34 0;
#X connect 12 0 11 1;
#X connect 13 0 32 0;
#X connect 13 0 41 0;
#X connect 14 0 13 1;
#X connect 15 0 32 0;
#X connect 15 0 39 0;
#X connect 16 0 15 1;
#X connect 17 0 32 0;
#X connect 17 0 37 0;
#X connect 18 0 17 1;
#X connect 19 0 32 0;
#X connect 19 0 40 0;
#X connect 20 0 19 1;
#X connect 21 0 32 0;
#X connect 21 0 38 0;
#X connect 22 0 21 1;
#X connect 23 0 32 0;
#X connect 23 0 44 0;
#X connect 24 0 23 1;
#X connect 25 0 32 0;
#X connect 25 0 42 0;
#X connect 26 0 25 1;
#X connect 27 0 32 0;
#X connect 27 0 43 0;
#X connect 28 0 27 1;
#X connect 30 0 3 0;
#X connect 31 0 29 0;
#X connect 31 0 4 0;
#X connect 32 0 31 0;
#X connect 45 0 46 0;
#X connect 46 0 6 0;
#X connect 46 0 8 0;
#X connect 46 0 12 0;
#X connect 46 0 10 0;
#X connect 46 0 14 0;
#X connect 46 0 16 0;
#X connect 46 0 18 0;
#X connect 46 0 22 0;
#X connect 46 0 26 0;
#X connect 46 0 20 0;
#X connect 46 0 24 0;
#X connect 46 0 28 0;
#X coords 0 -1 1 1 130 80 2 100 100;
#X restore 132 246 pd scale;
#X floatatom 144 330 5 0 0 0 - - -, f 5;
#X obj 132 144 change;
#X text 249 47 left hand presence;
#X text 121 45 pitch;
#X text 737 38 lfo multiply;
#X text 898 43 right hand presence;
#X obj 117 391 vline~;
#X msg 117 370 \$1 10;
#X obj 476 541 tanh~;
#X obj 475 521 overdrive~ 7;
#X obj 603 193 sel 3 2 1 0;
#N canvas 368 50 872 711 midi-asdr-y 0;
#X obj 468 298 timer;
#X obj 538 288 +;
#X obj 538 259 f;
#X obj 467 224 t b b;
#X obj 469 391 >= 0;
#X obj 469 346 t f f;
#X obj 419 484 f;
#X msg 419 517 0 \$1;
#X obj 568 467 f;
#X obj 568 492 pack f f f;
#X obj 369 553 vline~;
#X obj 469 420 sel 0 1;
#X msg 568 521 \$1 \$2 \, 0 \$3 \$2;
#X obj 469 323 expr $f2-$f1;
#X obj 597 368 min;
#X obj 597 389 min;
#X text 168 269 [attack \, decay \, sustain];
#X text 480 120 [release];
#X obj 197 502 pack f f f f f;
#X msg 197 527 \$1 \$2 \, \$3 \$4 \$5;
#X obj 246 396 *;
#X obj 188 351 t f f;
#X obj 662 446 *;
#X obj 369 691 outlet~;
#X obj 467 186 sel 1 0;
#X obj 22 23 inlet velocity;
#X obj 114 23 inlet A;
#X obj 163 23 inlet D;
#X obj 213 24 inlet S;
#X obj 262 24 inlet R;
#X text 638 64 attack \, decay \, release = ms;
#X text 636 13 UNITS:;
#X text 635 27 velocity: noteoff = 0;
#X text 640 79 sustain = 0->1;
#X obj 22 75 / 127;
#X obj 22 51 clip 0 127;
#X text 694 42 full volume = 127;
#X obj 467 165 > 0;
#X obj 161 320 sel 0;
#X obj 369 625 expr~ $v1*$v1;
#X obj 369 577 *~ -1;
#X obj 370 602 +~ 1;
#X obj 368 649 *~ -1;
#X obj 369 670 +~ 1;
#X obj 119 499 del;
#X obj 37 473 sel 0;
#X obj 342 522 t b;
#X msg 232 582 1;
#X msg 230 609 0;
#X msg 229 646 -1;
#X msg 229 673 1;
#X floatatom 139 421 5 0 0 0 - - -, f 5;
#X obj 89 486 t b;
#X connect 0 0 13 0;
#X connect 1 0 13 1;
#X connect 2 0 1 0;
#X connect 3 0 0 0;
#X connect 3 1 2 0;
#X connect 4 0 11 0;
#X connect 5 0 4 0;
#X connect 5 1 14 0;
#X connect 6 0 7 0;
#X connect 6 0 46 0;
#X connect 7 0 10 0;
#X connect 8 0 9 0;
#X connect 9 0 12 0;
#X connect 10 0 40 0;
#X connect 11 0 6 0;
#X connect 11 1 8 0;
#X connect 12 0 10 0;
#X connect 13 0 5 0;
#X connect 14 0 15 0;
#X connect 15 0 9 1;
#X connect 18 0 19 0;
#X connect 19 0 10 0;
#X connect 20 0 18 2;
#X connect 21 0 18 0;
#X connect 21 1 20 0;
#X connect 22 0 8 1;
#X connect 24 0 3 0;
#X connect 24 1 0 1;
#X connect 25 0 35 0;
#X connect 26 0 18 1;
#X connect 26 0 18 4;
#X connect 26 0 2 1;
#X connect 26 0 51 0;
#X connect 27 0 18 3;
#X connect 27 0 14 1;
#X connect 27 0 1 1;
#X connect 28 0 20 1;
#X connect 28 0 22 1;
#X connect 29 0 15 1;
#X connect 29 0 9 2;
#X connect 29 0 6 1;
#X connect 34 0 38 0;
#X connect 34 0 37 0;
#X connect 34 0 22 0;
#X connect 34 0 45 0;
#X connect 35 0 34 0;
#X connect 37 0 24 0;
#X connect 38 1 21 0;
#X connect 39 0 42 0;
#X connect 40 0 41 0;
#X connect 41 0 39 0;
#X connect 42 0 43 0;
#X connect 43 0 23 0;
#X connect 44 0 47 0;
#X connect 44 0 48 0;
#X connect 45 0 47 0;
#X connect 45 0 48 0;
#X connect 45 1 49 0;
#X connect 45 1 50 0;
#X connect 45 1 52 0;
#X connect 46 0 47 0;
#X connect 46 0 48 0;
#X connect 47 0 40 1;
#X connect 47 0 42 1;
#X connect 48 0 43 1;
#X connect 48 0 41 1;
#X connect 49 0 40 1;
#X connect 49 0 42 1;
#X connect 50 0 41 1;
#X connect 50 0 43 1;
#X connect 51 0 44 1;
#X connect 52 0 44 0;
#X restore 405 469 pd midi-asdr-y;
#X obj 655 318 vsl 15 128 0 127 0 0 empty empty A 0 -9 0 10 -204800
-1 -1 2900 1;
#X obj 704 318 vsl 15 128 0 127 0 0 empty empty D 0 -9 0 10 -204800
-1 -1 3600 1;
#X obj 753 318 vsl 15 128 0 127 0 0 empty empty S 0 -9 0 10 -204800
-1 -1 12700 1;
#N canvas 0 50 450 300 math 0;
#X obj 124 28 inlet;
#X obj 122 199 outlet;
#X obj 125 55 / 127;
#X obj 124 144 *;
#X obj 124 79 * 54.8;
#X obj 138 112 t f b;
#X obj 164 134 del 1;
#X obj 123 170 + 1;
#X connect 0 0 2 0;
#X connect 2 0 4 0;
#X connect 3 0 7 0;
#X connect 4 0 3 0;
#X connect 4 0 5 0;
#X connect 5 0 3 1;
#X connect 5 1 6 0;
#X connect 6 0 3 0;
#X connect 7 0 1 0;
#X restore 655 452 pd math;
#X floatatom 655 477 5 0 0 0 - - -, f 5;
#X obj 753 452 / 127;
#N canvas 0 50 450 300 math 0;
#X obj 124 28 inlet;
#X obj 122 199 outlet;
#X obj 125 55 / 127;
#X obj 124 144 *;
#X obj 124 79 * 54.8;
#X obj 138 112 t f b;
#X obj 164 134 del 1;
#X obj 123 170 + 1;
#X connect 0 0 2 0;
#X connect 2 0 4 0;
#X connect 3 0 7 0;
#X connect 4 0 3 0;
#X connect 4 0 5 0;
#X connect 5 0 3 1;
#X connect 5 1 6 0;
#X connect 6 0 3 0;
#X connect 7 0 1 0;
#X restore 704 452 pd math;
#X floatatom 704 476 5 0 0 0 - - -, f 5;
#X floatatom 753 492 5 0 0 0 - - -, f 5;
#X obj 753 472 * 100;
#X obj 790 318 vsl 15 128 0 127 0 0 empty empty R 0 -9 0 10 -204800
-1 -1 3600 1;
#N canvas 0 50 450 300 math 0;
#X obj 124 28 inlet;
#X obj 122 199 outlet;
#X obj 125 55 / 127;
#X obj 124 144 *;
#X obj 124 79 * 54.8;
#X obj 138 112 t f b;
#X obj 164 134 del 1;
#X obj 123 170 + 1;
#X connect 0 0 2 0;
#X connect 2 0 4 0;
#X connect 3 0 7 0;
#X connect 4 0 3 0;
#X connect 4 0 5 0;
#X connect 5 0 3 1;
#X connect 5 1 6 0;
#X connect 6 0 3 0;
#X connect 7 0 1 0;
#X restore 790 452 pd math;
#X floatatom 790 472 5 0 0 0 - - -, f 5;
#X obj 275 126 sel 0;
#X obj 275 98 change;
#X msg 305 147 127;
#X msg 275 147 0;
#X obj 173 371 t b;
#X obj 173 350 change;
#X msg 173 411 127;
#X obj 476 567 *~;
#X obj 132 165 / 127;
#X obj 132 186 * 24;
#X obj 132 206 i;
#X obj 132 226 + 24;
#X msg 421 374 0.25;
#X obj 421 72 bng 15 250 50 0 empty empty tap_tempo 17 7 0 10 -261682
-1 -1;
#N canvas 0 50 467 638 tappmetro 0;
#X obj 101 67 timer;
#X obj 101 42 t b b;
#X floatatom 101 87 5 0 0 0 - - -, f 5;
#X obj 82 436 metro;
#X obj 101 138 poly 4 1;
#X obj 96 183 route 1 2 3 4;
#X obj 96 161 pack 0 0 0;
#X obj 152 209 unpack 0 0;
#X obj 93 297 unpack 0 0;
#X obj 115 268 unpack 0 0;
#X obj 152 344 / 2;
#X obj 134 236 unpack 0 0;
#X obj 188 295 / 2;
#X obj 152 321 +;
#X obj 190 269 +;
#X obj 158 370 +;
#X floatatom 157 413 5 0 0 0 - - -, f 5;
#X obj 101 107 t f f;
#X obj 157 393 / 2;
#X obj 76 217 bng 15 250 50 0 empty empty empty 17 7 0 10 -262144 -1
-1;
#X obj 105 14 inlet;
#X obj 73 490 outlet;
#X obj 173 436 / 1000;
#X obj 178 502 outlet;
#X text 213 473 period in hertz;
#X obj 173 465 pow -1;
#X connect 0 0 2 0;
#X connect 1 0 0 0;
#X connect 1 1 0 1;
#X connect 2 0 17 0;
#X connect 3 0 21 0;
#X connect 4 0 6 0;
#X connect 4 1 6 1;
#X connect 4 2 6 2;
#X connect 5 0 8 0;
#X connect 5 0 19 0;
#X connect 5 1 9 0;
#X connect 5 2 11 0;
#X connect 5 3 7 0;
#X connect 6 0 5 0;
#X connect 7 1 14 0;
#X connect 8 1 13 1;
#X connect 9 1 13 0;
#X connect 10 0 15 1;
#X connect 11 1 14 1;
#X connect 12 0 15 0;
#X connect 13 0 10 0;
#X connect 14 0 12 0;
#X connect 15 0 18 0;
#X connect 16 0 3 1;
#X connect 16 0 22 0;
#X connect 17 0 4 0;
#X connect 17 1 4 1;
#X connect 18 0 16 0;
#X connect 19 0 3 0;
#X connect 20 0 1 0;
#X connect 22 0 25 0;
#X connect 25 0 23 0;
#X restore 421 98 pd tappmetro;
#X obj 421 125 bng 15 250 50 0 empty empty trigger 17 7 0 10 -262144
-1 -1;
#X floatatom 490 117 5 0 0 1 hertz - -, f 5;
#X floatatom 490 152 5 0 0 1 BPM - -, f 5;
#X obj 490 133 * 60;
#X obj 117 329 i;
#X obj 468 215 * 12.7;
#X obj 468 193 / 2;
#X obj 476 589 out~;
#X text 940 201 1 set (tap) tempo;
#X text 940 217 2 set scale;
#X text 940 233 3 set ADSR parameters;
#X text 34 616 macieksypniewski.com;
#X text 33 631 github.com/maceq687;
#X text 33 586 made by;
#X text 34 601 Maciej Odrowąż-Sypniewski;
#N canvas 261 69 450 300 control 0;
#X msg 122 93 1;
#X obj 140 126 ==;
#X obj 140 160 sel 1;
#X obj 96 55 inlet mtr;
#X obj 179 52 inlet tgl;
#X obj 167 209 outlet bng;
#X connect 0 0 1 0;
#X connect 1 0 2 0;
#X connect 2 1 5 0;
#X connect 3 0 0 0;
#X connect 4 0 2 1;
#X restore 173 391 pd control;
#X msg 650 235 6;
#X connect 0 0 1 0;
#X connect 0 0 4 1;
#X connect 3 0 2 0;
#X connect 3 0 6 0;
#X connect 4 0 5 0;
#X connect 4 0 22 0;
#X connect 6 0 4 0;
#X connect 7 0 46 0;
#X connect 8 0 9 0;
#X connect 9 0 10 0;
#X connect 10 0 19 0;
#X connect 11 0 47 0;
#X connect 12 0 13 0;
#X connect 13 0 14 0;
#X connect 13 0 34 0;
#X connect 15 0 16 0;
#X connect 16 0 34 1;
#X connect 16 1 20 0;
#X connect 17 0 16 0;
#X connect 18 0 7 1;
#X connect 19 0 18 0;
#X connect 20 0 34 0;
#X connect 21 0 16 0;
#X connect 22 0 11 0;
#X connect 23 0 25 1;
#X connect 24 0 26 0;
#X connect 24 0 63 0;
#X connect 25 0 31 0;
#X connect 25 0 38 0;
#X connect 26 0 25 0;
#X connect 26 0 92 1;
#X connect 27 0 28 0;
#X connect 28 0 29 0;
#X connect 29 0 7 0;
#X connect 30 0 44 0;
#X connect 32 0 8 0;
#X connect 33 0 32 0;
#X connect 34 0 35 0;
#X connect 35 0 33 0;
#X connect 36 0 37 0;
#X connect 36 0 81 1;
#X connect 38 0 70 0;
#X connect 43 0 27 0;
#X connect 44 0 43 0;
#X connect 45 0 69 0;
#X connect 46 0 45 0;
#X connect 47 0 15 0;
#X connect 47 1 17 0;
#X connect 47 2 21 0;
#X connect 47 3 93 0;
#X connect 48 0 69 1;
#X connect 49 0 52 0;
#X connect 50 0 55 0;
#X connect 51 0 54 0;
#X connect 52 0 53 0;
#X connect 52 0 48 1;
#X connect 54 0 58 0;
#X connect 54 0 48 3;
#X connect 55 0 56 0;
#X connect 55 0 48 2;
#X connect 58 0 57 0;
#X connect 59 0 60 0;
#X connect 60 0 61 0;
#X connect 60 0 48 4;
#X connect 62 0 65 0;
#X connect 62 1 64 0;
#X connect 63 0 62 0;
#X connect 64 0 48 0;
#X connect 65 0 48 0;
#X connect 66 0 74 0;
#X connect 66 0 92 0;
#X connect 67 0 66 0;
#X connect 68 0 48 0;
#X connect 69 0 84 0;
#X connect 69 0 84 1;
#X connect 70 0 71 0;
#X connect 71 0 72 0;
#X connect 72 0 73 0;
#X connect 73 0 36 0;
#X connect 74 0 8 1;
#X connect 75 0 76 0;
#X connect 76 0 77 0;
#X connect 76 1 78 0;
#X connect 76 1 83 0;
#X connect 77 0 81 0;
#X connect 78 0 80 0;
#X connect 80 0 79 0;
#X connect 81 0 30 0;
#X connect 81 0 67 0;
#X connect 82 0 12 0;
#X connect 83 0 82 0;
#X connect 92 0 68 0;
#X connect 93 0 16 0;
